<?xml version="1.0" encoding="UTF-8" standalone="no"?>
<!DOCTYPE svg PUBLIC "-//W3C//DTD SVG 1.1//EN"
 "http://www.w3.org/Graphics/SVG/1.1/DTD/svg11.dtd">
<!-- Generated by graphviz version 14.1.4 (20260321.0153)
 -->
<!-- Title: G Pages: 1 -->
<svg width="2402pt" height="1507pt"
 viewBox="0.00 0.00 2402.00 1507.00" xmlns="http://www.w3.org/2000/svg" xmlns:xlink="http://www.w3.org/1999/xlink">
<g id="graph0" class="graph" transform="scale(1 1) rotate(0) translate(4 1502.8)">
<title>G</title>
<polygon fill="white" stroke="none" points="-4,4 -4,-1502.8 2397.6,-1502.8 2397.6,4 -4,4"/>
<!-- b&#45;passenger -->
<g id="node1" class="node">
<title>b&#45;passenger</title>
<path fill="#fdf3c4" stroke="#c9a227" d="M1121.6,-1206C1121.6,-1206 980,-1206 980,-1206 974,-1206 968,-1200 968,-1194 968,-1194 968,-1149.6 968,-1149.6 968,-1143.6 974,-1137.6 980,-1137.6 980,-1137.6 1121.6,-1137.6 1121.6,-1137.6 1127.6,-1137.6 1133.6,-1143.6 1133.6,-1149.6 1133.6,-1149.6 1133.6,-1194 1133.6,-1194 1133.6,-1200 1127.6,-1206 1121.6,-1206"/>
<text xml:space="preserve" text-anchor="middle" x="1050.8" y="-1166.2" font-family="Helvetica,sans-Serif" font-weight="bold" font-size="13.00">Passenger</text>
</g>
<!-- b&#45;proc&#45;journey -->
<g id="node9" class="node">
<title>b&#45;proc&#45;journey</title>
<path fill="#fdf3c4" stroke="#c9a227" d="M570.6,-1352.4C570.6,-1352.4 429,-1352.4 429,-1352.4 423,-1352.4 417,-1346.4 417,-1340.4 417,-1340.4 417,-1296 417,-1296 417,-1290 423,-1284 429,-1284 429,-1284 570.6,-1284 570.6,-1284 576.6,-1284 582.6,-1290 582.6,-1296 582.6,-1296 582.6,-1340.4 582.6,-1340.4 582.6,-1346.4 576.6,-1352.4 570.6,-1352.4"/>
<text xml:space="preserve" text-anchor="middle" x="499.8" y="-1319.35" font-family="Helvetica,sans-Serif" font-weight="bold" font-size="13.00">Handle Journeys</text>
<text xml:space="preserve" text-anchor="middle" x="499.8" y="-1305.85" font-family="Helvetica,sans-Serif" font-weight="bold" font-size="13.00">&amp; Fares</text>
</g>
<!-- b&#45;passenger&#45;&gt;b&#45;proc&#45;journey -->
<g id="edge7" class="edge">
<title>b&#45;passenger&#45;&gt;b&#45;proc&#45;journey</title>
<path fill="none" stroke="black" d="M967.56,-1180.79C889,-1189.82 768.61,-1207.54 668.05,-1239 635.46,-1249.19 601.02,-1264.35 571.84,-1278.62"/>
<polygon fill="black" stroke="black" points="570.51,-1275.37 563.1,-1282.95 573.62,-1281.64 570.51,-1275.37"/>
<text xml:space="preserve" text-anchor="middle" x="683.42" y="-1240.55" font-family="Helvetica,sans-Serif" font-size="11.00">assign</text>
</g>
<!-- b&#45;css -->
<g id="node2" class="node">
<title>b&#45;css</title>
<path fill="#fdf3c4" stroke="#c9a227" d="M645.6,-1206C645.6,-1206 504,-1206 504,-1206 498,-1206 492,-1200 492,-1194 492,-1194 492,-1149.6 492,-1149.6 492,-1143.6 498,-1137.6 504,-1137.6 504,-1137.6 645.6,-1137.6 645.6,-1137.6 651.6,-1137.6 657.6,-1143.6 657.6,-1149.6 657.6,-1149.6 657.6,-1194 657.6,-1194 657.6,-1200 651.6,-1206 645.6,-1206"/>
<text xml:space="preserve" text-anchor="middle" x="574.8" y="-1172.95" font-family="Helvetica,sans-Serif" font-weight="bold" font-size="13.00">Customer</text>
<text xml:space="preserve" text-anchor="middle" x="574.8" y="-1159.45" font-family="Helvetica,sans-Serif" font-weight="bold" font-size="13.00">Support Staff</text>
</g>
<!-- b&#45;css&#45;&gt;b&#45;proc&#45;journey -->
<g id="edge8" class="edge">
<title>b&#45;css&#45;&gt;b&#45;proc&#45;journey</title>
<path fill="none" stroke="black" d="M557.4,-1206.29C546.98,-1226.36 533.62,-1252.09 522.39,-1273.71"/>
<polygon fill="black" stroke="black" points="519.43,-1271.81 517.93,-1282.3 525.64,-1275.04 519.43,-1271.81"/>
<text xml:space="preserve" text-anchor="middle" x="554.92" y="-1240.55" font-family="Helvetica,sans-Serif" font-size="11.00">assign</text>
</g>
<!-- b&#45;controller -->
<g id="node3" class="node">
<title>b&#45;controller</title>
<path fill="#fdf3c4" stroke="#c9a227" d="M2175.6,-654C2175.6,-654 2034,-654 2034,-654 2028,-654 2022,-648 2022,-642 2022,-642 2022,-597.6 2022,-597.6 2022,-591.6 2028,-585.6 2034,-585.6 2034,-585.6 2175.6,-585.6 2175.6,-585.6 2181.6,-585.6 2187.6,-591.6 2187.6,-597.6 2187.6,-597.6 2187.6,-642 2187.6,-642 2187.6,-648 2181.6,-654 2175.6,-654"/>
<text xml:space="preserve" text-anchor="middle" x="2104.8" y="-620.95" font-family="Helvetica,sans-Serif" font-weight="bold" font-size="13.00">Operations</text>
<text xml:space="preserve" text-anchor="middle" x="2104.8" y="-607.45" font-family="Helvetica,sans-Serif" font-weight="bold" font-size="13.00">Controller</text>
</g>
<!-- b&#45;proc&#45;delay -->
<g id="node11" class="node">
<title>b&#45;proc&#45;delay</title>
<path fill="#fdf3c4" stroke="#c9a227" d="M2021.6,-856.8C2021.6,-856.8 1880,-856.8 1880,-856.8 1874,-856.8 1868,-850.8 1868,-844.8 1868,-844.8 1868,-800.4 1868,-800.4 1868,-794.4 1874,-788.4 1880,-788.4 1880,-788.4 2021.6,-788.4 2021.6,-788.4 2027.6,-788.4 2033.6,-794.4 2033.6,-800.4 2033.6,-800.4 2033.6,-844.8 2033.6,-844.8 2033.6,-850.8 2027.6,-856.8 2021.6,-856.8"/>
<text xml:space="preserve" text-anchor="middle" x="1950.8" y="-823.75" font-family="Helvetica,sans-Serif" font-weight="bold" font-size="13.00">Handle Delays</text>
<text xml:space="preserve" text-anchor="middle" x="1950.8" y="-810.25" font-family="Helvetica,sans-Serif" font-weight="bold" font-size="13.00">&amp; Disruptions</text>
</g>
<!-- b&#45;controller&#45;&gt;b&#45;proc&#45;delay -->
<g id="edge9" class="edge">
<title>b&#45;controller&#45;&gt;b&#45;proc&#45;delay</title>
<path fill="none" stroke="black" d="M2079.02,-654.41C2052.74,-688.68 2011.88,-741.96 1983.37,-779.13"/>
<polygon fill="black" stroke="black" points="1980.63,-776.95 1977.32,-787.01 1986.19,-781.21 1980.63,-776.95"/>
<text xml:space="preserve" text-anchor="middle" x="2065.97" y="-716.75" font-family="Helvetica,sans-Serif" font-size="11.00">assign</text>
</g>
<!-- b&#45;trainop -->
<g id="node4" class="node">
<title>b&#45;trainop</title>
<path fill="#fdf3c4" stroke="#c9a227" d="M1858.6,-654C1858.6,-654 1717,-654 1717,-654 1711,-654 1705,-648 1705,-642 1705,-642 1705,-597.6 1705,-597.6 1705,-591.6 1711,-585.6 1717,-585.6 1717,-585.6 1858.6,-585.6 1858.6,-585.6 1864.6,-585.6 1870.6,-591.6 1870.6,-597.6 1870.6,-597.6 1870.6,-642 1870.6,-642 1870.6,-648 1864.6,-654 1858.6,-654"/>
<text xml:space="preserve" text-anchor="middle" x="1787.8" y="-620.95" font-family="Helvetica,sans-Serif" font-weight="bold" font-size="13.00">Train</text>
<text xml:space="preserve" text-anchor="middle" x="1787.8" y="-607.45" font-family="Helvetica,sans-Serif" font-weight="bold" font-size="13.00">Operator</text>
</g>
<!-- b&#45;malf -->
<g id="node5" class="node">
<title>b&#45;malf</title>
<path fill="#fdf3c4" stroke="#c9a227" d="M2021.6,-507.6C2021.6,-507.6 1880,-507.6 1880,-507.6 1874,-507.6 1868,-501.6 1868,-495.6 1868,-495.6 1868,-451.2 1868,-451.2 1868,-445.2 1874,-439.2 1880,-439.2 1880,-439.2 2021.6,-439.2 2021.6,-439.2 2027.6,-439.2 2033.6,-445.2 2033.6,-451.2 2033.6,-451.2 2033.6,-495.6 2033.6,-495.6 2033.6,-501.6 2027.6,-507.6 2021.6,-507.6"/>
<text xml:space="preserve" text-anchor="middle" x="1950.8" y="-474.55" font-family="Helvetica,sans-Serif" font-weight="bold" font-size="13.00">Malfunction</text>
<text xml:space="preserve" text-anchor="middle" x="1950.8" y="-461.05" font-family="Helvetica,sans-Serif" font-weight="bold" font-size="13.00">Management</text>
</g>
<!-- b&#45;malf&#45;&gt;b&#45;controller -->
<g id="edge10" class="edge">
<title>b&#45;malf&#45;&gt;b&#45;controller</title>
<path fill="none" stroke="black" d="M1986.52,-507.89C2008.69,-528.68 2037.35,-555.56 2060.91,-577.65"/>
<polygon fill="black" stroke="black" points="2058.22,-579.92 2067.91,-584.21 2063,-574.81 2058.22,-579.92"/>
<text xml:space="preserve" text-anchor="middle" x="2043.29" y="-542.15" font-family="Helvetica,sans-Serif" font-size="11.00">aggr</text>
</g>
<!-- b&#45;malf&#45;&gt;b&#45;trainop -->
<g id="edge11" class="edge">
<title>b&#45;malf&#45;&gt;b&#45;trainop</title>
<path fill="none" stroke="black" d="M1912.99,-507.89C1889.52,-528.68 1859.19,-555.56 1834.26,-577.65"/>
<polygon fill="black" stroke="black" points="1831.98,-574.99 1826.82,-584.24 1836.62,-580.23 1831.98,-574.99"/>
<text xml:space="preserve" text-anchor="middle" x="1885.06" y="-542.15" font-family="Helvetica,sans-Serif" font-size="11.00">aggr</text>
</g>
<!-- b&#45;malf&#45;&gt;b&#45;proc&#45;delay -->
<g id="edge12" class="edge">
<title>b&#45;malf&#45;&gt;b&#45;proc&#45;delay</title>
<path fill="none" stroke="black" d="M1950.8,-508.01C1950.8,-570.88 1950.8,-706.29 1950.8,-776.82"/>
<polygon fill="black" stroke="black" points="1947.3,-776.46 1950.8,-786.46 1954.3,-776.46 1947.3,-776.46"/>
<text xml:space="preserve" text-anchor="middle" x="1966.17" y="-615.35" font-family="Helvetica,sans-Serif" font-size="11.00">assign</text>
</g>
<!-- b&#45;svc&#45;ticket -->
<g id="node6" class="node">
<title>b&#45;svc&#45;ticket</title>
<path fill="#fdf3c4" stroke="#c9a227" d="M719.6,-1498.8C719.6,-1498.8 578,-1498.8 578,-1498.8 572,-1498.8 566,-1492.8 566,-1486.8 566,-1486.8 566,-1442.4 566,-1442.4 566,-1436.4 572,-1430.4 578,-1430.4 578,-1430.4 719.6,-1430.4 719.6,-1430.4 725.6,-1430.4 731.6,-1436.4 731.6,-1442.4 731.6,-1442.4 731.6,-1486.8 731.6,-1486.8 731.6,-1492.8 725.6,-1498.8 719.6,-1498.8"/>
<text xml:space="preserve" text-anchor="middle" x="648.8" y="-1465.75" font-family="Helvetica,sans-Serif" font-weight="bold" font-size="13.00">Ticketing &amp;</text>
<text xml:space="preserve" text-anchor="middle" x="648.8" y="-1452.25" font-family="Helvetica,sans-Serif" font-weight="bold" font-size="13.00">Fare Service</text>
</g>
<!-- b&#45;svc&#45;ticket&#45;&gt;b&#45;passenger -->
<g id="edge1" class="edge">
<title>b&#45;svc&#45;ticket&#45;&gt;b&#45;passenger</title>
<path fill="none" stroke="black" d="M695.2,-1430.04C769.66,-1376.17 915.54,-1270.64 995.37,-1212.9"/>
<polygon fill="black" stroke="black" points="997.02,-1216.03 1003.07,-1207.33 992.91,-1210.35 997.02,-1216.03"/>
<text xml:space="preserve" text-anchor="middle" x="906.45" y="-1313.75" font-family="Helvetica,sans-Serif" font-size="11.00">serv</text>
</g>
<!-- b&#45;svc&#45;track -->
<g id="node7" class="node">
<title>b&#45;svc&#45;track</title>
<path fill="#fdf3c4" stroke="#c9a227" d="M1185.6,-1003.2C1185.6,-1003.2 1044,-1003.2 1044,-1003.2 1038,-1003.2 1032,-997.2 1032,-991.2 1032,-991.2 1032,-946.8 1032,-946.8 1032,-940.8 1038,-934.8 1044,-934.8 1044,-934.8 1185.6,-934.8 1185.6,-934.8 1191.6,-934.8 1197.6,-940.8 1197.6,-946.8 1197.6,-946.8 1197.6,-991.2 1197.6,-991.2 1197.6,-997.2 1191.6,-1003.2 1185.6,-1003.2"/>
<text xml:space="preserve" text-anchor="middle" x="1114.8" y="-970.15" font-family="Helvetica,sans-Serif" font-weight="bold" font-size="13.00">Train Operation &amp;</text>
<text xml:space="preserve" text-anchor="middle" x="1114.8" y="-956.65" font-family="Helvetica,sans-Serif" font-weight="bold" font-size="13.00">Tracking Service</text>
</g>
<!-- b&#45;svc&#45;track&#45;&gt;b&#45;passenger -->
<g id="edge2" class="edge">
<title>b&#45;svc&#45;track&#45;&gt;b&#45;passenger</title>
<path fill="none" stroke="black" d="M1104.09,-1003.61C1093.3,-1037.45 1076.61,-1089.81 1064.79,-1126.91"/>
<polygon fill="black" stroke="black" points="1061.6,-1125.38 1061.9,-1135.97 1068.27,-1127.51 1061.6,-1125.38"/>
<text xml:space="preserve" text-anchor="middle" x="1102.4" y="-1065.95" font-family="Helvetica,sans-Serif" font-size="11.00">serv</text>
</g>
<!-- b&#45;svc&#45;info -->
<g id="node8" class="node">
<title>b&#45;svc&#45;info</title>
<path fill="#fdf3c4" stroke="#c9a227" d="M1763.6,-1003.2C1763.6,-1003.2 1622,-1003.2 1622,-1003.2 1616,-1003.2 1610,-997.2 1610,-991.2 1610,-991.2 1610,-946.8 1610,-946.8 1610,-940.8 1616,-934.8 1622,-934.8 1622,-934.8 1763.6,-934.8 1763.6,-934.8 1769.6,-934.8 1775.6,-940.8 1775.6,-946.8 1775.6,-946.8 1775.6,-991.2 1775.6,-991.2 1775.6,-997.2 1769.6,-1003.2 1763.6,-1003.2"/>
<text xml:space="preserve" text-anchor="middle" x="1692.8" y="-970.15" font-family="Helvetica,sans-Serif" font-weight="bold" font-size="13.00">Passenger</text>
<text xml:space="preserve" text-anchor="middle" x="1692.8" y="-956.65" font-family="Helvetica,sans-Serif" font-weight="bold" font-size="13.00">Information Service</text>
</g>
<!-- b&#45;svc&#45;info&#45;&gt;b&#45;passenger -->
<g id="edge3" class="edge">
<title>b&#45;svc&#45;info&#45;&gt;b&#45;passenger</title>
<path fill="none" stroke="black" d="M1609.53,-996.05C1489.86,-1033.47 1269.9,-1102.27 1144.63,-1141.45"/>
<polygon fill="black" stroke="black" points="1143.87,-1138.02 1135.37,-1144.35 1145.96,-1144.7 1143.87,-1138.02"/>
<text xml:space="preserve" text-anchor="middle" x="1476.94" y="-1065.95" font-family="Helvetica,sans-Serif" font-size="11.00">serv</text>
</g>
<!-- b&#45;proc&#45;journey&#45;&gt;b&#45;svc&#45;ticket -->
<g id="edge4" class="edge">
<title>b&#45;proc&#45;journey&#45;&gt;b&#45;svc&#45;ticket</title>
<path fill="none" stroke="black" d="M534.36,-1352.69C555.72,-1373.39 583.3,-1400.12 606.04,-1422.16"/>
<polygon fill="black" stroke="black" points="603.47,-1424.54 613.08,-1428.99 608.34,-1419.51 603.47,-1424.54"/>
<text xml:space="preserve" text-anchor="middle" x="587.77" y="-1386.95" font-family="Helvetica,sans-Serif" font-size="11.00">real</text>
</g>
<!-- b&#45;proc&#45;local -->
<g id="node10" class="node">
<title>b&#45;proc&#45;local</title>
<path fill="#fdf3c4" stroke="#c9a227" d="M1292.6,-856.8C1292.6,-856.8 1151,-856.8 1151,-856.8 1145,-856.8 1139,-850.8 1139,-844.8 1139,-844.8 1139,-800.4 1139,-800.4 1139,-794.4 1145,-788.4 1151,-788.4 1151,-788.4 1292.6,-788.4 1292.6,-788.4 1298.6,-788.4 1304.6,-794.4 1304.6,-800.4 1304.6,-800.4 1304.6,-844.8 1304.6,-844.8 1304.6,-850.8 1298.6,-856.8 1292.6,-856.8"/>
<text xml:space="preserve" text-anchor="middle" x="1221.8" y="-823.75" font-family="Helvetica,sans-Serif" font-weight="bold" font-size="13.00">Localize &amp;</text>
<text xml:space="preserve" text-anchor="middle" x="1221.8" y="-810.25" font-family="Helvetica,sans-Serif" font-weight="bold" font-size="13.00">Monitor Trains</text>
</g>
<!-- b&#45;proc&#45;local&#45;&gt;b&#45;svc&#45;track -->
<g id="edge5" class="edge">
<title>b&#45;proc&#45;local&#45;&gt;b&#45;svc&#45;track</title>
<path fill="none" stroke="black" d="M1196.98,-857.09C1181.91,-877.43 1162.53,-903.59 1146.37,-925.39"/>
<polygon fill="black" stroke="black" points="1143.71,-923.11 1140.57,-933.22 1149.33,-927.27 1143.71,-923.11"/>
<text xml:space="preserve" text-anchor="middle" x="1180.51" y="-891.35" font-family="Helvetica,sans-Serif" font-size="11.00">real</text>
</g>
<!-- b&#45;proc&#45;delay&#45;&gt;b&#45;svc&#45;info -->
<g id="edge6" class="edge">
<title>b&#45;proc&#45;delay&#45;&gt;b&#45;svc&#45;info</title>
<path fill="none" stroke="black" d="M1890.64,-857.27C1852.34,-878.71 1802.59,-906.55 1762.57,-928.95"/>
<polygon fill="black" stroke="black" points="1760.95,-925.85 1753.93,-933.78 1764.37,-931.95 1760.95,-925.85"/>
<text xml:space="preserve" text-anchor="middle" x="1838.54" y="-891.35" font-family="Helvetica,sans-Serif" font-size="11.00">real</text>
</g>
<!-- b&#45;ev&#45;tapoff -->
<g id="node12" class="node">
<title>b&#45;ev&#45;tapoff</title>
<path fill="#fdf3c4" stroke="#c9a227" d="M214.6,-1206C214.6,-1206 73,-1206 73,-1206 67,-1206 61,-1200 61,-1194 61,-1194 61,-1149.6 61,-1149.6 61,-1143.6 67,-1137.6 73,-1137.6 73,-1137.6 214.6,-1137.6 214.6,-1137.6 220.6,-1137.6 226.6,-1143.6 226.6,-1149.6 226.6,-1149.6 226.6,-1194 226.6,-1194 226.6,-1200 220.6,-1206 214.6,-1206"/>
<text xml:space="preserve" text-anchor="middle" x="143.8" y="-1172.95" font-family="Helvetica,sans-Serif" font-weight="bold" font-size="13.00">Tap&#45;off Event</text>
<text xml:space="preserve" text-anchor="middle" x="143.8" y="-1159.45" font-family="Helvetica,sans-Serif" font-weight="bold" font-size="13.00">Created</text>
</g>
<!-- b&#45;ev&#45;tapoff&#45;&gt;b&#45;proc&#45;journey -->
<g id="edge13" class="edge">
<title>b&#45;ev&#45;tapoff&#45;&gt;b&#45;proc&#45;journey</title>
<path fill="none" stroke="black" d="M178.49,-1206.49C196.19,-1222.03 218.81,-1239.54 241.8,-1251 293.07,-1276.55 355.14,-1292.88 405.54,-1302.92"/>
<polygon fill="black" stroke="black" points="404.8,-1306.34 415.28,-1304.8 406.13,-1299.47 404.8,-1306.34"/>
<text xml:space="preserve" text-anchor="middle" x="249.3" y="-1240.55" font-family="Helvetica,sans-Serif" font-size="11.00">trig</text>
</g>
<!-- b&#45;ev&#45;threshold -->
<g id="node13" class="node">
<title>b&#45;ev&#45;threshold</title>
<path fill="#fdf3c4" stroke="#c9a227" d="M2381.6,-654C2381.6,-654 2240,-654 2240,-654 2234,-654 2228,-648 2228,-642 2228,-642 2228,-597.6 2228,-597.6 2228,-591.6 2234,-585.6 2240,-585.6 2240,-585.6 2381.6,-585.6 2381.6,-585.6 2387.6,-585.6 2393.6,-591.6 2393.6,-597.6 2393.6,-597.6 2393.6,-642 2393.6,-642 2393.6,-648 2387.6,-654 2381.6,-654"/>
<text xml:space="preserve" text-anchor="middle" x="2310.8" y="-620.95" font-family="Helvetica,sans-Serif" font-weight="bold" font-size="13.00">Delay exceeds</text>
<text xml:space="preserve" text-anchor="middle" x="2310.8" y="-607.45" font-family="Helvetica,sans-Serif" font-weight="bold" font-size="13.00">threshold</text>
</g>
<!-- b&#45;ev&#45;threshold&#45;&gt;b&#45;proc&#45;delay -->
<g id="edge14" class="edge">
<title>b&#45;ev&#45;threshold&#45;&gt;b&#45;proc&#45;delay</title>
<path fill="none" stroke="black" d="M2259.99,-654.28C2216.2,-682.58 2150.9,-723.49 2091.8,-755.4 2074.31,-764.84 2055.25,-774.32 2036.95,-783.03"/>
<polygon fill="black" stroke="black" points="2035.5,-779.84 2027.95,-787.28 2038.49,-786.17 2035.5,-779.84"/>
<text xml:space="preserve" text-anchor="middle" x="2214.19" y="-716.75" font-family="Helvetica,sans-Serif" font-size="11.00">trig</text>
</g>
<!-- a&#45;website -->
<g id="node14" class="node">
<title>a&#45;website</title>
<path fill="#d7ecf7" stroke="#4e97be" d="M1034.6,-856.8C1034.6,-856.8 893,-856.8 893,-856.8 887,-856.8 881,-850.8 881,-844.8 881,-844.8 881,-800.4 881,-800.4 881,-794.4 887,-788.4 893,-788.4 893,-788.4 1034.6,-788.4 1034.6,-788.4 1040.6,-788.4 1046.6,-794.4 1046.6,-800.4 1046.6,-800.4 1046.6,-844.8 1046.6,-844.8 1046.6,-850.8 1040.6,-856.8 1034.6,-856.8"/>
<text xml:space="preserve" text-anchor="middle" x="963.8" y="-823.75" font-family="Helvetica,sans-Serif" font-weight="bold" font-size="13.00">ArchiTrain</text>
<text xml:space="preserve" text-anchor="middle" x="963.8" y="-810.25" font-family="Helvetica,sans-Serif" font-weight="bold" font-size="13.00">Website</text>
</g>
<!-- a&#45;jams -->
<g id="node15" class="node">
<title>a&#45;jams</title>
<path fill="#d7ecf7" stroke="#4e97be" d="M622.6,-654C622.6,-654 481,-654 481,-654 475,-654 469,-648 469,-642 469,-642 469,-597.6 469,-597.6 469,-591.6 475,-585.6 481,-585.6 481,-585.6 622.6,-585.6 622.6,-585.6 628.6,-585.6 634.6,-591.6 634.6,-597.6 634.6,-597.6 634.6,-642 634.6,-642 634.6,-648 628.6,-654 622.6,-654"/>
<text xml:space="preserve" text-anchor="middle" x="551.8" y="-620.95" font-family="Helvetica,sans-Serif" font-weight="bold" font-size="13.00">Journey &amp; Account</text>
<text xml:space="preserve" text-anchor="middle" x="551.8" y="-607.45" font-family="Helvetica,sans-Serif" font-weight="bold" font-size="13.00">Mgmt System</text>
</g>
<!-- a&#45;jams&#45;&gt;a&#45;website -->
<g id="edge31" class="edge">
<title>a&#45;jams&#45;&gt;a&#45;website</title>
<path fill="none" stroke="black" d="M620.76,-654.41C693.65,-689.94 808.45,-745.88 884.9,-783.15"/>
<polygon fill="black" stroke="black" points="883.08,-786.15 893.6,-787.39 886.14,-779.86 883.08,-786.15"/>
<text xml:space="preserve" text-anchor="middle" x="828.9" y="-716.75" font-family="Helvetica,sans-Serif" font-size="11.00">serv</text>
</g>
<!-- a&#45;fms -->
<g id="node16" class="node">
<title>a&#45;fms</title>
<path fill="#d7ecf7" stroke="#4e97be" d="M502.6,-856.8C502.6,-856.8 361,-856.8 361,-856.8 355,-856.8 349,-850.8 349,-844.8 349,-844.8 349,-800.4 349,-800.4 349,-794.4 355,-788.4 361,-788.4 361,-788.4 502.6,-788.4 502.6,-788.4 508.6,-788.4 514.6,-794.4 514.6,-800.4 514.6,-800.4 514.6,-844.8 514.6,-844.8 514.6,-850.8 508.6,-856.8 502.6,-856.8"/>
<text xml:space="preserve" text-anchor="middle" x="431.8" y="-823.75" font-family="Helvetica,sans-Serif" font-weight="bold" font-size="13.00">Fare Management</text>
<text xml:space="preserve" text-anchor="middle" x="431.8" y="-810.25" font-family="Helvetica,sans-Serif" font-weight="bold" font-size="13.00">System</text>
</g>
<!-- a&#45;jams&#45;&gt;a&#45;fms -->
<g id="edge30" class="edge">
<title>a&#45;jams&#45;&gt;a&#45;fms</title>
<path fill="none" stroke="black" d="M531.71,-654.41C511.32,-688.54 479.66,-741.51 457.46,-778.66"/>
<polygon fill="black" stroke="black" points="454.65,-776.54 452.53,-786.92 460.66,-780.13 454.65,-776.54"/>
<text xml:space="preserve" text-anchor="middle" x="519.68" y="-716.75" font-family="Helvetica,sans-Serif" font-size="11.00">serv</text>
</g>
<!-- a&#45;svc&#45;fare -->
<g id="node23" class="node">
<title>a&#45;svc&#45;fare</title>
<path fill="#d7ecf7" stroke="#4e97be" d="M502.6,-1104.6C502.6,-1104.6 361,-1104.6 361,-1104.6 355,-1104.6 349,-1098.6 349,-1092.6 349,-1092.6 349,-1048.2 349,-1048.2 349,-1042.2 355,-1036.2 361,-1036.2 361,-1036.2 502.6,-1036.2 502.6,-1036.2 508.6,-1036.2 514.6,-1042.2 514.6,-1048.2 514.6,-1048.2 514.6,-1092.6 514.6,-1092.6 514.6,-1098.6 508.6,-1104.6 502.6,-1104.6"/>
<text xml:space="preserve" text-anchor="middle" x="431.8" y="-1071.55" font-family="Helvetica,sans-Serif" font-weight="bold" font-size="13.00">Fare Calculation</text>
<text xml:space="preserve" text-anchor="middle" x="431.8" y="-1058.05" font-family="Helvetica,sans-Serif" font-weight="bold" font-size="13.00">Service</text>
</g>
<!-- a&#45;fms&#45;&gt;a&#45;svc&#45;fare -->
<g id="edge15" class="edge">
<title>a&#45;fms&#45;&gt;a&#45;svc&#45;fare</title>
<path fill="none" stroke="black" d="M431.8,-857.26C431.8,-900.63 431.8,-976.15 431.8,-1024.4"/>
<polygon fill="black" stroke="black" points="428.3,-1024.24 431.8,-1034.24 435.3,-1024.24 428.3,-1024.24"/>
<text xml:space="preserve" text-anchor="middle" x="440.8" y="-891.35" font-family="Helvetica,sans-Serif" font-size="11.00">real</text>
</g>
<!-- a&#45;acm -->
<g id="node17" class="node">
<title>a&#45;acm</title>
<path fill="#d7ecf7" stroke="#4e97be" d="M210.6,-507.6C210.6,-507.6 69,-507.6 69,-507.6 63,-507.6 57,-501.6 57,-495.6 57,-495.6 57,-451.2 57,-451.2 57,-445.2 63,-439.2 69,-439.2 69,-439.2 210.6,-439.2 210.6,-439.2 216.6,-439.2 222.6,-445.2 222.6,-451.2 222.6,-451.2 222.6,-495.6 222.6,-495.6 222.6,-501.6 216.6,-507.6 210.6,-507.6"/>
<text xml:space="preserve" text-anchor="middle" x="139.8" y="-474.55" font-family="Helvetica,sans-Serif" font-weight="bold" font-size="13.00">Access Control</text>
<text xml:space="preserve" text-anchor="middle" x="139.8" y="-461.05" font-family="Helvetica,sans-Serif" font-weight="bold" font-size="13.00">Management</text>
</g>
<!-- a&#45;svc&#45;gate -->
<g id="node26" class="node">
<title>a&#45;svc&#45;gate</title>
<path fill="#d7ecf7" stroke="#4e97be" d="M153.6,-755.4C153.6,-755.4 12,-755.4 12,-755.4 6,-755.4 0,-749.4 0,-743.4 0,-743.4 0,-699 0,-699 0,-693 6,-687 12,-687 12,-687 153.6,-687 153.6,-687 159.6,-687 165.6,-693 165.6,-699 165.6,-699 165.6,-743.4 165.6,-743.4 165.6,-749.4 159.6,-755.4 153.6,-755.4"/>
<text xml:space="preserve" text-anchor="middle" x="82.8" y="-722.35" font-family="Helvetica,sans-Serif" font-weight="bold" font-size="13.00">Gate Control</text>
<text xml:space="preserve" text-anchor="middle" x="82.8" y="-708.85" font-family="Helvetica,sans-Serif" font-weight="bold" font-size="13.00">Service</text>
</g>
<!-- a&#45;acm&#45;&gt;a&#45;svc&#45;gate -->
<g id="edge17" class="edge">
<title>a&#45;acm&#45;&gt;a&#45;svc&#45;gate</title>
<path fill="none" stroke="black" d="M131.99,-508.06C121.92,-551.52 104.35,-627.27 93.16,-675.51"/>
<polygon fill="black" stroke="black" points="89.79,-674.54 90.94,-685.08 96.61,-676.13 89.79,-674.54"/>
<text xml:space="preserve" text-anchor="middle" x="133.29" y="-542.15" font-family="Helvetica,sans-Serif" font-size="11.00">real</text>
</g>
<!-- a&#45;occ -->
<g id="node18" class="node">
<title>a&#45;occ</title>
<path fill="#d7ecf7" stroke="#4e97be" d="M1205.6,-507.6C1205.6,-507.6 1064,-507.6 1064,-507.6 1058,-507.6 1052,-501.6 1052,-495.6 1052,-495.6 1052,-451.2 1052,-451.2 1052,-445.2 1058,-439.2 1064,-439.2 1064,-439.2 1205.6,-439.2 1205.6,-439.2 1211.6,-439.2 1217.6,-445.2 1217.6,-451.2 1217.6,-451.2 1217.6,-495.6 1217.6,-495.6 1217.6,-501.6 1211.6,-507.6 1205.6,-507.6"/>
<text xml:space="preserve" text-anchor="middle" x="1134.8" y="-474.55" font-family="Helvetica,sans-Serif" font-weight="bold" font-size="13.00">Operational</text>
<text xml:space="preserve" text-anchor="middle" x="1134.8" y="-461.05" font-family="Helvetica,sans-Serif" font-weight="bold" font-size="13.00">Control Center</text>
</g>
<!-- a&#45;pis -->
<g id="node19" class="node">
<title>a&#45;pis</title>
<path fill="#d7ecf7" stroke="#4e97be" d="M1034.6,-654C1034.6,-654 893,-654 893,-654 887,-654 881,-648 881,-642 881,-642 881,-597.6 881,-597.6 881,-591.6 887,-585.6 893,-585.6 893,-585.6 1034.6,-585.6 1034.6,-585.6 1040.6,-585.6 1046.6,-591.6 1046.6,-597.6 1046.6,-597.6 1046.6,-642 1046.6,-642 1046.6,-648 1040.6,-654 1034.6,-654"/>
<text xml:space="preserve" text-anchor="middle" x="963.8" y="-620.95" font-family="Helvetica,sans-Serif" font-weight="bold" font-size="13.00">Passenger</text>
<text xml:space="preserve" text-anchor="middle" x="963.8" y="-607.45" font-family="Helvetica,sans-Serif" font-weight="bold" font-size="13.00">Information System</text>
</g>
<!-- a&#45;occ&#45;&gt;a&#45;pis -->
<g id="edge27" class="edge">
<title>a&#45;occ&#45;&gt;a&#45;pis</title>
<path fill="none" stroke="black" d="M1095.14,-507.89C1070.41,-528.78 1038.41,-555.79 1012.19,-577.93"/>
<polygon fill="black" stroke="black" points="1010.08,-575.14 1004.7,-584.26 1014.6,-580.49 1010.08,-575.14"/>
<text xml:space="preserve" text-anchor="middle" x="1064.18" y="-542.15" font-family="Helvetica,sans-Serif" font-size="11.00">flow</text>
</g>
<!-- a&#45;tms -->
<g id="node20" class="node">
<title>a&#45;tms</title>
<path fill="#d7ecf7" stroke="#4e97be" d="M828.6,-654C828.6,-654 687,-654 687,-654 681,-654 675,-648 675,-642 675,-642 675,-597.6 675,-597.6 675,-591.6 681,-585.6 687,-585.6 687,-585.6 828.6,-585.6 828.6,-585.6 834.6,-585.6 840.6,-591.6 840.6,-597.6 840.6,-597.6 840.6,-642 840.6,-642 840.6,-648 834.6,-654 828.6,-654"/>
<text xml:space="preserve" text-anchor="middle" x="757.8" y="-620.95" font-family="Helvetica,sans-Serif" font-weight="bold" font-size="13.00">Train Management</text>
<text xml:space="preserve" text-anchor="middle" x="757.8" y="-607.45" font-family="Helvetica,sans-Serif" font-weight="bold" font-size="13.00">System</text>
</g>
<!-- a&#45;occ&#45;&gt;a&#45;tms -->
<g id="edge28" class="edge">
<title>a&#45;occ&#45;&gt;a&#45;tms</title>
<path fill="none" stroke="black" d="M1051.6,-506.27C992.36,-528.96 912.69,-559.47 851.26,-583"/>
<polygon fill="black" stroke="black" points="850.29,-579.63 842.2,-586.47 852.79,-586.16 850.29,-579.63"/>
<text xml:space="preserve" text-anchor="middle" x="967.35" y="-542.15" font-family="Helvetica,sans-Serif" font-size="11.00">flow</text>
</g>
<!-- a&#45;svc&#45;track -->
<g id="node24" class="node">
<title>a&#45;svc&#45;track</title>
<path fill="#d7ecf7" stroke="#4e97be" d="M1446.6,-654C1446.6,-654 1305,-654 1305,-654 1299,-654 1293,-648 1293,-642 1293,-642 1293,-597.6 1293,-597.6 1293,-591.6 1299,-585.6 1305,-585.6 1305,-585.6 1446.6,-585.6 1446.6,-585.6 1452.6,-585.6 1458.6,-591.6 1458.6,-597.6 1458.6,-597.6 1458.6,-642 1458.6,-642 1458.6,-648 1452.6,-654 1446.6,-654"/>
<text xml:space="preserve" text-anchor="middle" x="1375.8" y="-620.95" font-family="Helvetica,sans-Serif" font-weight="bold" font-size="13.00">Train Tracking</text>
<text xml:space="preserve" text-anchor="middle" x="1375.8" y="-607.45" font-family="Helvetica,sans-Serif" font-weight="bold" font-size="13.00">Service</text>
</g>
<!-- a&#45;occ&#45;&gt;a&#45;svc&#45;track -->
<g id="edge19" class="edge">
<title>a&#45;occ&#45;&gt;a&#45;svc&#45;track</title>
<path fill="none" stroke="black" d="M1191,-508.07C1226.62,-529.42 1272.85,-557.11 1310.15,-579.47"/>
<polygon fill="black" stroke="black" points="1308.25,-582.41 1318.63,-584.55 1311.85,-576.4 1308.25,-582.41"/>
<text xml:space="preserve" text-anchor="middle" x="1271.53" y="-542.15" font-family="Helvetica,sans-Serif" font-size="11.00">real</text>
</g>
<!-- a&#45;svc&#45;delay -->
<g id="node25" class="node">
<title>a&#45;svc&#45;delay</title>
<path fill="#d7ecf7" stroke="#4e97be" d="M1652.6,-654C1652.6,-654 1511,-654 1511,-654 1505,-654 1499,-648 1499,-642 1499,-642 1499,-597.6 1499,-597.6 1499,-591.6 1505,-585.6 1511,-585.6 1511,-585.6 1652.6,-585.6 1652.6,-585.6 1658.6,-585.6 1664.6,-591.6 1664.6,-597.6 1664.6,-597.6 1664.6,-642 1664.6,-642 1664.6,-648 1658.6,-654 1652.6,-654"/>
<text xml:space="preserve" text-anchor="middle" x="1581.8" y="-620.95" font-family="Helvetica,sans-Serif" font-weight="bold" font-size="13.00">Delay Notification</text>
<text xml:space="preserve" text-anchor="middle" x="1581.8" y="-607.45" font-family="Helvetica,sans-Serif" font-weight="bold" font-size="13.00">Service</text>
</g>
<!-- a&#45;occ&#45;&gt;a&#45;svc&#45;delay -->
<g id="edge21" class="edge">
<title>a&#45;occ&#45;&gt;a&#45;svc&#45;delay</title>
<path fill="none" stroke="black" d="M1218.09,-501.31C1294.72,-526.06 1408.24,-562.73 1488.02,-588.51"/>
<polygon fill="black" stroke="black" points="1486.53,-591.7 1497.12,-591.44 1488.68,-585.04 1486.53,-591.7"/>
<text xml:space="preserve" text-anchor="middle" x="1380.7" y="-542.15" font-family="Helvetica,sans-Serif" font-size="11.00">real</text>
</g>
<!-- a&#45;pis&#45;&gt;a&#45;website -->
<g id="edge29" class="edge">
<title>a&#45;pis&#45;&gt;a&#45;website</title>
<path fill="none" stroke="black" d="M963.8,-654.41C963.8,-687.96 963.8,-739.71 963.8,-776.75"/>
<polygon fill="black" stroke="black" points="960.3,-776.7 963.8,-786.7 967.3,-776.7 960.3,-776.7"/>
<text xml:space="preserve" text-anchor="middle" x="973.55" y="-716.75" font-family="Helvetica,sans-Serif" font-size="11.00">flow</text>
</g>
<!-- a&#45;dhs -->
<g id="node21" class="node">
<title>a&#45;dhs</title>
<path fill="#d7ecf7" stroke="#4e97be" d="M832.6,-361.2C832.6,-361.2 691,-361.2 691,-361.2 685,-361.2 679,-355.2 679,-349.2 679,-349.2 679,-304.8 679,-304.8 679,-298.8 685,-292.8 691,-292.8 691,-292.8 832.6,-292.8 832.6,-292.8 838.6,-292.8 844.6,-298.8 844.6,-304.8 844.6,-304.8 844.6,-349.2 844.6,-349.2 844.6,-355.2 838.6,-361.2 832.6,-361.2"/>
<text xml:space="preserve" text-anchor="middle" x="761.8" y="-328.15" font-family="Helvetica,sans-Serif" font-weight="bold" font-size="13.00">Disruption</text>
<text xml:space="preserve" text-anchor="middle" x="761.8" y="-314.65" font-family="Helvetica,sans-Serif" font-weight="bold" font-size="13.00">Handling System</text>
</g>
<!-- a&#45;dhs&#45;&gt;a&#45;occ -->
<g id="edge23" class="edge">
<title>a&#45;dhs&#45;&gt;a&#45;occ</title>
<path fill="none" stroke="black" d="M845.04,-360.23C903.18,-382.73 980.85,-412.8 1041.15,-436.14"/>
<polygon fill="black" stroke="black" points="1039.81,-439.38 1050.4,-439.73 1042.34,-432.85 1039.81,-439.38"/>
<text xml:space="preserve" text-anchor="middle" x="970.36" y="-395.75" font-family="Helvetica,sans-Serif" font-size="11.00">aggr</text>
</g>
<!-- a&#45;dhs&#45;&gt;a&#45;pis -->
<g id="edge24" class="edge">
<title>a&#45;dhs&#45;&gt;a&#45;pis</title>
<path fill="none" stroke="black" d="M785.17,-361.64C822.06,-414.75 893.75,-517.95 934.19,-576.17"/>
<polygon fill="black" stroke="black" points="931.2,-578 939.78,-584.22 936.95,-574.01 931.2,-578"/>
<text xml:space="preserve" text-anchor="middle" x="897.05" y="-468.95" font-family="Helvetica,sans-Serif" font-size="11.00">aggr</text>
</g>
<!-- a&#45;dhs&#45;&gt;a&#45;tms -->
<g id="edge25" class="edge">
<title>a&#45;dhs&#45;&gt;a&#45;tms</title>
<path fill="none" stroke="black" d="M730.92,-361.69C714.09,-382.39 694.93,-410.4 686.05,-439.2 677.1,-468.25 677.46,-478.44 686.05,-507.6 693.3,-532.22 707.89,-556.53 722.03,-576.11"/>
<polygon fill="black" stroke="black" points="719.21,-578.19 728,-584.11 724.82,-574 719.21,-578.19"/>
<text xml:space="preserve" text-anchor="middle" x="696.92" y="-468.95" font-family="Helvetica,sans-Serif" font-size="11.00">aggr</text>
</g>
<!-- a&#45;lccu&#45;sw -->
<g id="node22" class="node">
<title>a&#45;lccu&#45;sw</title>
<path fill="#d7ecf7" stroke="#4e97be" d="M1244.6,-361.2C1244.6,-361.2 1103,-361.2 1103,-361.2 1097,-361.2 1091,-355.2 1091,-349.2 1091,-349.2 1091,-304.8 1091,-304.8 1091,-298.8 1097,-292.8 1103,-292.8 1103,-292.8 1244.6,-292.8 1244.6,-292.8 1250.6,-292.8 1256.6,-298.8 1256.6,-304.8 1256.6,-304.8 1256.6,-349.2 1256.6,-349.2 1256.6,-355.2 1250.6,-361.2 1244.6,-361.2"/>
<text xml:space="preserve" text-anchor="middle" x="1173.8" y="-328.15" font-family="Helvetica,sans-Serif" font-weight="bold" font-size="13.00">LCCU Control</text>
<text xml:space="preserve" text-anchor="middle" x="1173.8" y="-314.65" font-family="Helvetica,sans-Serif" font-weight="bold" font-size="13.00">Software</text>
</g>
<!-- a&#45;lccu&#45;sw&#45;&gt;a&#45;occ -->
<g id="edge26" class="edge">
<title>a&#45;lccu&#45;sw&#45;&gt;a&#45;occ</title>
<path fill="none" stroke="black" d="M1164.75,-361.49C1159.43,-381.19 1152.64,-406.36 1146.86,-427.74"/>
<polygon fill="black" stroke="black" points="1143.49,-426.81 1144.26,-437.38 1150.24,-428.64 1143.49,-426.81"/>
<text xml:space="preserve" text-anchor="middle" x="1165.22" y="-395.75" font-family="Helvetica,sans-Serif" font-size="11.00">flow</text>
</g>
<!-- a&#45;svc&#45;fare&#45;&gt;b&#45;proc&#45;journey -->
<g id="edge16" class="edge">
<title>a&#45;svc&#45;fare&#45;&gt;b&#45;proc&#45;journey</title>
<path fill="none" stroke="black" d="M434.24,-1104.83C436.83,-1132.38 441.94,-1172.27 451.55,-1206 458.1,-1228.99 468.34,-1253.47 477.7,-1273.59"/>
<polygon fill="black" stroke="black" points="474.53,-1275.09 481.98,-1282.62 480.86,-1272.08 474.53,-1275.09"/>
<text xml:space="preserve" text-anchor="middle" x="461.68" y="-1167.35" font-family="Helvetica,sans-Serif" font-size="11.00">serv</text>
</g>
<!-- a&#45;svc&#45;track&#45;&gt;b&#45;proc&#45;local -->
<g id="edge20" class="edge">
<title>a&#45;svc&#45;track&#45;&gt;b&#45;proc&#45;local</title>
<path fill="none" stroke="black" d="M1350.02,-654.41C1323.74,-688.68 1282.88,-741.96 1254.37,-779.13"/>
<polygon fill="black" stroke="black" points="1251.63,-776.95 1248.32,-787.01 1257.19,-781.21 1251.63,-776.95"/>
<text xml:space="preserve" text-anchor="middle" x="1331.72" y="-716.75" font-family="Helvetica,sans-Serif" font-size="11.00">serv</text>
</g>
<!-- a&#45;svc&#45;delay&#45;&gt;b&#45;proc&#45;delay -->
<g id="edge22" class="edge">
<title>a&#45;svc&#45;delay&#45;&gt;b&#45;proc&#45;delay</title>
<path fill="none" stroke="black" d="M1643.56,-654.41C1708.58,-689.79 1810.82,-745.43 1879.29,-782.69"/>
<polygon fill="black" stroke="black" points="1877.36,-785.62 1887.81,-787.33 1880.7,-779.47 1877.36,-785.62"/>
<text xml:space="preserve" text-anchor="middle" x="1831.04" y="-716.75" font-family="Helvetica,sans-Serif" font-size="11.00">serv</text>
</g>
<!-- a&#45;svc&#45;gate&#45;&gt;b&#45;proc&#45;journey -->
<g id="edge18" class="edge">
<title>a&#45;svc&#45;gate&#45;&gt;b&#45;proc&#45;journey</title>
<path fill="none" stroke="black" d="M165.89,-753.79C222.71,-781.41 287.8,-827.69 287.8,-894.8 287.8,-894.8 287.8,-894.8 287.8,-1172.8 287.8,-1234.22 349.33,-1271.37 406.09,-1292.58"/>
<polygon fill="black" stroke="black" points="404.6,-1295.76 415.2,-1295.84 406.96,-1289.17 404.6,-1295.76"/>
<text xml:space="preserve" text-anchor="middle" x="297.93" y="-964.55" font-family="Helvetica,sans-Serif" font-size="11.00">serv</text>
</g>
<!-- a&#45;svc&#45;bank -->
<g id="node27" class="node">
<title>a&#45;svc&#45;bank</title>
<path fill="#d7ecf7" stroke="#4e97be" d="M416.6,-654C416.6,-654 275,-654 275,-654 269,-654 263,-648 263,-642 263,-642 263,-597.6 263,-597.6 263,-591.6 269,-585.6 275,-585.6 275,-585.6 416.6,-585.6 416.6,-585.6 422.6,-585.6 428.6,-591.6 428.6,-597.6 428.6,-597.6 428.6,-642 428.6,-642 428.6,-648 422.6,-654 416.6,-654"/>
<text xml:space="preserve" text-anchor="middle" x="345.8" y="-620.95" font-family="Helvetica,sans-Serif" font-weight="bold" font-size="13.00">Bank Payment</text>
<text xml:space="preserve" text-anchor="middle" x="345.8" y="-607.45" font-family="Helvetica,sans-Serif" font-weight="bold" font-size="13.00">Service (ext)</text>
</g>
<!-- a&#45;svc&#45;bank&#45;&gt;a&#45;fms -->
<g id="edge32" class="edge">
<title>a&#45;svc&#45;bank&#45;&gt;a&#45;fms</title>
<path fill="none" stroke="black" d="M360.19,-654.41C374.69,-688.25 397.11,-740.61 413,-777.71"/>
<polygon fill="black" stroke="black" points="409.75,-779.01 416.91,-786.82 416.19,-776.25 409.75,-779.01"/>
<text xml:space="preserve" text-anchor="middle" x="411.65" y="-716.75" font-family="Helvetica,sans-Serif" font-size="11.00">serv</text>
</g>
<!-- t&#45;station -->
<g id="node28" class="node">
<title>t&#45;station</title>
<path fill="#c9e7b8" stroke="#7fa968" d="M291.6,-361.2C291.6,-361.2 150,-361.2 150,-361.2 144,-361.2 138,-355.2 138,-349.2 138,-349.2 138,-304.8 138,-304.8 138,-298.8 144,-292.8 150,-292.8 150,-292.8 291.6,-292.8 291.6,-292.8 297.6,-292.8 303.6,-298.8 303.6,-304.8 303.6,-304.8 303.6,-349.2 303.6,-349.2 303.6,-355.2 297.6,-361.2 291.6,-361.2"/>
<text xml:space="preserve" text-anchor="middle" x="220.8" y="-328.15" font-family="Helvetica,sans-Serif" font-weight="bold" font-size="13.00">Station</text>
<text xml:space="preserve" text-anchor="middle" x="220.8" y="-314.65" font-family="Helvetica,sans-Serif" font-weight="bold" font-size="13.00">Infrastructure</text>
</g>
<!-- t&#45;station&#45;&gt;a&#45;acm -->
<g id="edge33" class="edge">
<title>t&#45;station&#45;&gt;a&#45;acm</title>
<path fill="none" stroke="black" d="M202.01,-361.49C190.76,-381.56 176.32,-407.29 164.19,-428.91"/>
<polygon fill="black" stroke="black" points="161.21,-427.09 159.37,-437.52 167.31,-430.51 161.21,-427.09"/>
<text xml:space="preserve" text-anchor="middle" x="198.1" y="-395.75" font-family="Helvetica,sans-Serif" font-size="11.00">assign</text>
</g>
<!-- t&#45;jams&#45;node -->
<g id="node29" class="node">
<title>t&#45;jams&#45;node</title>
<path fill="#c9e7b8" stroke="#7fa968" d="M465.6,-507.6C465.6,-507.6 324,-507.6 324,-507.6 318,-507.6 312,-501.6 312,-495.6 312,-495.6 312,-451.2 312,-451.2 312,-445.2 318,-439.2 324,-439.2 324,-439.2 465.6,-439.2 465.6,-439.2 471.6,-439.2 477.6,-445.2 477.6,-451.2 477.6,-451.2 477.6,-495.6 477.6,-495.6 477.6,-501.6 471.6,-507.6 465.6,-507.6"/>
<text xml:space="preserve" text-anchor="middle" x="394.8" y="-474.55" font-family="Helvetica,sans-Serif" font-weight="bold" font-size="13.00">Journey &amp; Account</text>
<text xml:space="preserve" text-anchor="middle" x="394.8" y="-461.05" font-family="Helvetica,sans-Serif" font-weight="bold" font-size="13.00">Mgmt Backend</text>
</g>
<!-- t&#45;jams&#45;node&#45;&gt;a&#45;jams -->
<g id="edge39" class="edge">
<title>t&#45;jams&#45;node&#45;&gt;a&#45;jams</title>
<path fill="none" stroke="black" d="M431.21,-507.89C453.82,-528.68 483.04,-555.56 507.05,-577.65"/>
<polygon fill="black" stroke="black" points="504.47,-580.02 514.2,-584.22 509.21,-574.87 504.47,-580.02"/>
<text xml:space="preserve" text-anchor="middle" x="493.38" y="-542.15" font-family="Helvetica,sans-Serif" font-size="11.00">assign</text>
</g>
<!-- t&#45;jams&#45;node&#45;&gt;a&#45;fms -->
<g id="edge40" class="edge">
<title>t&#45;jams&#45;node&#45;&gt;a&#45;fms</title>
<path fill="none" stroke="black" d="M311.93,-502.98C274.37,-520.56 233.61,-547.24 212.05,-585.6 197.15,-612.1 198.56,-626.75 212.05,-654 240.43,-711.35 298.88,-754.43 348.36,-782.54"/>
<polygon fill="black" stroke="black" points="346.37,-785.44 356.81,-787.23 349.76,-779.32 346.37,-785.44"/>
<text xml:space="preserve" text-anchor="middle" x="227.43" y="-615.35" font-family="Helvetica,sans-Serif" font-size="11.00">assign</text>
</g>
<!-- t&#45;appserver -->
<g id="node30" class="node">
<title>t&#45;appserver</title>
<path fill="#c9e7b8" stroke="#7fa968" d="M1240.6,-654C1240.6,-654 1099,-654 1099,-654 1093,-654 1087,-648 1087,-642 1087,-642 1087,-597.6 1087,-597.6 1087,-591.6 1093,-585.6 1099,-585.6 1099,-585.6 1240.6,-585.6 1240.6,-585.6 1246.6,-585.6 1252.6,-591.6 1252.6,-597.6 1252.6,-597.6 1252.6,-642 1252.6,-642 1252.6,-648 1246.6,-654 1240.6,-654"/>
<text xml:space="preserve" text-anchor="middle" x="1169.8" y="-620.95" font-family="Helvetica,sans-Serif" font-weight="bold" font-size="13.00">Application</text>
<text xml:space="preserve" text-anchor="middle" x="1169.8" y="-607.45" font-family="Helvetica,sans-Serif" font-weight="bold" font-size="13.00">Server</text>
</g>
<!-- t&#45;appserver&#45;&gt;a&#45;website -->
<g id="edge38" class="edge">
<title>t&#45;appserver&#45;&gt;a&#45;website</title>
<path fill="none" stroke="black" d="M1135.32,-654.41C1099.71,-689.12 1044.11,-743.32 1005.92,-780.54"/>
<polygon fill="black" stroke="black" points="1003.85,-777.67 999.13,-787.16 1008.74,-782.69 1003.85,-777.67"/>
<text xml:space="preserve" text-anchor="middle" x="1112.66" y="-716.75" font-family="Helvetica,sans-Serif" font-size="11.00">assign</text>
</g>
<!-- t&#45;lccu -->
<g id="node31" class="node">
<title>t&#45;lccu</title>
<path fill="#c9e7b8" stroke="#7fa968" d="M1230.6,-214.8C1230.6,-214.8 1089,-214.8 1089,-214.8 1083,-214.8 1077,-208.8 1077,-202.8 1077,-202.8 1077,-158.4 1077,-158.4 1077,-152.4 1083,-146.4 1089,-146.4 1089,-146.4 1230.6,-146.4 1230.6,-146.4 1236.6,-146.4 1242.6,-152.4 1242.6,-158.4 1242.6,-158.4 1242.6,-202.8 1242.6,-202.8 1242.6,-208.8 1236.6,-214.8 1230.6,-214.8"/>
<text xml:space="preserve" text-anchor="middle" x="1159.8" y="-181.75" font-family="Helvetica,sans-Serif" font-weight="bold" font-size="13.00">LCCU</text>
<text xml:space="preserve" text-anchor="middle" x="1159.8" y="-168.25" font-family="Helvetica,sans-Serif" font-weight="bold" font-size="13.00">(On&#45;board)</text>
</g>
<!-- t&#45;lccu&#45;&gt;a&#45;lccu&#45;sw -->
<g id="edge37" class="edge">
<title>t&#45;lccu&#45;&gt;a&#45;lccu&#45;sw</title>
<path fill="none" stroke="black" d="M1163.05,-215.09C1164.95,-234.7 1167.37,-259.73 1169.44,-281.04"/>
<polygon fill="black" stroke="black" points="1165.95,-281.32 1170.4,-290.93 1172.92,-280.64 1165.95,-281.32"/>
<text xml:space="preserve" text-anchor="middle" x="1182.59" y="-249.35" font-family="Helvetica,sans-Serif" font-size="11.00">assign</text>
</g>
<!-- t&#45;backend -->
<g id="node32" class="node">
<title>t&#45;backend</title>
<path fill="#c9e7b8" stroke="#7fa968" d="M1038.6,-361.2C1038.6,-361.2 897,-361.2 897,-361.2 891,-361.2 885,-355.2 885,-349.2 885,-349.2 885,-304.8 885,-304.8 885,-298.8 891,-292.8 897,-292.8 897,-292.8 1038.6,-292.8 1038.6,-292.8 1044.6,-292.8 1050.6,-298.8 1050.6,-304.8 1050.6,-304.8 1050.6,-349.2 1050.6,-349.2 1050.6,-355.2 1044.6,-361.2 1038.6,-361.2"/>
<text xml:space="preserve" text-anchor="middle" x="967.8" y="-328.15" font-family="Helvetica,sans-Serif" font-weight="bold" font-size="13.00">Central Railway</text>
<text xml:space="preserve" text-anchor="middle" x="967.8" y="-314.65" font-family="Helvetica,sans-Serif" font-weight="bold" font-size="13.00">Backend</text>
</g>
<!-- t&#45;backend&#45;&gt;a&#45;occ -->
<g id="edge34" class="edge">
<title>t&#45;backend&#45;&gt;a&#45;occ</title>
<path fill="none" stroke="black" d="M1006.53,-361.49C1030.69,-382.38 1061.93,-409.39 1087.54,-431.53"/>
<polygon fill="black" stroke="black" points="1084.99,-433.96 1094.84,-437.85 1089.57,-428.66 1084.99,-433.96"/>
<text xml:space="preserve" text-anchor="middle" x="1071.68" y="-395.75" font-family="Helvetica,sans-Serif" font-size="11.00">assign</text>
</g>
<!-- t&#45;backend&#45;&gt;a&#45;pis -->
<g id="edge35" class="edge">
<title>t&#45;backend&#45;&gt;a&#45;pis</title>
<path fill="none" stroke="black" d="M967.34,-361.64C966.62,-414.09 965.22,-515.4 964.42,-573.99"/>
<polygon fill="black" stroke="black" points="960.92,-573.9 964.28,-583.95 967.92,-574 960.92,-573.9"/>
<text xml:space="preserve" text-anchor="middle" x="981.64" y="-468.95" font-family="Helvetica,sans-Serif" font-size="11.00">assign</text>
</g>
<!-- t&#45;backend&#45;&gt;a&#45;tms -->
<g id="edge36" class="edge">
<title>t&#45;backend&#45;&gt;a&#45;tms</title>
<path fill="none" stroke="black" d="M938.37,-361.66C923.75,-376.83 905.1,-394.03 885.8,-406.2 850.91,-428.2 826.14,-408.09 799.05,-439.2 766.63,-476.42 758.31,-534 756.81,-573.89"/>
<polygon fill="black" stroke="black" points="753.32,-573.56 756.58,-583.63 760.31,-573.72 753.32,-573.56"/>
<text xml:space="preserve" text-anchor="middle" x="814.42" y="-468.95" font-family="Helvetica,sans-Serif" font-size="11.00">assign</text>
</g>
<!-- t&#45;net&#45;priv -->
<g id="node33" class="node">
<title>t&#45;net&#45;priv</title>
<path fill="#c9e7b8" stroke="#7fa968" d="M465.6,-214.8C465.6,-214.8 324,-214.8 324,-214.8 318,-214.8 312,-208.8 312,-202.8 312,-202.8 312,-158.4 312,-158.4 312,-152.4 318,-146.4 324,-146.4 324,-146.4 465.6,-146.4 465.6,-146.4 471.6,-146.4 477.6,-152.4 477.6,-158.4 477.6,-158.4 477.6,-202.8 477.6,-202.8 477.6,-208.8 471.6,-214.8 465.6,-214.8"/>
<text xml:space="preserve" text-anchor="middle" x="394.8" y="-175" font-family="Helvetica,sans-Serif" font-weight="bold" font-size="13.00">Private Network</text>
</g>
<!-- t&#45;net&#45;priv&#45;&gt;t&#45;station -->
<g id="edge43" class="edge">
<title>t&#45;net&#45;priv&#45;&gt;t&#45;station</title>
<path fill="none" stroke="black" d="M354.44,-215.09C329.28,-235.98 296.72,-262.99 270.04,-285.13"/>
<polygon fill="black" stroke="black" points="267.86,-282.39 262.4,-291.47 272.33,-287.78 267.86,-282.39"/>
<text xml:space="preserve" text-anchor="middle" x="326.89" y="-249.35" font-family="Helvetica,sans-Serif" font-size="11.00">assoc</text>
</g>
<!-- t&#45;net&#45;priv&#45;&gt;t&#45;jams&#45;node -->
<g id="edge45" class="edge">
<title>t&#45;net&#45;priv&#45;&gt;t&#45;jams&#45;node</title>
<path fill="none" stroke="black" d="M394.8,-215.24C394.8,-267.69 394.8,-369 394.8,-427.59"/>
<polygon fill="black" stroke="black" points="391.3,-427.55 394.8,-437.55 398.3,-427.55 391.3,-427.55"/>
<text xml:space="preserve" text-anchor="middle" x="408.68" y="-322.55" font-family="Helvetica,sans-Serif" font-size="11.00">assoc</text>
</g>
<!-- t&#45;net&#45;priv&#45;&gt;t&#45;backend -->
<g id="edge44" class="edge">
<title>t&#45;net&#45;priv&#45;&gt;t&#45;backend</title>
<path fill="none" stroke="black" d="M478.09,-199.21C572.43,-219.64 730.53,-255.34 864.8,-292.8 867.75,-293.62 870.75,-294.48 873.76,-295.35"/>
<polygon fill="black" stroke="black" points="872.74,-298.7 883.32,-298.18 874.73,-291.99 872.74,-298.7"/>
<text xml:space="preserve" text-anchor="middle" x="750.4" y="-249.35" font-family="Helvetica,sans-Serif" font-size="11.00">assoc</text>
</g>
<!-- t&#45;net&#45;radio -->
<g id="node34" class="node">
<title>t&#45;net&#45;radio</title>
<path fill="#c9e7b8" stroke="#7fa968" d="M1085.6,-68.4C1085.6,-68.4 944,-68.4 944,-68.4 938,-68.4 932,-62.4 932,-56.4 932,-56.4 932,-12 932,-12 932,-6 938,0 944,0 944,0 1085.6,0 1085.6,0 1091.6,0 1097.6,-6 1097.6,-12 1097.6,-12 1097.6,-56.4 1097.6,-56.4 1097.6,-62.4 1091.6,-68.4 1085.6,-68.4"/>
<text xml:space="preserve" text-anchor="middle" x="1014.8" y="-28.6" font-family="Helvetica,sans-Serif" font-weight="bold" font-size="13.00">Railway Radio</text>
</g>
<!-- t&#45;net&#45;radio&#45;&gt;t&#45;lccu -->
<g id="edge41" class="edge">
<title>t&#45;net&#45;radio&#45;&gt;t&#45;lccu</title>
<path fill="none" stroke="black" d="M1048.43,-68.69C1069.22,-89.39 1096.06,-116.12 1118.18,-138.16"/>
<polygon fill="black" stroke="black" points="1115.47,-140.4 1125.03,-144.97 1120.41,-135.44 1115.47,-140.4"/>
<text xml:space="preserve" text-anchor="middle" x="1105.52" y="-102.95" font-family="Helvetica,sans-Serif" font-size="11.00">assoc</text>
</g>
<!-- t&#45;net&#45;radio&#45;&gt;t&#45;backend -->
<g id="edge42" class="edge">
<title>t&#45;net&#45;radio&#45;&gt;t&#45;backend</title>
<path fill="none" stroke="black" d="M1009.36,-68.84C1000.87,-121.4 984.44,-223.03 974.98,-281.56"/>
<polygon fill="black" stroke="black" points="971.57,-280.74 973.43,-291.17 978.48,-281.85 971.57,-280.74"/>
<text xml:space="preserve" text-anchor="middle" x="1010.61" y="-176.15" font-family="Helvetica,sans-Serif" font-size="11.00">assoc</text>
</g>
</g>
</svg>
