<?xml version="1.0" encoding="UTF-8" standalone="no"?>
<!DOCTYPE svg PUBLIC "-//W3C//DTD SVG 1.1//EN"
 "http://www.w3.org/Graphics/SVG/1.1/DTD/svg11.dtd">
<!-- Generated by graphviz version 14.1.4 (20260321.0153)
 -->
<!-- Title: G Pages: 1 -->
<svg width="1797pt" height="768pt"
 viewBox="0.00 0.00 1797.00 768.00" xmlns="http://www.w3.org/2000/svg" xmlns:xlink="http://www.w3.org/1999/xlink">
<g id="graph0" class="graph" transform="scale(1 1) rotate(0) translate(4 763.72)">
<title>G</title>
<polygon fill="white" stroke="none" points="-4,4 -4,-763.72 1792.8,-763.72 1792.8,4 -4,4"/>
<!-- acm -->
<g id="node1" class="node">
<title>acm</title>
<path fill="#dce9f7" stroke="#6f9bd1" d="M1460.8,-648.88C1460.8,-648.88 1348,-648.88 1348,-648.88 1342,-648.88 1336,-642.88 1336,-636.88 1336,-636.88 1336,-609.04 1336,-609.04 1336,-603.04 1342,-597.04 1348,-597.04 1348,-597.04 1460.8,-597.04 1460.8,-597.04 1466.8,-597.04 1472.8,-603.04 1472.8,-609.04 1472.8,-609.04 1472.8,-636.88 1472.8,-636.88 1472.8,-642.88 1466.8,-648.88 1460.8,-648.88"/>
<text xml:space="preserve" text-anchor="middle" x="1404.4" y="-624.71" font-family="Helvetica,sans-Serif" font-size="10.00">Access Control</text>
<text xml:space="preserve" text-anchor="middle" x="1404.4" y="-613.46" font-family="Helvetica,sans-Serif" font-size="10.00">Management [App]</text>
</g>
<!-- jams -->
<g id="node2" class="node">
<title>jams</title>
<path fill="#dce9f7" stroke="#6f9bd1" d="M464.8,-495.2C464.8,-495.2 352,-495.2 352,-495.2 346,-495.2 340,-489.2 340,-483.2 340,-483.2 340,-455.36 340,-455.36 340,-449.36 346,-443.36 352,-443.36 352,-443.36 464.8,-443.36 464.8,-443.36 470.8,-443.36 476.8,-449.36 476.8,-455.36 476.8,-455.36 476.8,-483.2 476.8,-483.2 476.8,-489.2 470.8,-495.2 464.8,-495.2"/>
<text xml:space="preserve" text-anchor="middle" x="408.4" y="-471.03" font-family="Helvetica,sans-Serif" font-size="10.00">Journey &amp; Account</text>
<text xml:space="preserve" text-anchor="middle" x="408.4" y="-459.78" font-family="Helvetica,sans-Serif" font-size="10.00">Mgmt System [App]</text>
</g>
<!-- fms -->
<g id="node3" class="node">
<title>fms</title>
<path fill="#dce9f7" stroke="#6f9bd1" d="M638.8,-495.2C638.8,-495.2 526,-495.2 526,-495.2 520,-495.2 514,-489.2 514,-483.2 514,-483.2 514,-455.36 514,-455.36 514,-449.36 520,-443.36 526,-443.36 526,-443.36 638.8,-443.36 638.8,-443.36 644.8,-443.36 650.8,-449.36 650.8,-455.36 650.8,-455.36 650.8,-483.2 650.8,-483.2 650.8,-489.2 644.8,-495.2 638.8,-495.2"/>
<text xml:space="preserve" text-anchor="middle" x="582.4" y="-471.03" font-family="Helvetica,sans-Serif" font-size="10.00">Fare Management</text>
<text xml:space="preserve" text-anchor="middle" x="582.4" y="-459.78" font-family="Helvetica,sans-Serif" font-size="10.00">System [App]</text>
</g>
<!-- web -->
<g id="node4" class="node">
<title>web</title>
<path fill="#dce9f7" stroke="#6f9bd1" d="M1776.8,-384.36C1776.8,-384.36 1664,-384.36 1664,-384.36 1658,-384.36 1652,-378.36 1652,-372.36 1652,-372.36 1652,-344.52 1652,-344.52 1652,-338.52 1658,-332.52 1664,-332.52 1664,-332.52 1776.8,-332.52 1776.8,-332.52 1782.8,-332.52 1788.8,-338.52 1788.8,-344.52 1788.8,-344.52 1788.8,-372.36 1788.8,-372.36 1788.8,-378.36 1782.8,-384.36 1776.8,-384.36"/>
<text xml:space="preserve" text-anchor="middle" x="1720.4" y="-360.19" font-family="Helvetica,sans-Serif" font-size="10.00">ArchiTrain</text>
<text xml:space="preserve" text-anchor="middle" x="1720.4" y="-348.94" font-family="Helvetica,sans-Serif" font-size="10.00">Website [App]</text>
</g>
<!-- bank -->
<g id="node5" class="node">
<title>bank</title>
<path fill="#dce9f7" stroke="#6f9bd1" d="M1078.8,-384.36C1078.8,-384.36 966,-384.36 966,-384.36 960,-384.36 954,-378.36 954,-372.36 954,-372.36 954,-344.52 954,-344.52 954,-338.52 960,-332.52 966,-332.52 966,-332.52 1078.8,-332.52 1078.8,-332.52 1084.8,-332.52 1090.8,-338.52 1090.8,-344.52 1090.8,-344.52 1090.8,-372.36 1090.8,-372.36 1090.8,-378.36 1084.8,-384.36 1078.8,-384.36"/>
<text xml:space="preserve" text-anchor="middle" x="1022.4" y="-360.19" font-family="Helvetica,sans-Serif" font-size="10.00">Bank Payment</text>
<text xml:space="preserve" text-anchor="middle" x="1022.4" y="-348.94" font-family="Helvetica,sans-Serif" font-size="10.00">Service (ext) [App]</text>
</g>
<!-- bank&#45;&gt;fms -->
<g id="edge27" class="edge">
<title>bank&#45;&gt;fms</title>
<path fill="none" stroke="#666666" stroke-dasharray="1,5" d="M953.56,-380.97C949.45,-382.15 945.38,-383.28 941.4,-384.36 846.04,-410.14 735.19,-435.34 662.18,-451.28"/>
<polygon fill="#666666" stroke="#666666" points="652.43,-453.41 661.24,-446.88 656.13,-452.6 662.2,-451.28 662.2,-451.28 662.2,-451.28 656.13,-452.6 663.16,-455.67 652.43,-453.41"/>
<text xml:space="preserve" text-anchor="middle" x="856.07" y="-410.76" font-family="Helvetica,sans-Serif" font-size="8.00">serving</text>
</g>
<!-- do_tap -->
<g id="node6" class="node">
<title>do_tap</title>
<path fill="#dce9f7" stroke="#6f9bd1" d="M1303.8,-759.72C1303.8,-759.72 1191,-759.72 1191,-759.72 1185,-759.72 1179,-753.72 1179,-747.72 1179,-747.72 1179,-719.88 1179,-719.88 1179,-713.88 1185,-707.88 1191,-707.88 1191,-707.88 1303.8,-707.88 1303.8,-707.88 1309.8,-707.88 1315.8,-713.88 1315.8,-719.88 1315.8,-719.88 1315.8,-747.72 1315.8,-747.72 1315.8,-753.72 1309.8,-759.72 1303.8,-759.72"/>
<text xml:space="preserve" text-anchor="middle" x="1247.4" y="-735.55" font-family="Helvetica,sans-Serif" font-size="10.00">Tap Event</text>
<text xml:space="preserve" text-anchor="middle" x="1247.4" y="-724.3" font-family="Helvetica,sans-Serif" font-size="10.00">Data</text>
</g>
<!-- do_acct -->
<g id="node7" class="node">
<title>do_acct</title>
<path fill="#dce9f7" stroke="#6f9bd1" d="M286.8,-759.72C286.8,-759.72 174,-759.72 174,-759.72 168,-759.72 162,-753.72 162,-747.72 162,-747.72 162,-719.88 162,-719.88 162,-713.88 168,-707.88 174,-707.88 174,-707.88 286.8,-707.88 286.8,-707.88 292.8,-707.88 298.8,-713.88 298.8,-719.88 298.8,-719.88 298.8,-747.72 298.8,-747.72 298.8,-753.72 292.8,-759.72 286.8,-759.72"/>
<text xml:space="preserve" text-anchor="middle" x="230.4" y="-735.55" font-family="Helvetica,sans-Serif" font-size="10.00">Go Card</text>
<text xml:space="preserve" text-anchor="middle" x="230.4" y="-724.3" font-family="Helvetica,sans-Serif" font-size="10.00">Account Data</text>
</g>
<!-- do_fz -->
<g id="node8" class="node">
<title>do_fz</title>
<path fill="#dce9f7" stroke="#6f9bd1" d="M448.8,-759.72C448.8,-759.72 336,-759.72 336,-759.72 330,-759.72 324,-753.72 324,-747.72 324,-747.72 324,-719.88 324,-719.88 324,-713.88 330,-707.88 336,-707.88 336,-707.88 448.8,-707.88 448.8,-707.88 454.8,-707.88 460.8,-713.88 460.8,-719.88 460.8,-719.88 460.8,-747.72 460.8,-747.72 460.8,-753.72 454.8,-759.72 448.8,-759.72"/>
<text xml:space="preserve" text-anchor="middle" x="392.4" y="-735.55" font-family="Helvetica,sans-Serif" font-size="10.00">Fare &amp; Zone</text>
<text xml:space="preserve" text-anchor="middle" x="392.4" y="-724.3" font-family="Helvetica,sans-Serif" font-size="10.00">Data</text>
</g>
<!-- do_tic -->
<g id="node9" class="node">
<title>do_tic</title>
<path fill="#dce9f7" stroke="#6f9bd1" d="M124.8,-759.72C124.8,-759.72 12,-759.72 12,-759.72 6,-759.72 0,-753.72 0,-747.72 0,-747.72 0,-719.88 0,-719.88 0,-713.88 6,-707.88 12,-707.88 12,-707.88 124.8,-707.88 124.8,-707.88 130.8,-707.88 136.8,-713.88 136.8,-719.88 136.8,-719.88 136.8,-747.72 136.8,-747.72 136.8,-753.72 130.8,-759.72 124.8,-759.72"/>
<text xml:space="preserve" text-anchor="middle" x="68.4" y="-735.55" font-family="Helvetica,sans-Serif" font-size="10.00">Digital</text>
<text xml:space="preserve" text-anchor="middle" x="68.4" y="-724.3" font-family="Helvetica,sans-Serif" font-size="10.00">Ticket</text>
</g>
<!-- n_si -->
<g id="node10" class="node">
<title>n_si</title>
<path fill="#c9e7b8" stroke="#7fa968" d="M1447.8,-162.68C1447.8,-162.68 1335,-162.68 1335,-162.68 1329,-162.68 1323,-156.68 1323,-150.68 1323,-150.68 1323,-122.84 1323,-122.84 1323,-116.84 1329,-110.84 1335,-110.84 1335,-110.84 1447.8,-110.84 1447.8,-110.84 1453.8,-110.84 1459.8,-116.84 1459.8,-122.84 1459.8,-122.84 1459.8,-150.68 1459.8,-150.68 1459.8,-156.68 1453.8,-162.68 1447.8,-162.68"/>
<text xml:space="preserve" text-anchor="middle" x="1391.4" y="-138.51" font-family="Helvetica,sans-Serif" font-size="10.00">Station</text>
<text xml:space="preserve" text-anchor="middle" x="1391.4" y="-127.26" font-family="Helvetica,sans-Serif" font-size="10.00">Infrastructure</text>
</g>
<!-- d_gate -->
<g id="node13" class="node">
<title>d_gate</title>
<path fill="#c9e7b8" stroke="#7fa968" d="M1508.8,-273.52C1508.8,-273.52 1396,-273.52 1396,-273.52 1390,-273.52 1384,-267.52 1384,-261.52 1384,-261.52 1384,-233.68 1384,-233.68 1384,-227.68 1390,-221.68 1396,-221.68 1396,-221.68 1508.8,-221.68 1508.8,-221.68 1514.8,-221.68 1520.8,-227.68 1520.8,-233.68 1520.8,-233.68 1520.8,-261.52 1520.8,-261.52 1520.8,-267.52 1514.8,-273.52 1508.8,-273.52"/>
<text xml:space="preserve" text-anchor="middle" x="1452.4" y="-243.72" font-family="Helvetica,sans-Serif" font-size="10.00">Station Gate</text>
</g>
<!-- n_si&#45;&gt;d_gate -->
<g id="edge1" class="edge">
<title>n_si&#45;&gt;d_gate</title>
<path fill="none" stroke="#666666" d="M1405.55,-163C1413.4,-177.02 1423.31,-194.69 1431.99,-210.18"/>
<polygon fill="#666666" stroke="#666666" points="1432.02,-210.24 1438.44,-213.52 1437.89,-220.71 1431.47,-217.43 1432.02,-210.24"/>
<text xml:space="preserve" text-anchor="middle" x="1433.48" y="-189.08" font-family="Helvetica,sans-Serif" font-size="8.00">comp</text>
</g>
<!-- d_pnfc -->
<g id="node15" class="node">
<title>d_pnfc</title>
<path fill="#c9e7b8" stroke="#7fa968" d="M1402.8,-384.36C1402.8,-384.36 1290,-384.36 1290,-384.36 1284,-384.36 1278,-378.36 1278,-372.36 1278,-372.36 1278,-344.52 1278,-344.52 1278,-338.52 1284,-332.52 1290,-332.52 1290,-332.52 1402.8,-332.52 1402.8,-332.52 1408.8,-332.52 1414.8,-338.52 1414.8,-344.52 1414.8,-344.52 1414.8,-372.36 1414.8,-372.36 1414.8,-378.36 1408.8,-384.36 1402.8,-384.36"/>
<text xml:space="preserve" text-anchor="middle" x="1346.4" y="-360.19" font-family="Helvetica,sans-Serif" font-size="10.00">Platform</text>
<text xml:space="preserve" text-anchor="middle" x="1346.4" y="-348.94" font-family="Helvetica,sans-Serif" font-size="10.00">NFC Reader</text>
</g>
<!-- n_si&#45;&gt;d_pnfc -->
<g id="edge2" class="edge">
<title>n_si&#45;&gt;d_pnfc</title>
<path fill="none" stroke="#666666" d="M1376.34,-162.86C1367.46,-179.04 1357,-200.88 1351.9,-221.68 1343.98,-254.02 1343.12,-291.97 1343.94,-319.51"/>
<polygon fill="#666666" stroke="#666666" points="1343.95,-319.61 1348.19,-325.44 1344.44,-331.6 1340.2,-325.77 1343.95,-319.61"/>
<text xml:space="preserve" text-anchor="middle" x="1361.65" y="-244.5" font-family="Helvetica,sans-Serif" font-size="8.00">comp</text>
</g>
<!-- n_be -->
<g id="node11" class="node">
<title>n_be</title>
<path fill="#c9e7b8" stroke="#7fa968" d="M520.8,-273.52C520.8,-273.52 408,-273.52 408,-273.52 402,-273.52 396,-267.52 396,-261.52 396,-261.52 396,-233.68 396,-233.68 396,-227.68 402,-221.68 408,-221.68 408,-221.68 520.8,-221.68 520.8,-221.68 526.8,-221.68 532.8,-227.68 532.8,-233.68 532.8,-233.68 532.8,-261.52 532.8,-261.52 532.8,-267.52 526.8,-273.52 520.8,-273.52"/>
<text xml:space="preserve" text-anchor="middle" x="464.4" y="-249.35" font-family="Helvetica,sans-Serif" font-size="10.00">Journey &amp; Account</text>
<text xml:space="preserve" text-anchor="middle" x="464.4" y="-238.1" font-family="Helvetica,sans-Serif" font-size="10.00">Mgmt Backend</text>
</g>
<!-- n_be&#45;&gt;jams -->
<g id="edge10" class="edge">
<title>n_be&#45;&gt;jams</title>
<path fill="none" stroke="#666666" d="M416.84,-273.99C395.55,-288.12 372.64,-307.88 360.9,-332.52 345.04,-365.79 363.26,-405.83 381.53,-433.76"/>
<polygon fill="#666666" stroke="#666666" points="378.54,-435.6 387.09,-441.86 384.32,-431.64 378.54,-435.6"/>
<text xml:space="preserve" text-anchor="middle" x="372.15" y="-355.34" font-family="Helvetica,sans-Serif" font-size="8.00">assign</text>
</g>
<!-- n_be&#45;&gt;fms -->
<g id="edge11" class="edge">
<title>n_be&#45;&gt;fms</title>
<path fill="none" stroke="#666666" d="M495.29,-273.66C512.34,-289.01 532.59,-309.99 545.4,-332.52 563.07,-363.6 572.63,-403.51 577.57,-432"/>
<polygon fill="#666666" stroke="#666666" points="574.07,-432.26 579.12,-441.57 580.98,-431.14 574.07,-432.26"/>
<text xml:space="preserve" text-anchor="middle" x="577.67" y="-355.34" font-family="Helvetica,sans-Serif" font-size="8.00">assign</text>
</g>
<!-- ss_db -->
<g id="node18" class="node">
<title>ss_db</title>
<path fill="#c9e7b8" stroke="#7fa968" d="M286.8,-384.36C286.8,-384.36 174,-384.36 174,-384.36 168,-384.36 162,-378.36 162,-372.36 162,-372.36 162,-344.52 162,-344.52 162,-338.52 168,-332.52 174,-332.52 174,-332.52 286.8,-332.52 286.8,-332.52 292.8,-332.52 298.8,-338.52 298.8,-344.52 298.8,-344.52 298.8,-372.36 298.8,-372.36 298.8,-378.36 292.8,-384.36 286.8,-384.36"/>
<text xml:space="preserve" text-anchor="middle" x="230.4" y="-360.19" font-family="Helvetica,sans-Serif" font-size="10.00">Database</text>
<text xml:space="preserve" text-anchor="middle" x="230.4" y="-348.94" font-family="Helvetica,sans-Serif" font-size="10.00">(DBMS)</text>
</g>
<!-- n_be&#45;&gt;ss_db -->
<g id="edge5" class="edge">
<title>n_be&#45;&gt;ss_db</title>
<path fill="none" stroke="#666666" d="M395.57,-265.62C368.11,-273.74 336.72,-284.72 309.9,-298.52 296.19,-305.57 282.33,-314.92 270.1,-324.08"/>
<polygon fill="#666666" stroke="#666666" points="270.03,-324.14 267.73,-330.97 260.54,-331.48 262.84,-324.64 270.03,-324.14"/>
<text xml:space="preserve" text-anchor="middle" x="319.65" y="-299.92" font-family="Helvetica,sans-Serif" font-size="8.00">comp</text>
</g>
<!-- sv_store -->
<g id="node21" class="node">
<title>sv_store</title>
<path fill="#c9e7b8" stroke="#7fa968" d="M520.8,-384.36C520.8,-384.36 408,-384.36 408,-384.36 402,-384.36 396,-378.36 396,-372.36 396,-372.36 396,-344.52 396,-344.52 396,-338.52 402,-332.52 408,-332.52 408,-332.52 520.8,-332.52 520.8,-332.52 526.8,-332.52 532.8,-338.52 532.8,-344.52 532.8,-344.52 532.8,-372.36 532.8,-372.36 532.8,-378.36 526.8,-384.36 520.8,-384.36"/>
<text xml:space="preserve" text-anchor="middle" x="464.4" y="-360.19" font-family="Helvetica,sans-Serif" font-size="10.00">Data Storage</text>
<text xml:space="preserve" text-anchor="middle" x="464.4" y="-348.94" font-family="Helvetica,sans-Serif" font-size="10.00">Service</text>
</g>
<!-- n_be&#45;&gt;sv_store -->
<g id="edge15" class="edge">
<title>n_be&#45;&gt;sv_store</title>
<path fill="none" stroke="#666666" d="M464.4,-273.84C464.4,-287.86 464.4,-305.53 464.4,-321.02"/>
<polygon fill="none" stroke="#666666" points="460.9,-320.82 464.4,-330.82 467.9,-320.82 460.9,-320.82"/>
<text xml:space="preserve" text-anchor="middle" x="471.15" y="-299.92" font-family="Helvetica,sans-Serif" font-size="8.00">real</text>
</g>
<!-- ar_db -->
<g id="node25" class="node">
<title>ar_db</title>
<path fill="#c9e7b8" stroke="#7fa968" d="M286.8,-648.88C286.8,-648.88 174,-648.88 174,-648.88 168,-648.88 162,-642.88 162,-636.88 162,-636.88 162,-609.04 162,-609.04 162,-603.04 168,-597.04 174,-597.04 174,-597.04 286.8,-597.04 286.8,-597.04 292.8,-597.04 298.8,-603.04 298.8,-609.04 298.8,-609.04 298.8,-636.88 298.8,-636.88 298.8,-642.88 292.8,-648.88 286.8,-648.88"/>
<text xml:space="preserve" text-anchor="middle" x="230.4" y="-624.71" font-family="Helvetica,sans-Serif" font-size="10.00">Journey &amp; Account</text>
<text xml:space="preserve" text-anchor="middle" x="230.4" y="-613.46" font-family="Helvetica,sans-Serif" font-size="10.00">Database</text>
</g>
<!-- n_be&#45;&gt;ar_db -->
<g id="edge6" class="edge">
<title>n_be&#45;&gt;ar_db</title>
<path fill="none" stroke="#666666" d="M395.58,-257.15C312.21,-269.1 179.19,-293.76 149.4,-332.52 90.13,-409.64 160.12,-527.9 202.55,-586.51"/>
<polygon fill="#666666" stroke="#666666" points="202.44,-586.36 209.23,-588.81 209.58,-596.01 202.8,-593.57 202.44,-586.36"/>
<text xml:space="preserve" text-anchor="middle" x="137" y="-410.76" font-family="Helvetica,sans-Serif" font-size="8.00">comp</text>
</g>
<!-- n_as -->
<g id="node12" class="node">
<title>n_as</title>
<path fill="#c9e7b8" stroke="#7fa968" d="M1660.8,-162.68C1660.8,-162.68 1548,-162.68 1548,-162.68 1542,-162.68 1536,-156.68 1536,-150.68 1536,-150.68 1536,-122.84 1536,-122.84 1536,-116.84 1542,-110.84 1548,-110.84 1548,-110.84 1660.8,-110.84 1660.8,-110.84 1666.8,-110.84 1672.8,-116.84 1672.8,-122.84 1672.8,-122.84 1672.8,-150.68 1672.8,-150.68 1672.8,-156.68 1666.8,-162.68 1660.8,-162.68"/>
<text xml:space="preserve" text-anchor="middle" x="1604.4" y="-138.51" font-family="Helvetica,sans-Serif" font-size="10.00">Application</text>
<text xml:space="preserve" text-anchor="middle" x="1604.4" y="-127.26" font-family="Helvetica,sans-Serif" font-size="10.00">Server</text>
</g>
<!-- n_as&#45;&gt;web -->
<g id="edge12" class="edge">
<title>n_as&#45;&gt;web</title>
<path fill="none" stroke="#666666" d="M1601.13,-162.94C1598.63,-191.51 1598.27,-238.66 1616.9,-273.52 1628.04,-294.38 1646.79,-311.96 1665.29,-325.56"/>
<polygon fill="#666666" stroke="#666666" points="1663.18,-328.35 1673.37,-331.23 1667.2,-322.62 1663.18,-328.35"/>
<text xml:space="preserve" text-anchor="middle" x="1628.15" y="-244.5" font-family="Helvetica,sans-Serif" font-size="8.00">assign</text>
</g>
<!-- ar_web -->
<g id="node26" class="node">
<title>ar_web</title>
<path fill="#c9e7b8" stroke="#7fa968" d="M1776.8,-273.52C1776.8,-273.52 1664,-273.52 1664,-273.52 1658,-273.52 1652,-267.52 1652,-261.52 1652,-261.52 1652,-233.68 1652,-233.68 1652,-227.68 1658,-221.68 1664,-221.68 1664,-221.68 1776.8,-221.68 1776.8,-221.68 1782.8,-221.68 1788.8,-227.68 1788.8,-233.68 1788.8,-233.68 1788.8,-261.52 1788.8,-261.52 1788.8,-267.52 1782.8,-273.52 1776.8,-273.52"/>
<text xml:space="preserve" text-anchor="middle" x="1720.4" y="-249.35" font-family="Helvetica,sans-Serif" font-size="10.00">Website</text>
<text xml:space="preserve" text-anchor="middle" x="1720.4" y="-238.1" font-family="Helvetica,sans-Serif" font-size="10.00">Deployment</text>
</g>
<!-- n_as&#45;&gt;ar_web -->
<g id="edge7" class="edge">
<title>n_as&#45;&gt;ar_web</title>
<path fill="none" stroke="#666666" d="M1631.3,-163C1647.12,-177.84 1667.31,-196.78 1684.47,-212.88"/>
<polygon fill="#666666" stroke="#666666" points="1684.23,-212.67 1691.35,-213.85 1692.98,-220.88 1685.87,-219.69 1684.23,-212.67"/>
<text xml:space="preserve" text-anchor="middle" x="1675.63" y="-189.08" font-family="Helvetica,sans-Serif" font-size="8.00">comp</text>
</g>
<!-- d_gate&#45;&gt;acm -->
<g id="edge9" class="edge">
<title>d_gate&#45;&gt;acm</title>
<path fill="none" stroke="#666666" d="M1450.75,-273.95C1446.91,-328.72 1436.08,-462.06 1415.4,-572.04 1414.57,-576.43 1413.65,-581.02 1412.69,-585.56"/>
<polygon fill="#666666" stroke="#666666" points="1409.31,-584.63 1410.62,-595.15 1416.16,-586.11 1409.31,-584.63"/>
<text xml:space="preserve" text-anchor="middle" x="1449.84" y="-410.76" font-family="Helvetica,sans-Serif" font-size="8.00">assign</text>
</g>
<!-- d_nfc -->
<g id="node14" class="node">
<title>d_nfc</title>
<path fill="#c9e7b8" stroke="#7fa968" d="M1240.8,-384.36C1240.8,-384.36 1128,-384.36 1128,-384.36 1122,-384.36 1116,-378.36 1116,-372.36 1116,-372.36 1116,-344.52 1116,-344.52 1116,-338.52 1122,-332.52 1128,-332.52 1128,-332.52 1240.8,-332.52 1240.8,-332.52 1246.8,-332.52 1252.8,-338.52 1252.8,-344.52 1252.8,-344.52 1252.8,-372.36 1252.8,-372.36 1252.8,-378.36 1246.8,-384.36 1240.8,-384.36"/>
<text xml:space="preserve" text-anchor="middle" x="1184.4" y="-360.19" font-family="Helvetica,sans-Serif" font-size="10.00">NFC Reader</text>
<text xml:space="preserve" text-anchor="middle" x="1184.4" y="-348.94" font-family="Helvetica,sans-Serif" font-size="10.00">(embedded)</text>
</g>
<!-- d_gate&#45;&gt;d_nfc -->
<g id="edge3" class="edge">
<title>d_gate&#45;&gt;d_nfc</title>
<path fill="none" stroke="#666666" d="M1389.9,-273.98C1350.63,-289.93 1299.76,-310.59 1258.46,-327.36"/>
<polygon fill="#666666" stroke="#666666" points="1258.48,-327.35 1254.43,-333.32 1247.37,-331.87 1251.42,-325.9 1258.48,-327.35"/>
<text xml:space="preserve" text-anchor="middle" x="1336.19" y="-299.92" font-family="Helvetica,sans-Serif" font-size="8.00">comp</text>
</g>
<!-- ss_fw -->
<g id="node19" class="node">
<title>ss_fw</title>
<path fill="#c9e7b8" stroke="#7fa968" d="M1614.8,-384.36C1614.8,-384.36 1502,-384.36 1502,-384.36 1496,-384.36 1490,-378.36 1490,-372.36 1490,-372.36 1490,-344.52 1490,-344.52 1490,-338.52 1496,-332.52 1502,-332.52 1502,-332.52 1614.8,-332.52 1614.8,-332.52 1620.8,-332.52 1626.8,-338.52 1626.8,-344.52 1626.8,-344.52 1626.8,-372.36 1626.8,-372.36 1626.8,-378.36 1620.8,-384.36 1614.8,-384.36"/>
<text xml:space="preserve" text-anchor="middle" x="1558.4" y="-360.19" font-family="Helvetica,sans-Serif" font-size="10.00">Gate Firmware /</text>
<text xml:space="preserve" text-anchor="middle" x="1558.4" y="-348.94" font-family="Helvetica,sans-Serif" font-size="10.00">Access Ctrl Client</text>
</g>
<!-- d_gate&#45;&gt;ss_fw -->
<g id="edge4" class="edge">
<title>d_gate&#45;&gt;ss_fw</title>
<path fill="none" stroke="#666666" d="M1476.98,-273.84C1491.3,-288.54 1509.54,-307.27 1525.13,-323.28"/>
<polygon fill="#666666" stroke="#666666" points="1524.95,-323.09 1532,-324.6 1533.32,-331.69 1526.27,-330.18 1524.95,-323.09"/>
<text xml:space="preserve" text-anchor="middle" x="1518.33" y="-299.92" font-family="Helvetica,sans-Serif" font-size="8.00">comp</text>
</g>
<!-- if_nfc -->
<g id="node20" class="node">
<title>if_nfc</title>
<path fill="#c9e7b8" stroke="#7fa968" d="M1240.8,-495.2C1240.8,-495.2 1128,-495.2 1128,-495.2 1122,-495.2 1116,-489.2 1116,-483.2 1116,-483.2 1116,-455.36 1116,-455.36 1116,-449.36 1122,-443.36 1128,-443.36 1128,-443.36 1240.8,-443.36 1240.8,-443.36 1246.8,-443.36 1252.8,-449.36 1252.8,-455.36 1252.8,-455.36 1252.8,-483.2 1252.8,-483.2 1252.8,-489.2 1246.8,-495.2 1240.8,-495.2"/>
<text xml:space="preserve" text-anchor="middle" x="1184.4" y="-471.03" font-family="Helvetica,sans-Serif" font-size="10.00">NFC</text>
<text xml:space="preserve" text-anchor="middle" x="1184.4" y="-459.78" font-family="Helvetica,sans-Serif" font-size="10.00">Interface</text>
</g>
<!-- d_nfc&#45;&gt;if_nfc -->
<g id="edge8" class="edge">
<title>d_nfc&#45;&gt;if_nfc</title>
<path fill="none" stroke="#666666" d="M1184.4,-384.68C1184.4,-398.28 1184.4,-415.33 1184.4,-430.48"/>
<polygon fill="#666666" stroke="#666666" points="1184.4,-430.27 1188.4,-436.27 1184.4,-442.27 1180.4,-436.27 1184.4,-430.27"/>
<text xml:space="preserve" text-anchor="middle" x="1194.15" y="-410.76" font-family="Helvetica,sans-Serif" font-size="8.00">comp</text>
</g>
<!-- sv_nfc -->
<g id="node22" class="node">
<title>sv_nfc</title>
<path fill="#c9e7b8" stroke="#7fa968" d="M1402.8,-495.2C1402.8,-495.2 1290,-495.2 1290,-495.2 1284,-495.2 1278,-489.2 1278,-483.2 1278,-483.2 1278,-455.36 1278,-455.36 1278,-449.36 1284,-443.36 1290,-443.36 1290,-443.36 1402.8,-443.36 1402.8,-443.36 1408.8,-443.36 1414.8,-449.36 1414.8,-455.36 1414.8,-455.36 1414.8,-483.2 1414.8,-483.2 1414.8,-489.2 1408.8,-495.2 1402.8,-495.2"/>
<text xml:space="preserve" text-anchor="middle" x="1346.4" y="-471.03" font-family="Helvetica,sans-Serif" font-size="10.00">NFC Proximity</text>
<text xml:space="preserve" text-anchor="middle" x="1346.4" y="-459.78" font-family="Helvetica,sans-Serif" font-size="10.00">Comm Service</text>
</g>
<!-- d_nfc&#45;&gt;sv_nfc -->
<g id="edge16" class="edge">
<title>d_nfc&#45;&gt;sv_nfc</title>
<path fill="none" stroke="#666666" d="M1221.97,-384.68C1245,-400.15 1274.66,-420.08 1299.25,-436.6"/>
<polygon fill="none" stroke="#666666" points="1297.24,-439.47 1307.49,-442.14 1301.15,-433.66 1297.24,-439.47"/>
<text xml:space="preserve" text-anchor="middle" x="1277.01" y="-410.76" font-family="Helvetica,sans-Serif" font-size="8.00">real</text>
</g>
<!-- d_pnfc&#45;&gt;sv_nfc -->
<g id="edge17" class="edge">
<title>d_pnfc&#45;&gt;sv_nfc</title>
<path fill="none" stroke="#666666" d="M1346.4,-384.68C1346.4,-398.7 1346.4,-416.37 1346.4,-431.86"/>
<polygon fill="none" stroke="#666666" points="1342.9,-431.66 1346.4,-441.66 1349.9,-431.66 1342.9,-431.66"/>
<text xml:space="preserve" text-anchor="middle" x="1353.15" y="-410.76" font-family="Helvetica,sans-Serif" font-size="8.00">real</text>
</g>
<!-- d_card -->
<g id="node16" class="node">
<title>d_card</title>
<path fill="#c9e7b8" stroke="#7fa968" d="M754.8,-384.36C754.8,-384.36 642,-384.36 642,-384.36 636,-384.36 630,-378.36 630,-372.36 630,-372.36 630,-344.52 630,-344.52 630,-338.52 636,-332.52 642,-332.52 642,-332.52 754.8,-332.52 754.8,-332.52 760.8,-332.52 766.8,-338.52 766.8,-344.52 766.8,-344.52 766.8,-372.36 766.8,-372.36 766.8,-378.36 760.8,-384.36 754.8,-384.36"/>
<text xml:space="preserve" text-anchor="middle" x="698.4" y="-354.56" font-family="Helvetica,sans-Serif" font-size="10.00">Go Card</text>
</g>
<!-- d_wallet -->
<g id="node17" class="node">
<title>d_wallet</title>
<path fill="#c9e7b8" stroke="#7fa968" d="M916.8,-384.36C916.8,-384.36 804,-384.36 804,-384.36 798,-384.36 792,-378.36 792,-372.36 792,-372.36 792,-344.52 792,-344.52 792,-338.52 798,-332.52 804,-332.52 804,-332.52 916.8,-332.52 916.8,-332.52 922.8,-332.52 928.8,-338.52 928.8,-344.52 928.8,-344.52 928.8,-372.36 928.8,-372.36 928.8,-378.36 922.8,-384.36 916.8,-384.36"/>
<text xml:space="preserve" text-anchor="middle" x="860.4" y="-360.19" font-family="Helvetica,sans-Serif" font-size="10.00">Mobile Wallet /</text>
<text xml:space="preserve" text-anchor="middle" x="860.4" y="-348.94" font-family="Helvetica,sans-Serif" font-size="10.00">Bank Card</text>
</g>
<!-- fn_rep -->
<g id="node23" class="node">
<title>fn_rep</title>
<path fill="#c9e7b8" stroke="#7fa968" d="M286.8,-495.2C286.8,-495.2 174,-495.2 174,-495.2 168,-495.2 162,-489.2 162,-483.2 162,-483.2 162,-455.36 162,-455.36 162,-449.36 168,-443.36 174,-443.36 174,-443.36 286.8,-443.36 286.8,-443.36 292.8,-443.36 298.8,-449.36 298.8,-455.36 298.8,-455.36 298.8,-483.2 298.8,-483.2 298.8,-489.2 292.8,-495.2 286.8,-495.2"/>
<text xml:space="preserve" text-anchor="middle" x="230.4" y="-471.03" font-family="Helvetica,sans-Serif" font-size="10.00">Data Replication</text>
<text xml:space="preserve" text-anchor="middle" x="230.4" y="-459.78" font-family="Helvetica,sans-Serif" font-size="10.00">&amp; Logging</text>
</g>
<!-- ss_db&#45;&gt;fn_rep -->
<g id="edge13" class="edge">
<title>ss_db&#45;&gt;fn_rep</title>
<path fill="none" stroke="#666666" d="M230.4,-384.68C230.4,-398.7 230.4,-416.37 230.4,-431.86"/>
<polygon fill="#666666" stroke="#666666" points="226.9,-431.66 230.4,-441.66 233.9,-431.66 226.9,-431.66"/>
<text xml:space="preserve" text-anchor="middle" x="241.65" y="-410.76" font-family="Helvetica,sans-Serif" font-size="8.00">assign</text>
</g>
<!-- fn_hs -->
<g id="node24" class="node">
<title>fn_hs</title>
<path fill="#c9e7b8" stroke="#7fa968" d="M1599.8,-572.04C1599.8,-572.04 1487,-572.04 1487,-572.04 1481,-572.04 1475,-566.04 1475,-560.04 1475,-560.04 1475,-532.2 1475,-532.2 1475,-526.2 1481,-520.2 1487,-520.2 1487,-520.2 1599.8,-520.2 1599.8,-520.2 1605.8,-520.2 1611.8,-526.2 1611.8,-532.2 1611.8,-532.2 1611.8,-560.04 1611.8,-560.04 1611.8,-566.04 1605.8,-572.04 1599.8,-572.04"/>
<text xml:space="preserve" text-anchor="middle" x="1543.4" y="-547.87" font-family="Helvetica,sans-Serif" font-size="10.00">NFC Handshake</text>
<text xml:space="preserve" text-anchor="middle" x="1543.4" y="-536.62" font-family="Helvetica,sans-Serif" font-size="10.00">Processing</text>
</g>
<!-- ss_fw&#45;&gt;fn_hs -->
<g id="edge14" class="edge">
<title>ss_fw&#45;&gt;fn_hs</title>
<path fill="none" stroke="#666666" d="M1556.38,-384.48C1553.79,-416.46 1549.3,-472.03 1546.34,-508.7"/>
<polygon fill="#666666" stroke="#666666" points="1542.88,-508.12 1545.56,-518.37 1549.85,-508.69 1542.88,-508.12"/>
<text xml:space="preserve" text-anchor="middle" x="1565.57" y="-410.76" font-family="Helvetica,sans-Serif" font-size="8.00">assign</text>
</g>
<!-- sv_store&#45;&gt;jams -->
<g id="edge24" class="edge">
<title>sv_store&#45;&gt;jams</title>
<path fill="none" stroke="#666666" stroke-dasharray="1,5" d="M437.23,-384.67C430.66,-392.05 424.28,-400.52 419.9,-409.36 416.45,-416.32 414.03,-424.23 412.34,-431.94"/>
<polygon fill="#666666" stroke="#666666" points="410.56,-441.76 407.91,-431.12 411.23,-438.04 412.34,-431.92 412.34,-431.92 412.34,-431.92 411.23,-438.04 416.77,-432.72 410.56,-441.76"/>
<text xml:space="preserve" text-anchor="middle" x="432.65" y="-410.76" font-family="Helvetica,sans-Serif" font-size="8.00">serving</text>
</g>
<!-- sv_store&#45;&gt;fms -->
<g id="edge25" class="edge">
<title>sv_store&#45;&gt;fms</title>
<path fill="none" stroke="#666666" stroke-dasharray="1,5" d="M491.77,-384.68C508.3,-399.93 529.53,-419.52 547.29,-435.9"/>
<polygon fill="#666666" stroke="#666666" points="554.28,-442.35 543.88,-438.87 551.5,-439.78 546.93,-435.57 546.93,-435.57 546.93,-435.57 551.5,-439.78 549.99,-432.26 554.28,-442.35"/>
<text xml:space="preserve" text-anchor="middle" x="539.69" y="-410.76" font-family="Helvetica,sans-Serif" font-size="8.00">serving</text>
</g>
<!-- sv_nfc&#45;&gt;acm -->
<g id="edge26" class="edge">
<title>sv_nfc&#45;&gt;acm</title>
<path fill="none" stroke="#666666" stroke-dasharray="1,5" d="M1356.11,-495.67C1365.63,-520.57 1380.23,-558.75 1390.89,-586.62"/>
<polygon fill="#666666" stroke="#666666" points="1394.32,-595.6 1386.55,-587.87 1392.97,-592.07 1390.75,-586.26 1390.75,-586.26 1390.75,-586.26 1392.97,-592.07 1394.95,-584.66 1394.32,-595.6"/>
<text xml:space="preserve" text-anchor="middle" x="1396.73" y="-543.02" font-family="Helvetica,sans-Serif" font-size="8.00">serving</text>
</g>
<!-- fn_rep&#45;&gt;ar_db -->
<g id="edge28" class="edge">
<title>fn_rep&#45;&gt;ar_db</title>
<path fill="none" stroke="#666666" stroke-dasharray="1,5" d="M230.4,-495.67C230.4,-520.35 230.4,-558.08 230.4,-585.88"/>
<polygon fill="#666666" stroke="#666666" points="230.4,-595.52 225.9,-585.52 230.4,-591.74 230.4,-585.52 230.4,-585.52 230.4,-585.52 230.4,-591.74 234.9,-585.52 230.4,-595.52"/>
<text xml:space="preserve" text-anchor="middle" x="242.4" y="-543.02" font-family="Helvetica,sans-Serif" font-size="8.00">access</text>
</g>
<!-- fn_hs&#45;&gt;do_tap -->
<g id="edge29" class="edge">
<title>fn_hs&#45;&gt;do_tap</title>
<path fill="none" stroke="#666666" stroke-dasharray="1,5" d="M1534.91,-572.26C1525.96,-595.21 1509.75,-628.54 1485.4,-648.88 1440.21,-686.63 1376.88,-707.87 1326.9,-719.53"/>
<polygon fill="#666666" stroke="#666666" points="1317.32,-721.68 1326.09,-715.1 1321.01,-720.85 1327.08,-719.49 1327.08,-719.49 1327.08,-719.49 1321.01,-720.85 1328.06,-723.88 1317.32,-721.68"/>
<text xml:space="preserve" text-anchor="middle" x="1535.08" y="-619.86" font-family="Helvetica,sans-Serif" font-size="8.00">access</text>
</g>
<!-- ar_db&#45;&gt;do_tap -->
<g id="edge19" class="edge">
<title>ar_db&#45;&gt;do_tap</title>
<path fill="none" stroke="#666666" d="M299.1,-631.31C480.89,-650.77 973.75,-703.51 1167.57,-724.26"/>
<polygon fill="none" stroke="#666666" points="1166.98,-727.71 1177.29,-725.3 1167.72,-720.75 1166.98,-727.71"/>
<text xml:space="preserve" text-anchor="middle" x="776.14" y="-675.28" font-family="Helvetica,sans-Serif" font-size="8.00">real</text>
</g>
<!-- ar_db&#45;&gt;do_acct -->
<g id="edge20" class="edge">
<title>ar_db&#45;&gt;do_acct</title>
<path fill="none" stroke="#666666" d="M230.4,-649.2C230.4,-663.22 230.4,-680.89 230.4,-696.38"/>
<polygon fill="none" stroke="#666666" points="226.9,-696.18 230.4,-706.18 233.9,-696.18 226.9,-696.18"/>
<text xml:space="preserve" text-anchor="middle" x="237.15" y="-675.28" font-family="Helvetica,sans-Serif" font-size="8.00">real</text>
</g>
<!-- ar_db&#45;&gt;do_fz -->
<g id="edge21" class="edge">
<title>ar_db&#45;&gt;do_fz</title>
<path fill="none" stroke="#666666" d="M267.97,-649.2C291,-664.67 320.66,-684.6 345.25,-701.12"/>
<polygon fill="none" stroke="#666666" points="343.24,-703.99 353.49,-706.66 347.15,-698.18 343.24,-703.99"/>
<text xml:space="preserve" text-anchor="middle" x="323.01" y="-675.28" font-family="Helvetica,sans-Serif" font-size="8.00">real</text>
</g>
<!-- ar_db&#45;&gt;do_tic -->
<g id="edge22" class="edge">
<title>ar_db&#45;&gt;do_tic</title>
<path fill="none" stroke="#666666" d="M192.83,-649.2C169.8,-664.67 140.14,-684.6 115.55,-701.12"/>
<polygon fill="none" stroke="#666666" points="113.65,-698.18 107.31,-706.66 117.56,-703.99 113.65,-698.18"/>
<text xml:space="preserve" text-anchor="middle" x="161.01" y="-675.28" font-family="Helvetica,sans-Serif" font-size="8.00">real</text>
</g>
<!-- ar_web&#45;&gt;web -->
<g id="edge18" class="edge">
<title>ar_web&#45;&gt;web</title>
<path fill="none" stroke="#666666" d="M1720.4,-273.84C1720.4,-287.86 1720.4,-305.53 1720.4,-321.02"/>
<polygon fill="none" stroke="#666666" points="1716.9,-320.82 1720.4,-330.82 1723.9,-320.82 1716.9,-320.82"/>
<text xml:space="preserve" text-anchor="middle" x="1727.15" y="-299.92" font-family="Helvetica,sans-Serif" font-size="8.00">real</text>
</g>
<!-- net -->
<g id="node27" class="node">
<title>net</title>
<path fill="#c9e7b8" stroke="#7fa968" d="M1336.8,-51.84C1336.8,-51.84 1224,-51.84 1224,-51.84 1218,-51.84 1212,-45.84 1212,-39.84 1212,-39.84 1212,-12 1212,-12 1212,-6 1218,0 1224,0 1224,0 1336.8,0 1336.8,0 1342.8,0 1348.8,-6 1348.8,-12 1348.8,-12 1348.8,-39.84 1348.8,-39.84 1348.8,-45.84 1342.8,-51.84 1336.8,-51.84"/>
<text xml:space="preserve" text-anchor="middle" x="1280.4" y="-22.04" font-family="Helvetica,sans-Serif" font-size="10.00">Private Network</text>
</g>
<!-- net&#45;&gt;n_si -->
<g id="edge30" class="edge">
<title>net&#45;&gt;n_si</title>
<path fill="none" stroke="#666666" stroke-dasharray="5,2" d="M1306.14,-52.16C1324.08,-69.75 1347.89,-93.1 1365.79,-110.65"/>
<text xml:space="preserve" text-anchor="middle" x="1349.35" y="-78.24" font-family="Helvetica,sans-Serif" font-size="8.00">assoc</text>
</g>
<!-- net&#45;&gt;n_be -->
<g id="edge31" class="edge">
<title>net&#45;&gt;n_be</title>
<path fill="none" stroke="#666666" stroke-dasharray="5,2" d="M1211.53,-45.46C1057.55,-86.91 686.89,-186.7 533.08,-228.11"/>
<text xml:space="preserve" text-anchor="middle" x="976.96" y="-133.66" font-family="Helvetica,sans-Serif" font-size="8.00">assoc</text>
</g>
<!-- net&#45;&gt;n_as -->
<g id="edge32" class="edge">
<title>net&#45;&gt;n_as</title>
<path fill="none" stroke="#666666" stroke-dasharray="5,2" d="M1349.11,-50C1404,-68.44 1480.57,-94.16 1535.51,-112.62"/>
<text xml:space="preserve" text-anchor="middle" x="1462.24" y="-78.24" font-family="Helvetica,sans-Serif" font-size="8.00">assoc</text>
</g>
<!-- p_link -->
<g id="node29" class="node">
<title>p_link</title>
<path fill="#c9e7b8" stroke="#7fa968" d="M1285.8,-162.68C1285.8,-162.68 1173,-162.68 1173,-162.68 1167,-162.68 1161,-156.68 1161,-150.68 1161,-150.68 1161,-122.84 1161,-122.84 1161,-116.84 1167,-110.84 1173,-110.84 1173,-110.84 1285.8,-110.84 1285.8,-110.84 1291.8,-110.84 1297.8,-116.84 1297.8,-122.84 1297.8,-122.84 1297.8,-150.68 1297.8,-150.68 1297.8,-156.68 1291.8,-162.68 1285.8,-162.68"/>
<text xml:space="preserve" text-anchor="middle" x="1229.4" y="-138.51" font-family="Helvetica,sans-Serif" font-size="10.00">Gate&#45;Backend</text>
<text xml:space="preserve" text-anchor="middle" x="1229.4" y="-127.26" font-family="Helvetica,sans-Serif" font-size="10.00">Link (Path)</text>
</g>
<!-- net&#45;&gt;p_link -->
<g id="edge23" class="edge">
<title>net&#45;&gt;p_link</title>
<path fill="none" stroke="#666666" d="M1268.57,-52.16C1261.88,-66.45 1253.4,-84.55 1246.04,-100.24"/>
<polygon fill="none" stroke="#666666" points="1242.88,-98.74 1241.81,-109.28 1249.22,-101.71 1242.88,-98.74"/>
<text xml:space="preserve" text-anchor="middle" x="1263.18" y="-78.24" font-family="Helvetica,sans-Serif" font-size="8.00">real</text>
</g>
<!-- p_nfc -->
<g id="node28" class="node">
<title>p_nfc</title>
<path fill="#c9e7b8" stroke="#7fa968" d="M1009.8,-273.52C1009.8,-273.52 897,-273.52 897,-273.52 891,-273.52 885,-267.52 885,-261.52 885,-261.52 885,-233.68 885,-233.68 885,-227.68 891,-221.68 897,-221.68 897,-221.68 1009.8,-221.68 1009.8,-221.68 1015.8,-221.68 1021.8,-227.68 1021.8,-233.68 1021.8,-233.68 1021.8,-261.52 1021.8,-261.52 1021.8,-267.52 1015.8,-273.52 1009.8,-273.52"/>
<text xml:space="preserve" text-anchor="middle" x="953.4" y="-249.35" font-family="Helvetica,sans-Serif" font-size="10.00">NFC Handshake</text>
<text xml:space="preserve" text-anchor="middle" x="953.4" y="-238.1" font-family="Helvetica,sans-Serif" font-size="10.00">(Path)</text>
</g>
<!-- p_nfc&#45;&gt;d_nfc -->
<g id="edge33" class="edge">
<title>p_nfc&#45;&gt;d_nfc</title>
<path fill="none" stroke="#666666" stroke-dasharray="5,2" d="M1007.27,-273.98C1044.46,-291.51 1093.72,-314.71 1130.85,-332.21"/>
<text xml:space="preserve" text-anchor="middle" x="1085.95" y="-299.92" font-family="Helvetica,sans-Serif" font-size="8.00">assoc</text>
</g>
<!-- p_nfc&#45;&gt;d_pnfc -->
<g id="edge34" class="edge">
<title>p_nfc&#45;&gt;d_pnfc</title>
<path fill="none" stroke="#666666" stroke-dasharray="5,2" d="M1022.07,-266.32C1085.42,-282.84 1181.99,-308.48 1265.4,-332.52 1269.36,-333.66 1273.42,-334.85 1277.51,-336.06"/>
<text xml:space="preserve" text-anchor="middle" x="1181.46" y="-299.92" font-family="Helvetica,sans-Serif" font-size="8.00">assoc</text>
</g>
<!-- p_nfc&#45;&gt;d_card -->
<g id="edge35" class="edge">
<title>p_nfc&#45;&gt;d_card</title>
<path fill="none" stroke="#666666" stroke-dasharray="5,2" d="M893.94,-273.98C852.88,-291.51 798.5,-314.71 757.52,-332.21"/>
<text xml:space="preserve" text-anchor="middle" x="843.67" y="-299.92" font-family="Helvetica,sans-Serif" font-size="8.00">assoc</text>
</g>
<!-- p_nfc&#45;&gt;d_wallet -->
<g id="edge36" class="edge">
<title>p_nfc&#45;&gt;d_wallet</title>
<path fill="none" stroke="#666666" stroke-dasharray="5,2" d="M931.83,-273.84C916.81,-291.43 896.85,-314.78 881.85,-332.33"/>
<text xml:space="preserve" text-anchor="middle" x="919.81" y="-299.92" font-family="Helvetica,sans-Serif" font-size="8.00">assoc</text>
</g>
<!-- p_link&#45;&gt;n_be -->
<g id="edge38" class="edge">
<title>p_link&#45;&gt;n_be</title>
<path fill="none" stroke="#666666" stroke-dasharray="5,2" d="M1160.5,-147.56C1015.15,-168.24 678.61,-216.12 533.28,-236.8"/>
<text xml:space="preserve" text-anchor="middle" x="879.96" y="-189.08" font-family="Helvetica,sans-Serif" font-size="8.00">assoc</text>
</g>
<!-- p_link&#45;&gt;d_gate -->
<g id="edge37" class="edge">
<title>p_link&#45;&gt;d_gate</title>
<path fill="none" stroke="#666666" stroke-dasharray="5,2" d="M1281.4,-163.14C1317.31,-180.67 1364.86,-203.87 1400.7,-221.37"/>
<text xml:space="preserve" text-anchor="middle" x="1357.71" y="-189.08" font-family="Helvetica,sans-Serif" font-size="8.00">assoc</text>
</g>
</g>
</svg>
