<?xml version="1.0" encoding="UTF-8" standalone="no"?>
<!DOCTYPE svg PUBLIC "-//W3C//DTD SVG 1.1//EN"
 "http://www.w3.org/Graphics/SVG/1.1/DTD/svg11.dtd">
<!-- Generated by graphviz version 14.1.4 (20260321.0153)
 -->
<!-- Title: G Pages: 1 -->
<svg width="1164pt" height="574pt"
 viewBox="0.00 0.00 1164.00 574.00" xmlns="http://www.w3.org/2000/svg" xmlns:xlink="http://www.w3.org/1999/xlink">
<g id="graph0" class="graph" transform="scale(1 1) rotate(0) translate(4 570)">
<title>G</title>
<polygon fill="white" stroke="none" points="-4,4 -4,-570 1159.6,-570 1159.6,4 -4,4"/>
<!-- d_card -->
<g id="node1" class="node">
<title>d_card</title>
<path fill="#c9e7b8" stroke="#7fa968" d="M373.6,-317.2C373.6,-317.2 232,-317.2 232,-317.2 226,-317.2 220,-311.2 220,-305.2 220,-305.2 220,-260.8 220,-260.8 220,-254.8 226,-248.8 232,-248.8 232,-248.8 373.6,-248.8 373.6,-248.8 379.6,-248.8 385.6,-254.8 385.6,-260.8 385.6,-260.8 385.6,-305.2 385.6,-305.2 385.6,-311.2 379.6,-317.2 373.6,-317.2"/>
<text xml:space="preserve" text-anchor="middle" x="302.8" y="-277.4" font-family="Helvetica,sans-Serif" font-weight="bold" font-size="13.00">Go Card</text>
</g>
<!-- d_wallet -->
<g id="node2" class="node">
<title>d_wallet</title>
<path fill="#c9e7b8" stroke="#7fa968" d="M593.6,-317.2C593.6,-317.2 452,-317.2 452,-317.2 446,-317.2 440,-311.2 440,-305.2 440,-305.2 440,-260.8 440,-260.8 440,-254.8 446,-248.8 452,-248.8 452,-248.8 593.6,-248.8 593.6,-248.8 599.6,-248.8 605.6,-254.8 605.6,-260.8 605.6,-260.8 605.6,-305.2 605.6,-305.2 605.6,-311.2 599.6,-317.2 593.6,-317.2"/>
<text xml:space="preserve" text-anchor="middle" x="522.8" y="-284.15" font-family="Helvetica,sans-Serif" font-weight="bold" font-size="13.00">Mobile Wallet /</text>
<text xml:space="preserve" text-anchor="middle" x="522.8" y="-270.65" font-family="Helvetica,sans-Serif" font-weight="bold" font-size="13.00">Bank Card</text>
</g>
<!-- p_nfc -->
<g id="node3" class="node">
<title>p_nfc</title>
<path fill="#c9e7b8" stroke="#7fa968" d="M483.6,-192.8C483.6,-192.8 342,-192.8 342,-192.8 336,-192.8 330,-186.8 330,-180.8 330,-180.8 330,-136.4 330,-136.4 330,-130.4 336,-124.4 342,-124.4 342,-124.4 483.6,-124.4 483.6,-124.4 489.6,-124.4 495.6,-130.4 495.6,-136.4 495.6,-136.4 495.6,-180.8 495.6,-180.8 495.6,-186.8 489.6,-192.8 483.6,-192.8"/>
<text xml:space="preserve" text-anchor="middle" x="412.8" y="-159.75" font-family="Helvetica,sans-Serif" font-weight="bold" font-size="13.00">NFC Handshake</text>
<text xml:space="preserve" text-anchor="middle" x="412.8" y="-146.25" font-family="Helvetica,sans-Serif" font-weight="bold" font-size="13.00">(Path)</text>
</g>
<!-- p_nfc&#45;&gt;d_card -->
<g id="edge13" class="edge">
<title>p_nfc&#45;&gt;d_card</title>
<path fill="none" stroke="black" d="M382.74,-193.05C369.65,-207.62 354.16,-224.85 340.32,-240.26"/>
<polygon fill="black" stroke="black" points="337.91,-237.69 333.83,-247.47 343.12,-242.37 337.91,-237.69"/>
<text xml:space="preserve" text-anchor="middle" x="374.97" y="-216.35" font-family="Helvetica,sans-Serif" font-size="11.00">assoc</text>
</g>
<!-- p_nfc&#45;&gt;d_wallet -->
<g id="edge14" class="edge">
<title>p_nfc&#45;&gt;d_wallet</title>
<path fill="none" stroke="black" d="M442.86,-193.05C455.95,-207.62 471.44,-224.85 485.28,-240.26"/>
<polygon fill="black" stroke="black" points="482.48,-242.37 491.77,-247.47 487.69,-237.69 482.48,-242.37"/>
<text xml:space="preserve" text-anchor="middle" x="484.97" y="-216.35" font-family="Helvetica,sans-Serif" font-size="11.00">assoc</text>
</g>
<!-- d_nfc -->
<g id="node4" class="node">
<title>d_nfc</title>
<path fill="#c9e7b8" stroke="#7fa968" d="M813.6,-317.2C813.6,-317.2 672,-317.2 672,-317.2 666,-317.2 660,-311.2 660,-305.2 660,-305.2 660,-260.8 660,-260.8 660,-254.8 666,-248.8 672,-248.8 672,-248.8 813.6,-248.8 813.6,-248.8 819.6,-248.8 825.6,-254.8 825.6,-260.8 825.6,-260.8 825.6,-305.2 825.6,-305.2 825.6,-311.2 819.6,-317.2 813.6,-317.2"/>
<text xml:space="preserve" text-anchor="middle" x="742.8" y="-284.15" font-family="Helvetica,sans-Serif" font-weight="bold" font-size="13.00">NFC Reader</text>
<text xml:space="preserve" text-anchor="middle" x="742.8" y="-270.65" font-family="Helvetica,sans-Serif" font-weight="bold" font-size="13.00">(embedded)</text>
</g>
<!-- p_nfc&#45;&gt;d_nfc -->
<g id="edge11" class="edge">
<title>p_nfc&#45;&gt;d_nfc</title>
<path fill="none" stroke="black" d="M496.07,-190.49C542.58,-207.74 600.68,-229.29 648.81,-247.14"/>
<polygon fill="black" stroke="black" points="647.54,-250.4 658.13,-250.6 649.98,-243.84 647.54,-250.4"/>
<text xml:space="preserve" text-anchor="middle" x="601.57" y="-216.35" font-family="Helvetica,sans-Serif" font-size="11.00">assoc</text>
</g>
<!-- d_pnfc -->
<g id="node5" class="node">
<title>d_pnfc</title>
<path fill="#c9e7b8" stroke="#7fa968" d="M153.6,-317.2C153.6,-317.2 12,-317.2 12,-317.2 6,-317.2 0,-311.2 0,-305.2 0,-305.2 0,-260.8 0,-260.8 0,-254.8 6,-248.8 12,-248.8 12,-248.8 153.6,-248.8 153.6,-248.8 159.6,-248.8 165.6,-254.8 165.6,-260.8 165.6,-260.8 165.6,-305.2 165.6,-305.2 165.6,-311.2 159.6,-317.2 153.6,-317.2"/>
<text xml:space="preserve" text-anchor="middle" x="82.8" y="-284.15" font-family="Helvetica,sans-Serif" font-weight="bold" font-size="13.00">Platform</text>
<text xml:space="preserve" text-anchor="middle" x="82.8" y="-270.65" font-family="Helvetica,sans-Serif" font-weight="bold" font-size="13.00">NFC Reader</text>
</g>
<!-- p_nfc&#45;&gt;d_pnfc -->
<g id="edge12" class="edge">
<title>p_nfc&#45;&gt;d_pnfc</title>
<path fill="none" stroke="black" d="M329.53,-190.49C283.02,-207.74 224.92,-229.29 176.79,-247.14"/>
<polygon fill="black" stroke="black" points="175.62,-243.84 167.47,-250.6 178.06,-250.4 175.62,-243.84"/>
<text xml:space="preserve" text-anchor="middle" x="271.57" y="-216.35" font-family="Helvetica,sans-Serif" font-size="11.00">assoc</text>
</g>
<!-- if_nfc -->
<g id="node6" class="node">
<title>if_nfc</title>
<path fill="#c9e7b8" stroke="#7fa968" d="M813.6,-441.6C813.6,-441.6 672,-441.6 672,-441.6 666,-441.6 660,-435.6 660,-429.6 660,-429.6 660,-385.2 660,-385.2 660,-379.2 666,-373.2 672,-373.2 672,-373.2 813.6,-373.2 813.6,-373.2 819.6,-373.2 825.6,-379.2 825.6,-385.2 825.6,-385.2 825.6,-429.6 825.6,-429.6 825.6,-435.6 819.6,-441.6 813.6,-441.6"/>
<text xml:space="preserve" text-anchor="middle" x="742.8" y="-401.8" font-family="Helvetica,sans-Serif" font-weight="bold" font-size="13.00">NFC Interface</text>
</g>
<!-- d_nfc&#45;&gt;if_nfc -->
<g id="edge5" class="edge">
<title>d_nfc&#45;&gt;if_nfc</title>
<path fill="none" stroke="black" d="M742.8,-317.45C742.8,-331.07 742.8,-347.03 742.8,-361.64"/>
<polygon fill="black" stroke="black" points="739.3,-361.48 742.8,-371.48 746.3,-361.48 739.3,-361.48"/>
<text xml:space="preserve" text-anchor="middle" x="755.92" y="-340.75" font-family="Helvetica,sans-Serif" font-size="11.00">comp</text>
</g>
<!-- sv_nfc -->
<g id="node11" class="node">
<title>sv_nfc</title>
<path fill="#c9e7b8" stroke="#7fa968" d="M593.6,-441.6C593.6,-441.6 452,-441.6 452,-441.6 446,-441.6 440,-435.6 440,-429.6 440,-429.6 440,-385.2 440,-385.2 440,-379.2 446,-373.2 452,-373.2 452,-373.2 593.6,-373.2 593.6,-373.2 599.6,-373.2 605.6,-379.2 605.6,-385.2 605.6,-385.2 605.6,-429.6 605.6,-429.6 605.6,-435.6 599.6,-441.6 593.6,-441.6"/>
<text xml:space="preserve" text-anchor="middle" x="522.8" y="-408.55" font-family="Helvetica,sans-Serif" font-weight="bold" font-size="13.00">NFC Proximity</text>
<text xml:space="preserve" text-anchor="middle" x="522.8" y="-395.05" font-family="Helvetica,sans-Serif" font-weight="bold" font-size="13.00">Comm Service</text>
</g>
<!-- d_nfc&#45;&gt;sv_nfc -->
<g id="edge8" class="edge">
<title>d_nfc&#45;&gt;sv_nfc</title>
<path fill="none" stroke="black" d="M682.39,-317.61C654.74,-332.99 621.8,-351.32 593.05,-367.31"/>
<polygon fill="black" stroke="black" points="591.43,-364.21 584.39,-372.13 594.84,-370.33 591.43,-364.21"/>
<text xml:space="preserve" text-anchor="middle" x="648.4" y="-340.75" font-family="Helvetica,sans-Serif" font-size="11.00">real</text>
</g>
<!-- d_pnfc&#45;&gt;sv_nfc -->
<g id="edge9" class="edge">
<title>d_pnfc&#45;&gt;sv_nfc</title>
<path fill="none" stroke="black" d="M165.91,-309.36C174.97,-312.05 184.07,-314.7 192.8,-317.2 272.12,-339.89 362.6,-364.24 428.73,-381.75"/>
<polygon fill="black" stroke="black" points="427.52,-385.05 438.08,-384.23 429.31,-378.29 427.52,-385.05"/>
<text xml:space="preserve" text-anchor="middle" x="319.52" y="-340.75" font-family="Helvetica,sans-Serif" font-size="11.00">real</text>
</g>
<!-- d_gate -->
<g id="node7" class="node">
<title>d_gate</title>
<path fill="#c9e7b8" stroke="#7fa968" d="M936.6,-192.8C936.6,-192.8 795,-192.8 795,-192.8 789,-192.8 783,-186.8 783,-180.8 783,-180.8 783,-136.4 783,-136.4 783,-130.4 789,-124.4 795,-124.4 795,-124.4 936.6,-124.4 936.6,-124.4 942.6,-124.4 948.6,-130.4 948.6,-136.4 948.6,-136.4 948.6,-180.8 948.6,-180.8 948.6,-186.8 942.6,-192.8 936.6,-192.8"/>
<text xml:space="preserve" text-anchor="middle" x="865.8" y="-153" font-family="Helvetica,sans-Serif" font-weight="bold" font-size="13.00">Station Gate</text>
</g>
<!-- d_gate&#45;&gt;d_nfc -->
<g id="edge3" class="edge">
<title>d_gate&#45;&gt;d_nfc</title>
<path fill="none" stroke="black" d="M832.19,-193.05C817.41,-207.75 799.9,-225.17 784.32,-240.68"/>
<polygon fill="black" stroke="black" points="782.06,-237.99 777.44,-247.53 787,-242.95 782.06,-237.99"/>
<text xml:space="preserve" text-anchor="middle" x="821.11" y="-216.35" font-family="Helvetica,sans-Serif" font-size="11.00">comp</text>
</g>
<!-- ss_fw -->
<g id="node9" class="node">
<title>ss_fw</title>
<path fill="#c9e7b8" stroke="#7fa968" d="M1143.6,-317.2C1143.6,-317.2 1002,-317.2 1002,-317.2 996,-317.2 990,-311.2 990,-305.2 990,-305.2 990,-260.8 990,-260.8 990,-254.8 996,-248.8 1002,-248.8 1002,-248.8 1143.6,-248.8 1143.6,-248.8 1149.6,-248.8 1155.6,-254.8 1155.6,-260.8 1155.6,-260.8 1155.6,-305.2 1155.6,-305.2 1155.6,-311.2 1149.6,-317.2 1143.6,-317.2"/>
<text xml:space="preserve" text-anchor="middle" x="1072.8" y="-284.15" font-family="Helvetica,sans-Serif" font-weight="bold" font-size="13.00">Gate Firmware /</text>
<text xml:space="preserve" text-anchor="middle" x="1072.8" y="-270.65" font-family="Helvetica,sans-Serif" font-weight="bold" font-size="13.00">Access Ctrl Client</text>
</g>
<!-- d_gate&#45;&gt;ss_fw -->
<g id="edge4" class="edge">
<title>d_gate&#45;&gt;ss_fw</title>
<path fill="none" stroke="black" d="M922.64,-193.21C948.54,-208.52 979.38,-226.76 1006.34,-242.7"/>
<polygon fill="black" stroke="black" points="1004.4,-245.62 1014.79,-247.7 1007.96,-239.59 1004.4,-245.62"/>
<text xml:space="preserve" text-anchor="middle" x="988.63" y="-216.35" font-family="Helvetica,sans-Serif" font-size="11.00">comp</text>
</g>
<!-- acm -->
<g id="node12" class="node">
<title>acm</title>
<path fill="#d7ecf7" stroke="#4e97be" d="M786.6,-566C786.6,-566 645,-566 645,-566 639,-566 633,-560 633,-554 633,-554 633,-509.6 633,-509.6 633,-503.6 639,-497.6 645,-497.6 645,-497.6 786.6,-497.6 786.6,-497.6 792.6,-497.6 798.6,-503.6 798.6,-509.6 798.6,-509.6 798.6,-554 798.6,-554 798.6,-560 792.6,-566 786.6,-566"/>
<text xml:space="preserve" text-anchor="middle" x="715.8" y="-532.95" font-family="Helvetica,sans-Serif" font-weight="bold" font-size="13.00">Access Control</text>
<text xml:space="preserve" text-anchor="middle" x="715.8" y="-519.45" font-family="Helvetica,sans-Serif" font-weight="bold" font-size="13.00">Management</text>
</g>
<!-- d_gate&#45;&gt;acm -->
<g id="edge6" class="edge">
<title>d_gate&#45;&gt;acm</title>
<path fill="none" stroke="black" d="M873.49,-193.13C884.35,-248.86 898.21,-362.27 852.8,-441.6 841.29,-461.71 823.19,-478.07 803.87,-491.02"/>
<polygon fill="black" stroke="black" points="802.14,-487.97 795.59,-496.29 805.9,-493.87 802.14,-487.97"/>
<text xml:space="preserve" text-anchor="middle" x="897.69" y="-340.75" font-family="Helvetica,sans-Serif" font-size="11.00">assign</text>
</g>
<!-- n_si -->
<g id="node8" class="node">
<title>n_si</title>
<path fill="#c9e7b8" stroke="#7fa968" d="M208.6,-68.4C208.6,-68.4 67,-68.4 67,-68.4 61,-68.4 55,-62.4 55,-56.4 55,-56.4 55,-12 55,-12 55,-6 61,0 67,0 67,0 208.6,0 208.6,0 214.6,0 220.6,-6 220.6,-12 220.6,-12 220.6,-56.4 220.6,-56.4 220.6,-62.4 214.6,-68.4 208.6,-68.4"/>
<text xml:space="preserve" text-anchor="middle" x="137.8" y="-35.35" font-family="Helvetica,sans-Serif" font-weight="bold" font-size="13.00">Station</text>
<text xml:space="preserve" text-anchor="middle" x="137.8" y="-21.85" font-family="Helvetica,sans-Serif" font-weight="bold" font-size="13.00">Infrastructure</text>
</g>
<!-- n_si&#45;&gt;d_pnfc -->
<g id="edge2" class="edge">
<title>n_si&#45;&gt;d_pnfc</title>
<path fill="none" stroke="black" d="M130.33,-68.74C120.59,-112.42 103.54,-188.91 92.73,-237.43"/>
<polygon fill="black" stroke="black" points="89.35,-236.53 90.59,-247.05 96.18,-238.06 89.35,-236.53"/>
<text xml:space="preserve" text-anchor="middle" x="130.68" y="-154.15" font-family="Helvetica,sans-Serif" font-size="11.00">comp</text>
</g>
<!-- n_si&#45;&gt;d_gate -->
<g id="edge1" class="edge">
<title>n_si&#45;&gt;d_gate</title>
<path fill="none" stroke="black" d="M220.96,-49.18C357.49,-72.14 628.3,-117.67 771.67,-141.77"/>
<polygon fill="black" stroke="black" points="770.68,-145.16 781.12,-143.36 771.84,-138.25 770.68,-145.16"/>
<text xml:space="preserve" text-anchor="middle" x="536.75" y="-91.95" font-family="Helvetica,sans-Serif" font-size="11.00">comp</text>
</g>
<!-- fn_hs -->
<g id="node10" class="node">
<title>fn_hs</title>
<path fill="#c9e7b8" stroke="#7fa968" d="M1143.6,-441.6C1143.6,-441.6 1002,-441.6 1002,-441.6 996,-441.6 990,-435.6 990,-429.6 990,-429.6 990,-385.2 990,-385.2 990,-379.2 996,-373.2 1002,-373.2 1002,-373.2 1143.6,-373.2 1143.6,-373.2 1149.6,-373.2 1155.6,-379.2 1155.6,-385.2 1155.6,-385.2 1155.6,-429.6 1155.6,-429.6 1155.6,-435.6 1149.6,-441.6 1143.6,-441.6"/>
<text xml:space="preserve" text-anchor="middle" x="1072.8" y="-408.55" font-family="Helvetica,sans-Serif" font-weight="bold" font-size="13.00">NFC Handshake</text>
<text xml:space="preserve" text-anchor="middle" x="1072.8" y="-395.05" font-family="Helvetica,sans-Serif" font-weight="bold" font-size="13.00">Processing</text>
</g>
<!-- ss_fw&#45;&gt;fn_hs -->
<g id="edge7" class="edge">
<title>ss_fw&#45;&gt;fn_hs</title>
<path fill="none" stroke="black" d="M1072.8,-317.45C1072.8,-331.07 1072.8,-347.03 1072.8,-361.64"/>
<polygon fill="black" stroke="black" points="1069.3,-361.48 1072.8,-371.48 1076.3,-361.48 1069.3,-361.48"/>
<text xml:space="preserve" text-anchor="middle" x="1088.17" y="-340.75" font-family="Helvetica,sans-Serif" font-size="11.00">assign</text>
</g>
<!-- sv_nfc&#45;&gt;acm -->
<g id="edge10" class="edge">
<title>sv_nfc&#45;&gt;acm</title>
<path fill="none" stroke="black" d="M575.79,-442.01C599.84,-457.26 628.44,-475.4 653.51,-491.29"/>
<polygon fill="black" stroke="black" points="651.33,-494.06 661.65,-496.46 655.08,-488.14 651.33,-494.06"/>
<text xml:space="preserve" text-anchor="middle" x="642.34" y="-465.15" font-family="Helvetica,sans-Serif" font-size="11.00">serving</text>
</g>
</g>
</svg>
