<?xml version="1.0" encoding="UTF-8" standalone="no"?>
<!DOCTYPE svg PUBLIC "-//W3C//DTD SVG 1.1//EN"
 "http://www.w3.org/Graphics/SVG/1.1/DTD/svg11.dtd">
<!-- Generated by graphviz version 14.1.4 (20260321.0153)
 -->
<!-- Title: G Pages: 1 -->
<svg width="1362pt" height="438pt"
 viewBox="0.00 0.00 1362.00 438.00" xmlns="http://www.w3.org/2000/svg" xmlns:xlink="http://www.w3.org/1999/xlink">
<g id="graph0" class="graph" transform="scale(1 1) rotate(0) translate(4 433.6)">
<title>G</title>
<polygon fill="white" stroke="none" points="-4,4 -4,-433.6 1357.6,-433.6 1357.6,4 -4,4"/>
<!-- p_nfc -->
<g id="node1" class="node">
<title>p_nfc</title>
<path fill="#c9e7b8" stroke="#7fa968" d="M388.6,-188.8C388.6,-188.8 247,-188.8 247,-188.8 241,-188.8 235,-182.8 235,-176.8 235,-176.8 235,-132.4 235,-132.4 235,-126.4 241,-120.4 247,-120.4 247,-120.4 388.6,-120.4 388.6,-120.4 394.6,-120.4 400.6,-126.4 400.6,-132.4 400.6,-132.4 400.6,-176.8 400.6,-176.8 400.6,-182.8 394.6,-188.8 388.6,-188.8"/>
<text xml:space="preserve" text-anchor="middle" x="317.8" y="-155.75" font-family="Helvetica,sans-Serif" font-weight="bold" font-size="13.00">NFC Handshake</text>
<text xml:space="preserve" text-anchor="middle" x="317.8" y="-142.25" font-family="Helvetica,sans-Serif" font-weight="bold" font-size="13.00">(Path)</text>
</g>
<!-- d_card -->
<g id="node2" class="node">
<title>d_card</title>
<path fill="#c9e7b8" stroke="#7fa968" d="M276.6,-309.2C276.6,-309.2 135,-309.2 135,-309.2 129,-309.2 123,-303.2 123,-297.2 123,-297.2 123,-252.8 123,-252.8 123,-246.8 129,-240.8 135,-240.8 135,-240.8 276.6,-240.8 276.6,-240.8 282.6,-240.8 288.6,-246.8 288.6,-252.8 288.6,-252.8 288.6,-297.2 288.6,-297.2 288.6,-303.2 282.6,-309.2 276.6,-309.2"/>
<text xml:space="preserve" text-anchor="middle" x="205.8" y="-269.4" font-family="Helvetica,sans-Serif" font-weight="bold" font-size="13.00">Go Card</text>
</g>
<!-- p_nfc&#45;&gt;d_card -->
<g id="edge10" class="edge">
<title>p_nfc&#45;&gt;d_card</title>
<path fill="none" stroke="black" d="M286,-189.21C273.35,-202.59 258.66,-218.12 245.34,-232.2"/>
<polygon fill="black" stroke="black" points="243.04,-229.53 238.71,-239.2 248.13,-234.34 243.04,-229.53"/>
<text xml:space="preserve" text-anchor="middle" x="279.03" y="-210.35" font-family="Helvetica,sans-Serif" font-size="11.00">assoc</text>
</g>
<!-- d_wallet -->
<g id="node3" class="node">
<title>d_wallet</title>
<path fill="#c9e7b8" stroke="#7fa968" d="M500.6,-309.2C500.6,-309.2 359,-309.2 359,-309.2 353,-309.2 347,-303.2 347,-297.2 347,-297.2 347,-252.8 347,-252.8 347,-246.8 353,-240.8 359,-240.8 359,-240.8 500.6,-240.8 500.6,-240.8 506.6,-240.8 512.6,-246.8 512.6,-252.8 512.6,-252.8 512.6,-297.2 512.6,-297.2 512.6,-303.2 506.6,-309.2 500.6,-309.2"/>
<text xml:space="preserve" text-anchor="middle" x="429.8" y="-276.15" font-family="Helvetica,sans-Serif" font-weight="bold" font-size="13.00">Mobile Wallet /</text>
<text xml:space="preserve" text-anchor="middle" x="429.8" y="-262.65" font-family="Helvetica,sans-Serif" font-weight="bold" font-size="13.00">Bank Card</text>
</g>
<!-- p_nfc&#45;&gt;d_wallet -->
<g id="edge11" class="edge">
<title>p_nfc&#45;&gt;d_wallet</title>
<path fill="none" stroke="black" d="M349.6,-189.21C362.25,-202.59 376.94,-218.12 390.26,-232.2"/>
<polygon fill="black" stroke="black" points="387.47,-234.34 396.89,-239.2 392.56,-229.53 387.47,-234.34"/>
<text xml:space="preserve" text-anchor="middle" x="391.03" y="-210.35" font-family="Helvetica,sans-Serif" font-size="11.00">assoc</text>
</g>
<!-- d_nfc -->
<g id="node4" class="node">
<title>d_nfc</title>
<path fill="#c9e7b8" stroke="#7fa968" d="M153.6,-429.6C153.6,-429.6 12,-429.6 12,-429.6 6,-429.6 0,-423.6 0,-417.6 0,-417.6 0,-373.2 0,-373.2 0,-367.2 6,-361.2 12,-361.2 12,-361.2 153.6,-361.2 153.6,-361.2 159.6,-361.2 165.6,-367.2 165.6,-373.2 165.6,-373.2 165.6,-417.6 165.6,-417.6 165.6,-423.6 159.6,-429.6 153.6,-429.6"/>
<text xml:space="preserve" text-anchor="middle" x="82.8" y="-396.55" font-family="Helvetica,sans-Serif" font-weight="bold" font-size="13.00">NFC Reader</text>
<text xml:space="preserve" text-anchor="middle" x="82.8" y="-383.05" font-family="Helvetica,sans-Serif" font-weight="bold" font-size="13.00">(embedded)</text>
</g>
<!-- p_nfc&#45;&gt;d_nfc -->
<g id="edge8" class="edge">
<title>p_nfc&#45;&gt;d_nfc</title>
<path fill="none" stroke="black" d="M234.6,-159.65C177,-167.31 104.1,-187.75 66.05,-240.8 43.5,-272.23 51.67,-316.99 63.11,-350.09"/>
<polygon fill="black" stroke="black" points="59.8,-351.24 66.55,-359.41 66.37,-348.81 59.8,-351.24"/>
<text xml:space="preserve" text-anchor="middle" x="79.92" y="-270.55" font-family="Helvetica,sans-Serif" font-size="11.00">assoc</text>
</g>
<!-- d_pnfc -->
<g id="node5" class="node">
<title>d_pnfc</title>
<path fill="#c9e7b8" stroke="#7fa968" d="M724.6,-309.2C724.6,-309.2 583,-309.2 583,-309.2 577,-309.2 571,-303.2 571,-297.2 571,-297.2 571,-252.8 571,-252.8 571,-246.8 577,-240.8 583,-240.8 583,-240.8 724.6,-240.8 724.6,-240.8 730.6,-240.8 736.6,-246.8 736.6,-252.8 736.6,-252.8 736.6,-297.2 736.6,-297.2 736.6,-303.2 730.6,-309.2 724.6,-309.2"/>
<text xml:space="preserve" text-anchor="middle" x="653.8" y="-276.15" font-family="Helvetica,sans-Serif" font-weight="bold" font-size="13.00">Platform</text>
<text xml:space="preserve" text-anchor="middle" x="653.8" y="-262.65" font-family="Helvetica,sans-Serif" font-weight="bold" font-size="13.00">NFC Reader</text>
</g>
<!-- p_nfc&#45;&gt;d_pnfc -->
<g id="edge9" class="edge">
<title>p_nfc&#45;&gt;d_pnfc</title>
<path fill="none" stroke="black" d="M400.86,-184.87C449.02,-201.84 509.81,-223.26 559.73,-240.85"/>
<polygon fill="black" stroke="black" points="558.51,-244.13 569.11,-244.16 560.84,-237.53 558.51,-244.13"/>
<text xml:space="preserve" text-anchor="middle" x="509.75" y="-210.35" font-family="Helvetica,sans-Serif" font-size="11.00">assoc</text>
</g>
<!-- d_gate -->
<g id="node6" class="node">
<title>d_gate</title>
<path fill="#c9e7b8" stroke="#7fa968" d="M948.6,-309.2C948.6,-309.2 807,-309.2 807,-309.2 801,-309.2 795,-303.2 795,-297.2 795,-297.2 795,-252.8 795,-252.8 795,-246.8 801,-240.8 807,-240.8 807,-240.8 948.6,-240.8 948.6,-240.8 954.6,-240.8 960.6,-246.8 960.6,-252.8 960.6,-252.8 960.6,-297.2 960.6,-297.2 960.6,-303.2 954.6,-309.2 948.6,-309.2"/>
<text xml:space="preserve" text-anchor="middle" x="877.8" y="-269.4" font-family="Helvetica,sans-Serif" font-weight="bold" font-size="13.00">Station Gate</text>
</g>
<!-- d_gate&#45;&gt;d_nfc -->
<g id="edge3" class="edge">
<title>d_gate&#45;&gt;d_nfc</title>
<path fill="none" stroke="black" d="M794.7,-302.27C785.02,-304.85 775.23,-307.23 765.8,-309.2 558.1,-352.63 309.92,-376.81 177.35,-387.54"/>
<polygon fill="black" stroke="black" points="177.25,-384.04 167.56,-388.32 177.81,-391.01 177.25,-384.04"/>
<text xml:space="preserve" text-anchor="middle" x="668.3" y="-330.75" font-family="Helvetica,sans-Serif" font-size="11.00">comp</text>
</g>
<!-- n_be -->
<g id="node7" class="node">
<title>n_be</title>
<path fill="#c9e7b8" stroke="#7fa968" d="M1172.6,-309.2C1172.6,-309.2 1031,-309.2 1031,-309.2 1025,-309.2 1019,-303.2 1019,-297.2 1019,-297.2 1019,-252.8 1019,-252.8 1019,-246.8 1025,-240.8 1031,-240.8 1031,-240.8 1172.6,-240.8 1172.6,-240.8 1178.6,-240.8 1184.6,-246.8 1184.6,-252.8 1184.6,-252.8 1184.6,-297.2 1184.6,-297.2 1184.6,-303.2 1178.6,-309.2 1172.6,-309.2"/>
<text xml:space="preserve" text-anchor="middle" x="1101.8" y="-276.15" font-family="Helvetica,sans-Serif" font-weight="bold" font-size="13.00">Journey &amp; Account</text>
<text xml:space="preserve" text-anchor="middle" x="1101.8" y="-262.65" font-family="Helvetica,sans-Serif" font-weight="bold" font-size="13.00">Mgmt Backend</text>
</g>
<!-- p_link -->
<g id="node8" class="node">
<title>p_link</title>
<path fill="#c9e7b8" stroke="#7fa968" d="M973.6,-188.8C973.6,-188.8 832,-188.8 832,-188.8 826,-188.8 820,-182.8 820,-176.8 820,-176.8 820,-132.4 820,-132.4 820,-126.4 826,-120.4 832,-120.4 832,-120.4 973.6,-120.4 973.6,-120.4 979.6,-120.4 985.6,-126.4 985.6,-132.4 985.6,-132.4 985.6,-176.8 985.6,-176.8 985.6,-182.8 979.6,-188.8 973.6,-188.8"/>
<text xml:space="preserve" text-anchor="middle" x="902.8" y="-155.75" font-family="Helvetica,sans-Serif" font-weight="bold" font-size="13.00">Gate&#45;Backend</text>
<text xml:space="preserve" text-anchor="middle" x="902.8" y="-142.25" font-family="Helvetica,sans-Serif" font-weight="bold" font-size="13.00">Link (Path)</text>
</g>
<!-- p_link&#45;&gt;d_gate -->
<g id="edge12" class="edge">
<title>p_link&#45;&gt;d_gate</title>
<path fill="none" stroke="black" d="M895.7,-189.21C893.06,-201.71 890.03,-216.09 887.21,-229.42"/>
<polygon fill="black" stroke="black" points="883.87,-228.32 885.23,-238.82 890.72,-229.76 883.87,-228.32"/>
<text xml:space="preserve" text-anchor="middle" x="904.92" y="-210.35" font-family="Helvetica,sans-Serif" font-size="11.00">assoc</text>
</g>
<!-- p_link&#45;&gt;n_be -->
<g id="edge13" class="edge">
<title>p_link&#45;&gt;n_be</title>
<path fill="none" stroke="black" d="M959.29,-189.21C983.03,-203.34 1010.81,-219.86 1035.51,-234.56"/>
<polygon fill="black" stroke="black" points="1033.48,-237.42 1043.86,-239.53 1037.06,-231.41 1033.48,-237.42"/>
<text xml:space="preserve" text-anchor="middle" x="1022.14" y="-210.35" font-family="Helvetica,sans-Serif" font-size="11.00">assoc</text>
</g>
<!-- net -->
<g id="node9" class="node">
<title>net</title>
<path fill="#c9e7b8" stroke="#7fa968" d="M1122.6,-68.4C1122.6,-68.4 981,-68.4 981,-68.4 975,-68.4 969,-62.4 969,-56.4 969,-56.4 969,-12 969,-12 969,-6 975,0 981,0 981,0 1122.6,0 1122.6,0 1128.6,0 1134.6,-6 1134.6,-12 1134.6,-12 1134.6,-56.4 1134.6,-56.4 1134.6,-62.4 1128.6,-68.4 1122.6,-68.4"/>
<text xml:space="preserve" text-anchor="middle" x="1051.8" y="-28.6" font-family="Helvetica,sans-Serif" font-weight="bold" font-size="13.00">Private Network</text>
</g>
<!-- net&#45;&gt;n_be -->
<g id="edge6" class="edge">
<title>net&#45;&gt;n_be</title>
<path fill="none" stroke="black" d="M1058.8,-68.66C1067.59,-110.63 1082.7,-182.76 1092.46,-229.4"/>
<polygon fill="black" stroke="black" points="1088.98,-229.83 1094.45,-238.9 1095.83,-228.4 1088.98,-229.83"/>
<text xml:space="preserve" text-anchor="middle" x="1097.27" y="-150.15" font-family="Helvetica,sans-Serif" font-size="11.00">assoc</text>
</g>
<!-- net&#45;&gt;p_link -->
<g id="edge4" class="edge">
<title>net&#45;&gt;p_link</title>
<path fill="none" stroke="black" d="M1009.5,-68.81C992.2,-82.56 972.03,-98.59 953.91,-112.98"/>
<polygon fill="black" stroke="black" points="952.04,-110 946.39,-118.96 956.4,-115.48 952.04,-110"/>
<text xml:space="preserve" text-anchor="middle" x="990.77" y="-89.95" font-family="Helvetica,sans-Serif" font-size="11.00">real</text>
</g>
<!-- n_si -->
<g id="node10" class="node">
<title>n_si</title>
<path fill="#c9e7b8" stroke="#7fa968" d="M749.6,-188.8C749.6,-188.8 608,-188.8 608,-188.8 602,-188.8 596,-182.8 596,-176.8 596,-176.8 596,-132.4 596,-132.4 596,-126.4 602,-120.4 608,-120.4 608,-120.4 749.6,-120.4 749.6,-120.4 755.6,-120.4 761.6,-126.4 761.6,-132.4 761.6,-132.4 761.6,-176.8 761.6,-176.8 761.6,-182.8 755.6,-188.8 749.6,-188.8"/>
<text xml:space="preserve" text-anchor="middle" x="678.8" y="-155.75" font-family="Helvetica,sans-Serif" font-weight="bold" font-size="13.00">Station</text>
<text xml:space="preserve" text-anchor="middle" x="678.8" y="-142.25" font-family="Helvetica,sans-Serif" font-weight="bold" font-size="13.00">Infrastructure</text>
</g>
<!-- net&#45;&gt;n_si -->
<g id="edge5" class="edge">
<title>net&#45;&gt;n_si</title>
<path fill="none" stroke="black" d="M968.56,-61.62C910.42,-80.08 832.75,-104.73 772.45,-123.87"/>
<polygon fill="black" stroke="black" points="771.7,-120.44 763.23,-126.8 773.82,-127.11 771.7,-120.44"/>
<text xml:space="preserve" text-anchor="middle" x="890.36" y="-89.95" font-family="Helvetica,sans-Serif" font-size="11.00">assoc</text>
</g>
<!-- n_as -->
<g id="node11" class="node">
<title>n_as</title>
<path fill="#c9e7b8" stroke="#7fa968" d="M1341.6,-188.8C1341.6,-188.8 1200,-188.8 1200,-188.8 1194,-188.8 1188,-182.8 1188,-176.8 1188,-176.8 1188,-132.4 1188,-132.4 1188,-126.4 1194,-120.4 1200,-120.4 1200,-120.4 1341.6,-120.4 1341.6,-120.4 1347.6,-120.4 1353.6,-126.4 1353.6,-132.4 1353.6,-132.4 1353.6,-176.8 1353.6,-176.8 1353.6,-182.8 1347.6,-188.8 1341.6,-188.8"/>
<text xml:space="preserve" text-anchor="middle" x="1270.8" y="-155.75" font-family="Helvetica,sans-Serif" font-weight="bold" font-size="13.00">Application</text>
<text xml:space="preserve" text-anchor="middle" x="1270.8" y="-142.25" font-family="Helvetica,sans-Serif" font-weight="bold" font-size="13.00">Server</text>
</g>
<!-- net&#45;&gt;n_as -->
<g id="edge7" class="edge">
<title>net&#45;&gt;n_as</title>
<path fill="none" stroke="black" d="M1113.97,-68.81C1140.33,-83.06 1171.21,-99.76 1198.57,-114.55"/>
<polygon fill="black" stroke="black" points="1196.68,-117.51 1207.14,-119.18 1200.01,-111.35 1196.68,-117.51"/>
<text xml:space="preserve" text-anchor="middle" x="1181.74" y="-89.95" font-family="Helvetica,sans-Serif" font-size="11.00">assoc</text>
</g>
<!-- n_si&#45;&gt;d_pnfc -->
<g id="edge2" class="edge">
<title>n_si&#45;&gt;d_pnfc</title>
<path fill="none" stroke="black" d="M671.7,-189.21C669.06,-201.71 666.03,-216.09 663.21,-229.42"/>
<polygon fill="black" stroke="black" points="659.87,-228.32 661.23,-238.82 666.72,-229.76 659.87,-228.32"/>
<text xml:space="preserve" text-anchor="middle" x="680.17" y="-210.35" font-family="Helvetica,sans-Serif" font-size="11.00">comp</text>
</g>
<!-- n_si&#45;&gt;d_gate -->
<g id="edge1" class="edge">
<title>n_si&#45;&gt;d_gate</title>
<path fill="none" stroke="black" d="M735.29,-189.21C759.03,-203.34 786.81,-219.86 811.51,-234.56"/>
<polygon fill="black" stroke="black" points="809.48,-237.42 819.86,-239.53 813.06,-231.41 809.48,-237.42"/>
<text xml:space="preserve" text-anchor="middle" x="797.39" y="-210.35" font-family="Helvetica,sans-Serif" font-size="11.00">comp</text>
</g>
</g>
</svg>
