<?xml version="1.0" encoding="UTF-8" standalone="no"?>
<!DOCTYPE svg PUBLIC "-//W3C//DTD SVG 1.1//EN"
 "http://www.w3.org/Graphics/SVG/1.1/DTD/svg11.dtd">
<!-- Generated by graphviz version 14.1.4 (20260321.0153)
 -->
<!-- Title: G Pages: 1 -->
<svg width="757pt" height="450pt"
 viewBox="0.00 0.00 757.00 450.00" xmlns="http://www.w3.org/2000/svg" xmlns:xlink="http://www.w3.org/1999/xlink">
<g id="graph0" class="graph" transform="scale(1 1) rotate(0) translate(4 445.6)">
<title>G</title>
<polygon fill="white" stroke="none" points="-4,4 -4,-445.6 752.6,-445.6 752.6,4 -4,4"/>
<!-- n_as -->
<g id="node1" class="node">
<title>n_as</title>
<path fill="#c9e7b8" stroke="#7fa968" d="M296.6,-192.8C296.6,-192.8 155,-192.8 155,-192.8 149,-192.8 143,-186.8 143,-180.8 143,-180.8 143,-136.4 143,-136.4 143,-130.4 149,-124.4 155,-124.4 155,-124.4 296.6,-124.4 296.6,-124.4 302.6,-124.4 308.6,-130.4 308.6,-136.4 308.6,-136.4 308.6,-180.8 308.6,-180.8 308.6,-186.8 302.6,-192.8 296.6,-192.8"/>
<text xml:space="preserve" text-anchor="middle" x="225.8" y="-159.75" font-family="Helvetica,sans-Serif" font-weight="bold" font-size="13.00">Application</text>
<text xml:space="preserve" text-anchor="middle" x="225.8" y="-146.25" font-family="Helvetica,sans-Serif" font-weight="bold" font-size="13.00">Server</text>
</g>
<!-- ar_web -->
<g id="node2" class="node">
<title>ar_web</title>
<path fill="#c9e7b8" stroke="#7fa968" d="M153.6,-317.2C153.6,-317.2 12,-317.2 12,-317.2 6,-317.2 0,-311.2 0,-305.2 0,-305.2 0,-260.8 0,-260.8 0,-254.8 6,-248.8 12,-248.8 12,-248.8 153.6,-248.8 153.6,-248.8 159.6,-248.8 165.6,-254.8 165.6,-260.8 165.6,-260.8 165.6,-305.2 165.6,-305.2 165.6,-311.2 159.6,-317.2 153.6,-317.2"/>
<text xml:space="preserve" text-anchor="middle" x="82.8" y="-284.15" font-family="Helvetica,sans-Serif" font-weight="bold" font-size="13.00">Website</text>
<text xml:space="preserve" text-anchor="middle" x="82.8" y="-270.65" font-family="Helvetica,sans-Serif" font-weight="bold" font-size="13.00">Deployment</text>
</g>
<!-- n_as&#45;&gt;ar_web -->
<g id="edge1" class="edge">
<title>n_as&#45;&gt;ar_web</title>
<path fill="none" stroke="black" d="M186.72,-193.05C169.38,-207.89 148.82,-225.49 130.57,-241.11"/>
<polygon fill="black" stroke="black" points="128.3,-238.45 122.98,-247.61 132.85,-243.77 128.3,-238.45"/>
<text xml:space="preserve" text-anchor="middle" x="171.71" y="-216.35" font-family="Helvetica,sans-Serif" font-size="11.00">comp</text>
</g>
<!-- web -->
<g id="node3" class="node">
<title>web</title>
<path fill="#d7ecf7" stroke="#4e97be" d="M248.6,-441.6C248.6,-441.6 107,-441.6 107,-441.6 101,-441.6 95,-435.6 95,-429.6 95,-429.6 95,-385.2 95,-385.2 95,-379.2 101,-373.2 107,-373.2 107,-373.2 248.6,-373.2 248.6,-373.2 254.6,-373.2 260.6,-379.2 260.6,-385.2 260.6,-385.2 260.6,-429.6 260.6,-429.6 260.6,-435.6 254.6,-441.6 248.6,-441.6"/>
<text xml:space="preserve" text-anchor="middle" x="177.8" y="-408.55" font-family="Helvetica,sans-Serif" font-weight="bold" font-size="13.00">ArchiTrain</text>
<text xml:space="preserve" text-anchor="middle" x="177.8" y="-395.05" font-family="Helvetica,sans-Serif" font-weight="bold" font-size="13.00">Website</text>
</g>
<!-- n_as&#45;&gt;web -->
<g id="edge3" class="edge">
<title>n_as&#45;&gt;web</title>
<path fill="none" stroke="black" d="M219.28,-193.14C210.78,-236.82 195.9,-313.31 186.47,-361.83"/>
<polygon fill="black" stroke="black" points="183.07,-360.96 184.6,-371.45 189.94,-362.3 183.07,-360.96"/>
<text xml:space="preserve" text-anchor="middle" x="223.51" y="-278.55" font-family="Helvetica,sans-Serif" font-size="11.00">assign</text>
</g>
<!-- ar_web&#45;&gt;web -->
<g id="edge4" class="edge">
<title>ar_web&#45;&gt;web</title>
<path fill="none" stroke="black" d="M108.76,-317.45C119.96,-331.88 133.2,-348.94 145.07,-364.23"/>
<polygon fill="black" stroke="black" points="142.05,-366.04 150.94,-371.8 147.58,-361.75 142.05,-366.04"/>
<text xml:space="preserve" text-anchor="middle" x="142.15" y="-340.75" font-family="Helvetica,sans-Serif" font-size="11.00">real</text>
</g>
<!-- net -->
<g id="node4" class="node">
<title>net</title>
<path fill="#c9e7b8" stroke="#7fa968" d="M405.6,-68.4C405.6,-68.4 264,-68.4 264,-68.4 258,-68.4 252,-62.4 252,-56.4 252,-56.4 252,-12 252,-12 252,-6 258,0 264,0 264,0 405.6,0 405.6,0 411.6,0 417.6,-6 417.6,-12 417.6,-12 417.6,-56.4 417.6,-56.4 417.6,-62.4 411.6,-68.4 405.6,-68.4"/>
<text xml:space="preserve" text-anchor="middle" x="334.8" y="-28.6" font-family="Helvetica,sans-Serif" font-weight="bold" font-size="13.00">Private Network</text>
</g>
<!-- net&#45;&gt;n_as -->
<g id="edge7" class="edge">
<title>net&#45;&gt;n_as</title>
<path fill="none" stroke="black" d="M305.02,-68.65C292.04,-83.22 276.69,-100.45 262.97,-115.86"/>
<polygon fill="black" stroke="black" points="260.59,-113.27 256.56,-123.06 265.82,-117.92 260.59,-113.27"/>
<text xml:space="preserve" text-anchor="middle" x="297.44" y="-91.95" font-family="Helvetica,sans-Serif" font-size="11.00">assoc</text>
</g>
<!-- n_be -->
<g id="node5" class="node">
<title>n_be</title>
<path fill="#c9e7b8" stroke="#7fa968" d="M516.6,-192.8C516.6,-192.8 375,-192.8 375,-192.8 369,-192.8 363,-186.8 363,-180.8 363,-180.8 363,-136.4 363,-136.4 363,-130.4 369,-124.4 375,-124.4 375,-124.4 516.6,-124.4 516.6,-124.4 522.6,-124.4 528.6,-130.4 528.6,-136.4 528.6,-136.4 528.6,-180.8 528.6,-180.8 528.6,-186.8 522.6,-192.8 516.6,-192.8"/>
<text xml:space="preserve" text-anchor="middle" x="445.8" y="-159.75" font-family="Helvetica,sans-Serif" font-weight="bold" font-size="13.00">Journey &amp; Account</text>
<text xml:space="preserve" text-anchor="middle" x="445.8" y="-146.25" font-family="Helvetica,sans-Serif" font-weight="bold" font-size="13.00">Mgmt Backend</text>
</g>
<!-- net&#45;&gt;n_be -->
<g id="edge6" class="edge">
<title>net&#45;&gt;n_be</title>
<path fill="none" stroke="black" d="M365.13,-68.65C378.35,-83.22 393.98,-100.45 407.94,-115.86"/>
<polygon fill="black" stroke="black" points="405.18,-118.02 414.49,-123.07 410.36,-113.31 405.18,-118.02"/>
<text xml:space="preserve" text-anchor="middle" x="407.5" y="-91.95" font-family="Helvetica,sans-Serif" font-size="11.00">assoc</text>
</g>
<!-- fms -->
<g id="node7" class="node">
<title>fms</title>
<path fill="#d7ecf7" stroke="#4e97be" d="M659.6,-317.2C659.6,-317.2 518,-317.2 518,-317.2 512,-317.2 506,-311.2 506,-305.2 506,-305.2 506,-260.8 506,-260.8 506,-254.8 512,-248.8 518,-248.8 518,-248.8 659.6,-248.8 659.6,-248.8 665.6,-248.8 671.6,-254.8 671.6,-260.8 671.6,-260.8 671.6,-305.2 671.6,-305.2 671.6,-311.2 665.6,-317.2 659.6,-317.2"/>
<text xml:space="preserve" text-anchor="middle" x="588.8" y="-284.15" font-family="Helvetica,sans-Serif" font-weight="bold" font-size="13.00">Fare Management</text>
<text xml:space="preserve" text-anchor="middle" x="588.8" y="-270.65" font-family="Helvetica,sans-Serif" font-weight="bold" font-size="13.00">System</text>
</g>
<!-- n_be&#45;&gt;fms -->
<g id="edge2" class="edge">
<title>n_be&#45;&gt;fms</title>
<path fill="none" stroke="black" d="M484.88,-193.05C502.22,-207.89 522.78,-225.49 541.03,-241.11"/>
<polygon fill="black" stroke="black" points="538.75,-243.77 548.62,-247.61 543.3,-238.45 538.75,-243.77"/>
<text xml:space="preserve" text-anchor="middle" x="536.96" y="-216.35" font-family="Helvetica,sans-Serif" font-size="11.00">assign</text>
</g>
<!-- bank -->
<g id="node6" class="node">
<title>bank</title>
<path fill="#d7ecf7" stroke="#4e97be" d="M736.6,-192.8C736.6,-192.8 595,-192.8 595,-192.8 589,-192.8 583,-186.8 583,-180.8 583,-180.8 583,-136.4 583,-136.4 583,-130.4 589,-124.4 595,-124.4 595,-124.4 736.6,-124.4 736.6,-124.4 742.6,-124.4 748.6,-130.4 748.6,-136.4 748.6,-136.4 748.6,-180.8 748.6,-180.8 748.6,-186.8 742.6,-192.8 736.6,-192.8"/>
<text xml:space="preserve" text-anchor="middle" x="665.8" y="-159.75" font-family="Helvetica,sans-Serif" font-weight="bold" font-size="13.00">Bank Payment</text>
<text xml:space="preserve" text-anchor="middle" x="665.8" y="-146.25" font-family="Helvetica,sans-Serif" font-weight="bold" font-size="13.00">Service (ext)</text>
</g>
<!-- bank&#45;&gt;fms -->
<g id="edge5" class="edge">
<title>bank&#45;&gt;fms</title>
<path fill="none" stroke="black" d="M644.76,-193.05C635.85,-207.21 625.35,-223.9 615.87,-238.97"/>
<polygon fill="black" stroke="black" points="612.98,-236.98 610.62,-247.31 618.91,-240.71 612.98,-236.98"/>
<text xml:space="preserve" text-anchor="middle" x="646.86" y="-216.35" font-family="Helvetica,sans-Serif" font-size="11.00">serving</text>
</g>
</g>
</svg>
