<?xml version="1.0" encoding="UTF-8" standalone="no"?>
<!DOCTYPE svg PUBLIC "-//W3C//DTD SVG 1.1//EN"
 "http://www.w3.org/Graphics/SVG/1.1/DTD/svg11.dtd">
<!-- Generated by graphviz version 14.1.4 (20260321.0153)
 -->
<!-- Title: G Pages: 1 -->
<svg width="1054pt" height="574pt"
 viewBox="0.00 0.00 1054.00 574.00" xmlns="http://www.w3.org/2000/svg" xmlns:xlink="http://www.w3.org/1999/xlink">
<g id="graph0" class="graph" transform="scale(1 1) rotate(0) translate(4 570)">
<title>G</title>
<polygon fill="white" stroke="none" points="-4,4 -4,-570 1049.6,-570 1049.6,4 -4,4"/>
<!-- n_be -->
<g id="node1" class="node">
<title>n_be</title>
<path fill="#c9e7b8" stroke="#7fa968" d="M701.6,-68.4C701.6,-68.4 560,-68.4 560,-68.4 554,-68.4 548,-62.4 548,-56.4 548,-56.4 548,-12 548,-12 548,-6 554,0 560,0 560,0 701.6,0 701.6,0 707.6,0 713.6,-6 713.6,-12 713.6,-12 713.6,-56.4 713.6,-56.4 713.6,-62.4 707.6,-68.4 701.6,-68.4"/>
<text xml:space="preserve" text-anchor="middle" x="630.8" y="-35.35" font-family="Helvetica,sans-Serif" font-weight="bold" font-size="13.00">Journey &amp; Account</text>
<text xml:space="preserve" text-anchor="middle" x="630.8" y="-21.85" font-family="Helvetica,sans-Serif" font-weight="bold" font-size="13.00">Mgmt Backend</text>
</g>
<!-- ss_db -->
<g id="node2" class="node">
<title>ss_db</title>
<path fill="#c9e7b8" stroke="#7fa968" d="M400.6,-192.8C400.6,-192.8 259,-192.8 259,-192.8 253,-192.8 247,-186.8 247,-180.8 247,-180.8 247,-136.4 247,-136.4 247,-130.4 253,-124.4 259,-124.4 259,-124.4 400.6,-124.4 400.6,-124.4 406.6,-124.4 412.6,-130.4 412.6,-136.4 412.6,-136.4 412.6,-180.8 412.6,-180.8 412.6,-186.8 406.6,-192.8 400.6,-192.8"/>
<text xml:space="preserve" text-anchor="middle" x="329.8" y="-153" font-family="Helvetica,sans-Serif" font-weight="bold" font-size="13.00">Database (DBMS)</text>
</g>
<!-- n_be&#45;&gt;ss_db -->
<g id="edge1" class="edge">
<title>n_be&#45;&gt;ss_db</title>
<path fill="none" stroke="black" d="M547.98,-51.02C510.21,-59.91 465.54,-72.81 427.55,-90.4 411.61,-97.78 395.44,-107.71 380.96,-117.66"/>
<polygon fill="black" stroke="black" points="379.1,-114.69 372.94,-123.31 383.13,-120.41 379.1,-114.69"/>
<text xml:space="preserve" text-anchor="middle" x="440.67" y="-91.95" font-family="Helvetica,sans-Serif" font-size="11.00">comp</text>
</g>
<!-- ar_db -->
<g id="node4" class="node">
<title>ar_db</title>
<path fill="#c9e7b8" stroke="#7fa968" d="M483.6,-441.6C483.6,-441.6 342,-441.6 342,-441.6 336,-441.6 330,-435.6 330,-429.6 330,-429.6 330,-385.2 330,-385.2 330,-379.2 336,-373.2 342,-373.2 342,-373.2 483.6,-373.2 483.6,-373.2 489.6,-373.2 495.6,-379.2 495.6,-385.2 495.6,-385.2 495.6,-429.6 495.6,-429.6 495.6,-435.6 489.6,-441.6 483.6,-441.6"/>
<text xml:space="preserve" text-anchor="middle" x="412.8" y="-408.55" font-family="Helvetica,sans-Serif" font-weight="bold" font-size="13.00">Journey &amp; Account</text>
<text xml:space="preserve" text-anchor="middle" x="412.8" y="-395.05" font-family="Helvetica,sans-Serif" font-weight="bold" font-size="13.00">Database</text>
</g>
<!-- n_be&#45;&gt;ar_db -->
<g id="edge2" class="edge">
<title>n_be&#45;&gt;ar_db</title>
<path fill="none" stroke="black" d="M611.07,-68.8C571.4,-136.35 482.02,-288.53 438.12,-363.29"/>
<polygon fill="black" stroke="black" points="435.3,-361.18 433.25,-371.58 441.33,-364.72 435.3,-361.18"/>
<text xml:space="preserve" text-anchor="middle" x="537.44" y="-216.35" font-family="Helvetica,sans-Serif" font-size="11.00">comp</text>
</g>
<!-- sv_store -->
<g id="node5" class="node">
<title>sv_store</title>
<path fill="#c9e7b8" stroke="#7fa968" d="M869.6,-192.8C869.6,-192.8 728,-192.8 728,-192.8 722,-192.8 716,-186.8 716,-180.8 716,-180.8 716,-136.4 716,-136.4 716,-130.4 722,-124.4 728,-124.4 728,-124.4 869.6,-124.4 869.6,-124.4 875.6,-124.4 881.6,-130.4 881.6,-136.4 881.6,-136.4 881.6,-180.8 881.6,-180.8 881.6,-186.8 875.6,-192.8 869.6,-192.8"/>
<text xml:space="preserve" text-anchor="middle" x="798.8" y="-159.75" font-family="Helvetica,sans-Serif" font-weight="bold" font-size="13.00">Data Storage</text>
<text xml:space="preserve" text-anchor="middle" x="798.8" y="-146.25" font-family="Helvetica,sans-Serif" font-weight="bold" font-size="13.00">Service</text>
</g>
<!-- n_be&#45;&gt;sv_store -->
<g id="edge6" class="edge">
<title>n_be&#45;&gt;sv_store</title>
<path fill="none" stroke="black" d="M676.71,-68.65C697.36,-83.7 721.92,-101.59 743.57,-117.36"/>
<polygon fill="black" stroke="black" points="741.29,-120.03 751.43,-123.09 745.41,-114.37 741.29,-120.03"/>
<text xml:space="preserve" text-anchor="middle" x="728.84" y="-91.95" font-family="Helvetica,sans-Serif" font-size="11.00">real</text>
</g>
<!-- jams -->
<g id="node6" class="node">
<title>jams</title>
<path fill="#d7ecf7" stroke="#4e97be" d="M758.6,-317.2C758.6,-317.2 617,-317.2 617,-317.2 611,-317.2 605,-311.2 605,-305.2 605,-305.2 605,-260.8 605,-260.8 605,-254.8 611,-248.8 617,-248.8 617,-248.8 758.6,-248.8 758.6,-248.8 764.6,-248.8 770.6,-254.8 770.6,-260.8 770.6,-260.8 770.6,-305.2 770.6,-305.2 770.6,-311.2 764.6,-317.2 758.6,-317.2"/>
<text xml:space="preserve" text-anchor="middle" x="687.8" y="-284.15" font-family="Helvetica,sans-Serif" font-weight="bold" font-size="13.00">Journey &amp; Account</text>
<text xml:space="preserve" text-anchor="middle" x="687.8" y="-270.65" font-family="Helvetica,sans-Serif" font-weight="bold" font-size="13.00">Mgmt System</text>
</g>
<!-- n_be&#45;&gt;jams -->
<g id="edge3" class="edge">
<title>n_be&#45;&gt;jams</title>
<path fill="none" stroke="black" d="M635.1,-68.71C639.57,-100.83 647.41,-150.52 658.05,-192.8 661.8,-207.69 666.8,-223.67 671.64,-237.94"/>
<polygon fill="black" stroke="black" points="668.21,-238.73 674.79,-247.04 674.83,-236.44 668.21,-238.73"/>
<text xml:space="preserve" text-anchor="middle" x="673.42" y="-154.15" font-family="Helvetica,sans-Serif" font-size="11.00">assign</text>
</g>
<!-- fms -->
<g id="node7" class="node">
<title>fms</title>
<path fill="#d7ecf7" stroke="#4e97be" d="M1033.6,-317.2C1033.6,-317.2 892,-317.2 892,-317.2 886,-317.2 880,-311.2 880,-305.2 880,-305.2 880,-260.8 880,-260.8 880,-254.8 886,-248.8 892,-248.8 892,-248.8 1033.6,-248.8 1033.6,-248.8 1039.6,-248.8 1045.6,-254.8 1045.6,-260.8 1045.6,-260.8 1045.6,-305.2 1045.6,-305.2 1045.6,-311.2 1039.6,-317.2 1033.6,-317.2"/>
<text xml:space="preserve" text-anchor="middle" x="962.8" y="-284.15" font-family="Helvetica,sans-Serif" font-weight="bold" font-size="13.00">Fare Management</text>
<text xml:space="preserve" text-anchor="middle" x="962.8" y="-270.65" font-family="Helvetica,sans-Serif" font-weight="bold" font-size="13.00">System</text>
</g>
<!-- n_be&#45;&gt;fms -->
<g id="edge4" class="edge">
<title>n_be&#45;&gt;fms</title>
<path fill="none" stroke="black" d="M713.95,-42.14C775.24,-51.46 856.68,-73.3 908.8,-124.4 939.23,-154.24 952.52,-201.94 958.32,-237.05"/>
<polygon fill="black" stroke="black" points="954.86,-237.56 959.79,-246.94 961.78,-236.53 954.86,-237.56"/>
<text xml:space="preserve" text-anchor="middle" x="962.46" y="-154.15" font-family="Helvetica,sans-Serif" font-size="11.00">assign</text>
</g>
<!-- fn_store -->
<g id="node3" class="node">
<title>fn_store</title>
<path fill="#c9e7b8" stroke="#7fa968" d="M400.6,-317.2C400.6,-317.2 259,-317.2 259,-317.2 253,-317.2 247,-311.2 247,-305.2 247,-305.2 247,-260.8 247,-260.8 247,-254.8 253,-248.8 259,-248.8 259,-248.8 400.6,-248.8 400.6,-248.8 406.6,-248.8 412.6,-254.8 412.6,-260.8 412.6,-260.8 412.6,-305.2 412.6,-305.2 412.6,-311.2 406.6,-317.2 400.6,-317.2"/>
<text xml:space="preserve" text-anchor="middle" x="329.8" y="-284.15" font-family="Helvetica,sans-Serif" font-weight="bold" font-size="13.00">Store Journey</text>
<text xml:space="preserve" text-anchor="middle" x="329.8" y="-270.65" font-family="Helvetica,sans-Serif" font-weight="bold" font-size="13.00">&amp; Account Data</text>
</g>
<!-- ss_db&#45;&gt;fn_store -->
<g id="edge5" class="edge">
<title>ss_db&#45;&gt;fn_store</title>
<path fill="none" stroke="black" d="M329.8,-193.05C329.8,-206.67 329.8,-222.63 329.8,-237.24"/>
<polygon fill="black" stroke="black" points="326.3,-237.08 329.8,-247.08 333.3,-237.08 326.3,-237.08"/>
<text xml:space="preserve" text-anchor="middle" x="345.17" y="-216.35" font-family="Helvetica,sans-Serif" font-size="11.00">assign</text>
</g>
<!-- fn_store&#45;&gt;ar_db -->
<g id="edge13" class="edge">
<title>fn_store&#45;&gt;ar_db</title>
<path fill="none" stroke="black" d="M352.48,-317.45C362.18,-331.75 373.62,-348.62 383.91,-363.8"/>
<polygon fill="black" stroke="black" points="380.79,-365.43 389.3,-371.74 386.58,-361.5 380.79,-365.43"/>
<text xml:space="preserve" text-anchor="middle" x="390.29" y="-340.75" font-family="Helvetica,sans-Serif" font-size="11.00">access</text>
</g>
<!-- do_tap -->
<g id="node8" class="node">
<title>do_tap</title>
<path fill="#d7ecf7" stroke="#4e97be" d="M153.6,-566C153.6,-566 12,-566 12,-566 6,-566 0,-560 0,-554 0,-554 0,-509.6 0,-509.6 0,-503.6 6,-497.6 12,-497.6 12,-497.6 153.6,-497.6 153.6,-497.6 159.6,-497.6 165.6,-503.6 165.6,-509.6 165.6,-509.6 165.6,-554 165.6,-554 165.6,-560 159.6,-566 153.6,-566"/>
<text xml:space="preserve" text-anchor="middle" x="82.8" y="-532.95" font-family="Helvetica,sans-Serif" font-weight="bold" font-size="13.00">Tap Event</text>
<text xml:space="preserve" text-anchor="middle" x="82.8" y="-519.45" font-family="Helvetica,sans-Serif" font-weight="bold" font-size="13.00">Data</text>
</g>
<!-- ar_db&#45;&gt;do_tap -->
<g id="edge7" class="edge">
<title>ar_db&#45;&gt;do_tap</title>
<path fill="none" stroke="black" d="M329.53,-439.29C283.02,-456.54 224.92,-478.09 176.79,-495.94"/>
<polygon fill="black" stroke="black" points="175.62,-492.64 167.47,-499.4 178.06,-499.2 175.62,-492.64"/>
<text xml:space="preserve" text-anchor="middle" x="266.69" y="-465.15" font-family="Helvetica,sans-Serif" font-size="11.00">real</text>
</g>
<!-- do_acct -->
<g id="node9" class="node">
<title>do_acct</title>
<path fill="#d7ecf7" stroke="#4e97be" d="M373.6,-566C373.6,-566 232,-566 232,-566 226,-566 220,-560 220,-554 220,-554 220,-509.6 220,-509.6 220,-503.6 226,-497.6 232,-497.6 232,-497.6 373.6,-497.6 373.6,-497.6 379.6,-497.6 385.6,-503.6 385.6,-509.6 385.6,-509.6 385.6,-554 385.6,-554 385.6,-560 379.6,-566 373.6,-566"/>
<text xml:space="preserve" text-anchor="middle" x="302.8" y="-532.95" font-family="Helvetica,sans-Serif" font-weight="bold" font-size="13.00">Go Card</text>
<text xml:space="preserve" text-anchor="middle" x="302.8" y="-519.45" font-family="Helvetica,sans-Serif" font-weight="bold" font-size="13.00">Account Data</text>
</g>
<!-- ar_db&#45;&gt;do_acct -->
<g id="edge8" class="edge">
<title>ar_db&#45;&gt;do_acct</title>
<path fill="none" stroke="black" d="M382.74,-441.85C369.65,-456.42 354.16,-473.65 340.32,-489.06"/>
<polygon fill="black" stroke="black" points="337.91,-486.49 333.83,-496.27 343.12,-491.17 337.91,-486.49"/>
<text xml:space="preserve" text-anchor="middle" x="370.1" y="-465.15" font-family="Helvetica,sans-Serif" font-size="11.00">real</text>
</g>
<!-- do_fz -->
<g id="node10" class="node">
<title>do_fz</title>
<path fill="#d7ecf7" stroke="#4e97be" d="M593.6,-566C593.6,-566 452,-566 452,-566 446,-566 440,-560 440,-554 440,-554 440,-509.6 440,-509.6 440,-503.6 446,-497.6 452,-497.6 452,-497.6 593.6,-497.6 593.6,-497.6 599.6,-497.6 605.6,-503.6 605.6,-509.6 605.6,-509.6 605.6,-554 605.6,-554 605.6,-560 599.6,-566 593.6,-566"/>
<text xml:space="preserve" text-anchor="middle" x="522.8" y="-532.95" font-family="Helvetica,sans-Serif" font-weight="bold" font-size="13.00">Fare &amp; Zone</text>
<text xml:space="preserve" text-anchor="middle" x="522.8" y="-519.45" font-family="Helvetica,sans-Serif" font-weight="bold" font-size="13.00">Data</text>
</g>
<!-- ar_db&#45;&gt;do_fz -->
<g id="edge9" class="edge">
<title>ar_db&#45;&gt;do_fz</title>
<path fill="none" stroke="black" d="M442.86,-441.85C455.95,-456.42 471.44,-473.65 485.28,-489.06"/>
<polygon fill="black" stroke="black" points="482.48,-491.17 491.77,-496.27 487.69,-486.49 482.48,-491.17"/>
<text xml:space="preserve" text-anchor="middle" x="480.1" y="-465.15" font-family="Helvetica,sans-Serif" font-size="11.00">real</text>
</g>
<!-- do_tic -->
<g id="node11" class="node">
<title>do_tic</title>
<path fill="#d7ecf7" stroke="#4e97be" d="M813.6,-566C813.6,-566 672,-566 672,-566 666,-566 660,-560 660,-554 660,-554 660,-509.6 660,-509.6 660,-503.6 666,-497.6 672,-497.6 672,-497.6 813.6,-497.6 813.6,-497.6 819.6,-497.6 825.6,-503.6 825.6,-509.6 825.6,-509.6 825.6,-554 825.6,-554 825.6,-560 819.6,-566 813.6,-566"/>
<text xml:space="preserve" text-anchor="middle" x="742.8" y="-526.2" font-family="Helvetica,sans-Serif" font-weight="bold" font-size="13.00">Digital Ticket</text>
</g>
<!-- ar_db&#45;&gt;do_tic -->
<g id="edge10" class="edge">
<title>ar_db&#45;&gt;do_tic</title>
<path fill="none" stroke="black" d="M496.07,-439.29C542.58,-456.54 600.68,-478.09 648.81,-495.94"/>
<polygon fill="black" stroke="black" points="647.54,-499.2 658.13,-499.4 649.98,-492.64 647.54,-499.2"/>
<text xml:space="preserve" text-anchor="middle" x="596.69" y="-465.15" font-family="Helvetica,sans-Serif" font-size="11.00">real</text>
</g>
<!-- sv_store&#45;&gt;jams -->
<g id="edge11" class="edge">
<title>sv_store&#45;&gt;jams</title>
<path fill="none" stroke="black" d="M768.47,-193.05C755.25,-207.62 739.62,-224.85 725.66,-240.26"/>
<polygon fill="black" stroke="black" points="723.24,-237.71 719.11,-247.47 728.42,-242.42 723.24,-237.71"/>
<text xml:space="preserve" text-anchor="middle" x="763.88" y="-216.35" font-family="Helvetica,sans-Serif" font-size="11.00">serving</text>
</g>
<!-- sv_store&#45;&gt;fms -->
<g id="edge12" class="edge">
<title>sv_store&#45;&gt;fms</title>
<path fill="none" stroke="black" d="M843.61,-193.05C863.69,-208.03 887.54,-225.83 908.61,-241.55"/>
<polygon fill="black" stroke="black" points="906.44,-244.3 916.54,-247.48 910.62,-238.69 906.44,-244.3"/>
<text xml:space="preserve" text-anchor="middle" x="902.97" y="-216.35" font-family="Helvetica,sans-Serif" font-size="11.00">serving</text>
</g>
</g>
</svg>
