<?xml version="1.0" encoding="UTF-8" standalone="no"?>
<!DOCTYPE svg PUBLIC "-//W3C//DTD SVG 1.1//EN"
 "http://www.w3.org/Graphics/SVG/1.1/DTD/svg11.dtd">
<!-- Generated by graphviz version 14.1.4 (20260321.0153)
 -->
<!-- Title: G Pages: 1 -->
<svg width="2214pt" height="1102pt"
 viewBox="0.00 0.00 2214.00 1102.00" xmlns="http://www.w3.org/2000/svg" xmlns:xlink="http://www.w3.org/1999/xlink">
<g id="graph0" class="graph" transform="scale(1 1) rotate(0) translate(4 1097.6)">
<title>G</title>
<polygon fill="white" stroke="none" points="-4,4 -4,-1097.6 2209.6,-1097.6 2209.6,4 -4,4"/>
<!-- acm -->
<g id="node1" class="node">
<title>acm</title>
<path fill="#d7ecf7" stroke="#4e97be" d="M153.6,-816.8C153.6,-816.8 12,-816.8 12,-816.8 6,-816.8 0,-810.8 0,-804.8 0,-804.8 0,-760.4 0,-760.4 0,-754.4 6,-748.4 12,-748.4 12,-748.4 153.6,-748.4 153.6,-748.4 159.6,-748.4 165.6,-754.4 165.6,-760.4 165.6,-760.4 165.6,-804.8 165.6,-804.8 165.6,-810.8 159.6,-816.8 153.6,-816.8"/>
<text xml:space="preserve" text-anchor="middle" x="82.8" y="-783.75" font-family="Helvetica,sans-Serif" font-weight="bold" font-size="13.00">Access Control</text>
<text xml:space="preserve" text-anchor="middle" x="82.8" y="-770.25" font-family="Helvetica,sans-Serif" font-weight="bold" font-size="13.00">Management</text>
</g>
<!-- jams -->
<g id="node2" class="node">
<title>jams</title>
<path fill="#d7ecf7" stroke="#4e97be" d="M1470.6,-678.4C1470.6,-678.4 1329,-678.4 1329,-678.4 1323,-678.4 1317,-672.4 1317,-666.4 1317,-666.4 1317,-622 1317,-622 1317,-616 1323,-610 1329,-610 1329,-610 1470.6,-610 1470.6,-610 1476.6,-610 1482.6,-616 1482.6,-622 1482.6,-622 1482.6,-666.4 1482.6,-666.4 1482.6,-672.4 1476.6,-678.4 1470.6,-678.4"/>
<text xml:space="preserve" text-anchor="middle" x="1399.8" y="-645.35" font-family="Helvetica,sans-Serif" font-weight="bold" font-size="13.00">Journey &amp; Account</text>
<text xml:space="preserve" text-anchor="middle" x="1399.8" y="-631.85" font-family="Helvetica,sans-Serif" font-weight="bold" font-size="13.00">Mgmt System</text>
</g>
<!-- fms -->
<g id="node3" class="node">
<title>fms</title>
<path fill="#d7ecf7" stroke="#4e97be" d="M1722.6,-678.4C1722.6,-678.4 1581,-678.4 1581,-678.4 1575,-678.4 1569,-672.4 1569,-666.4 1569,-666.4 1569,-622 1569,-622 1569,-616 1575,-610 1581,-610 1581,-610 1722.6,-610 1722.6,-610 1728.6,-610 1734.6,-616 1734.6,-622 1734.6,-622 1734.6,-666.4 1734.6,-666.4 1734.6,-672.4 1728.6,-678.4 1722.6,-678.4"/>
<text xml:space="preserve" text-anchor="middle" x="1651.8" y="-645.35" font-family="Helvetica,sans-Serif" font-weight="bold" font-size="13.00">Fare Management</text>
<text xml:space="preserve" text-anchor="middle" x="1651.8" y="-631.85" font-family="Helvetica,sans-Serif" font-weight="bold" font-size="13.00">System</text>
</g>
<!-- web -->
<g id="node4" class="node">
<title>web</title>
<path fill="#d7ecf7" stroke="#4e97be" d="M2150.6,-483.6C2150.6,-483.6 2009,-483.6 2009,-483.6 2003,-483.6 1997,-477.6 1997,-471.6 1997,-471.6 1997,-427.2 1997,-427.2 1997,-421.2 2003,-415.2 2009,-415.2 2009,-415.2 2150.6,-415.2 2150.6,-415.2 2156.6,-415.2 2162.6,-421.2 2162.6,-427.2 2162.6,-427.2 2162.6,-471.6 2162.6,-471.6 2162.6,-477.6 2156.6,-483.6 2150.6,-483.6"/>
<text xml:space="preserve" text-anchor="middle" x="2079.8" y="-450.55" font-family="Helvetica,sans-Serif" font-weight="bold" font-size="13.00">ArchiTrain</text>
<text xml:space="preserve" text-anchor="middle" x="2079.8" y="-437.05" font-family="Helvetica,sans-Serif" font-weight="bold" font-size="13.00">Website</text>
</g>
<!-- bank -->
<g id="node5" class="node">
<title>bank</title>
<path fill="#d7ecf7" stroke="#4e97be" d="M1722.6,-483.6C1722.6,-483.6 1581,-483.6 1581,-483.6 1575,-483.6 1569,-477.6 1569,-471.6 1569,-471.6 1569,-427.2 1569,-427.2 1569,-421.2 1575,-415.2 1581,-415.2 1581,-415.2 1722.6,-415.2 1722.6,-415.2 1728.6,-415.2 1734.6,-421.2 1734.6,-427.2 1734.6,-427.2 1734.6,-471.6 1734.6,-471.6 1734.6,-477.6 1728.6,-483.6 1722.6,-483.6"/>
<text xml:space="preserve" text-anchor="middle" x="1651.8" y="-450.55" font-family="Helvetica,sans-Serif" font-weight="bold" font-size="13.00">Bank Payment</text>
<text xml:space="preserve" text-anchor="middle" x="1651.8" y="-437.05" font-family="Helvetica,sans-Serif" font-weight="bold" font-size="13.00">Service (ext)</text>
</g>
<!-- bank&#45;&gt;fms -->
<g id="edge27" class="edge">
<title>bank&#45;&gt;fms</title>
<path fill="none" stroke="black" d="M1651.8,-483.98C1651.8,-515.68 1651.8,-563.42 1651.8,-598.36"/>
<polygon fill="black" stroke="black" points="1648.3,-598.17 1651.8,-608.17 1655.3,-598.17 1648.3,-598.17"/>
<text xml:space="preserve" text-anchor="middle" x="1669.05" y="-542.35" font-family="Helvetica,sans-Serif" font-size="11.00">serving</text>
</g>
<!-- do_tap -->
<g id="node6" class="node">
<title>do_tap</title>
<path fill="#d7ecf7" stroke="#4e97be" d="M1304.6,-1093.6C1304.6,-1093.6 1163,-1093.6 1163,-1093.6 1157,-1093.6 1151,-1087.6 1151,-1081.6 1151,-1081.6 1151,-1037.2 1151,-1037.2 1151,-1031.2 1157,-1025.2 1163,-1025.2 1163,-1025.2 1304.6,-1025.2 1304.6,-1025.2 1310.6,-1025.2 1316.6,-1031.2 1316.6,-1037.2 1316.6,-1037.2 1316.6,-1081.6 1316.6,-1081.6 1316.6,-1087.6 1310.6,-1093.6 1304.6,-1093.6"/>
<text xml:space="preserve" text-anchor="middle" x="1233.8" y="-1060.55" font-family="Helvetica,sans-Serif" font-weight="bold" font-size="13.00">Tap Event</text>
<text xml:space="preserve" text-anchor="middle" x="1233.8" y="-1047.05" font-family="Helvetica,sans-Serif" font-weight="bold" font-size="13.00">Data</text>
</g>
<!-- do_acct -->
<g id="node7" class="node">
<title>do_acct</title>
<path fill="#d7ecf7" stroke="#4e97be" d="M1513.6,-1093.6C1513.6,-1093.6 1372,-1093.6 1372,-1093.6 1366,-1093.6 1360,-1087.6 1360,-1081.6 1360,-1081.6 1360,-1037.2 1360,-1037.2 1360,-1031.2 1366,-1025.2 1372,-1025.2 1372,-1025.2 1513.6,-1025.2 1513.6,-1025.2 1519.6,-1025.2 1525.6,-1031.2 1525.6,-1037.2 1525.6,-1037.2 1525.6,-1081.6 1525.6,-1081.6 1525.6,-1087.6 1519.6,-1093.6 1513.6,-1093.6"/>
<text xml:space="preserve" text-anchor="middle" x="1442.8" y="-1060.55" font-family="Helvetica,sans-Serif" font-weight="bold" font-size="13.00">Go Card</text>
<text xml:space="preserve" text-anchor="middle" x="1442.8" y="-1047.05" font-family="Helvetica,sans-Serif" font-weight="bold" font-size="13.00">Account Data</text>
</g>
<!-- do_fz -->
<g id="node8" class="node">
<title>do_fz</title>
<path fill="#d7ecf7" stroke="#4e97be" d="M1722.6,-1093.6C1722.6,-1093.6 1581,-1093.6 1581,-1093.6 1575,-1093.6 1569,-1087.6 1569,-1081.6 1569,-1081.6 1569,-1037.2 1569,-1037.2 1569,-1031.2 1575,-1025.2 1581,-1025.2 1581,-1025.2 1722.6,-1025.2 1722.6,-1025.2 1728.6,-1025.2 1734.6,-1031.2 1734.6,-1037.2 1734.6,-1037.2 1734.6,-1081.6 1734.6,-1081.6 1734.6,-1087.6 1728.6,-1093.6 1722.6,-1093.6"/>
<text xml:space="preserve" text-anchor="middle" x="1651.8" y="-1060.55" font-family="Helvetica,sans-Serif" font-weight="bold" font-size="13.00">Fare &amp; Zone</text>
<text xml:space="preserve" text-anchor="middle" x="1651.8" y="-1047.05" font-family="Helvetica,sans-Serif" font-weight="bold" font-size="13.00">Data</text>
</g>
<!-- do_tic -->
<g id="node9" class="node">
<title>do_tic</title>
<path fill="#d7ecf7" stroke="#4e97be" d="M1931.6,-1093.6C1931.6,-1093.6 1790,-1093.6 1790,-1093.6 1784,-1093.6 1778,-1087.6 1778,-1081.6 1778,-1081.6 1778,-1037.2 1778,-1037.2 1778,-1031.2 1784,-1025.2 1790,-1025.2 1790,-1025.2 1931.6,-1025.2 1931.6,-1025.2 1937.6,-1025.2 1943.6,-1031.2 1943.6,-1037.2 1943.6,-1037.2 1943.6,-1081.6 1943.6,-1081.6 1943.6,-1087.6 1937.6,-1093.6 1931.6,-1093.6"/>
<text xml:space="preserve" text-anchor="middle" x="1860.8" y="-1053.8" font-family="Helvetica,sans-Serif" font-weight="bold" font-size="13.00">Digital Ticket</text>
</g>
<!-- n_si -->
<g id="node10" class="node">
<title>n_si</title>
<path fill="#c9e7b8" stroke="#7fa968" d="M565.6,-206.8C565.6,-206.8 424,-206.8 424,-206.8 418,-206.8 412,-200.8 412,-194.8 412,-194.8 412,-150.4 412,-150.4 412,-144.4 418,-138.4 424,-138.4 424,-138.4 565.6,-138.4 565.6,-138.4 571.6,-138.4 577.6,-144.4 577.6,-150.4 577.6,-150.4 577.6,-194.8 577.6,-194.8 577.6,-200.8 571.6,-206.8 565.6,-206.8"/>
<text xml:space="preserve" text-anchor="middle" x="494.8" y="-173.75" font-family="Helvetica,sans-Serif" font-weight="bold" font-size="13.00">Station</text>
<text xml:space="preserve" text-anchor="middle" x="494.8" y="-160.25" font-family="Helvetica,sans-Serif" font-weight="bold" font-size="13.00">Infrastructure</text>
</g>
<!-- d_gate -->
<g id="node13" class="node">
<title>d_gate</title>
<path fill="#c9e7b8" stroke="#7fa968" d="M565.6,-345.2C565.6,-345.2 424,-345.2 424,-345.2 418,-345.2 412,-339.2 412,-333.2 412,-333.2 412,-288.8 412,-288.8 412,-282.8 418,-276.8 424,-276.8 424,-276.8 565.6,-276.8 565.6,-276.8 571.6,-276.8 577.6,-282.8 577.6,-288.8 577.6,-288.8 577.6,-333.2 577.6,-333.2 577.6,-339.2 571.6,-345.2 565.6,-345.2"/>
<text xml:space="preserve" text-anchor="middle" x="494.8" y="-305.4" font-family="Helvetica,sans-Serif" font-weight="bold" font-size="13.00">Station Gate</text>
</g>
<!-- n_si&#45;&gt;d_gate -->
<g id="edge1" class="edge">
<title>n_si&#45;&gt;d_gate</title>
<path fill="none" stroke="black" d="M494.8,-206.97C494.8,-224.47 494.8,-246.16 494.8,-265.12"/>
<polygon fill="black" stroke="black" points="491.3,-264.99 494.8,-274.99 498.3,-264.99 491.3,-264.99"/>
<text xml:space="preserve" text-anchor="middle" x="507.92" y="-237.35" font-family="Helvetica,sans-Serif" font-size="11.00">comp</text>
</g>
<!-- d_pnfc -->
<g id="node15" class="node">
<title>d_pnfc</title>
<path fill="#c9e7b8" stroke="#7fa968" d="M264.6,-483.6C264.6,-483.6 123,-483.6 123,-483.6 117,-483.6 111,-477.6 111,-471.6 111,-471.6 111,-427.2 111,-427.2 111,-421.2 117,-415.2 123,-415.2 123,-415.2 264.6,-415.2 264.6,-415.2 270.6,-415.2 276.6,-421.2 276.6,-427.2 276.6,-427.2 276.6,-471.6 276.6,-471.6 276.6,-477.6 270.6,-483.6 264.6,-483.6"/>
<text xml:space="preserve" text-anchor="middle" x="193.8" y="-450.55" font-family="Helvetica,sans-Serif" font-weight="bold" font-size="13.00">Platform</text>
<text xml:space="preserve" text-anchor="middle" x="193.8" y="-437.05" font-family="Helvetica,sans-Serif" font-weight="bold" font-size="13.00">NFC Reader</text>
</g>
<!-- n_si&#45;&gt;d_pnfc -->
<g id="edge2" class="edge">
<title>n_si&#45;&gt;d_pnfc</title>
<path fill="none" stroke="black" d="M449.73,-207.21C424.15,-226.81 391.88,-252.39 364.55,-276.8 317.25,-319.04 266.38,-371.11 232.59,-406.74"/>
<polygon fill="black" stroke="black" points="230.17,-404.21 225.84,-413.88 235.25,-409.02 230.17,-404.21"/>
<text xml:space="preserve" text-anchor="middle" x="377.67" y="-306.55" font-family="Helvetica,sans-Serif" font-size="11.00">comp</text>
</g>
<!-- n_be -->
<g id="node11" class="node">
<title>n_be</title>
<path fill="#c9e7b8" stroke="#7fa968" d="M1396.6,-345.2C1396.6,-345.2 1255,-345.2 1255,-345.2 1249,-345.2 1243,-339.2 1243,-333.2 1243,-333.2 1243,-288.8 1243,-288.8 1243,-282.8 1249,-276.8 1255,-276.8 1255,-276.8 1396.6,-276.8 1396.6,-276.8 1402.6,-276.8 1408.6,-282.8 1408.6,-288.8 1408.6,-288.8 1408.6,-333.2 1408.6,-333.2 1408.6,-339.2 1402.6,-345.2 1396.6,-345.2"/>
<text xml:space="preserve" text-anchor="middle" x="1325.8" y="-312.15" font-family="Helvetica,sans-Serif" font-weight="bold" font-size="13.00">Journey &amp; Account</text>
<text xml:space="preserve" text-anchor="middle" x="1325.8" y="-298.65" font-family="Helvetica,sans-Serif" font-weight="bold" font-size="13.00">Mgmt Backend</text>
</g>
<!-- n_be&#45;&gt;jams -->
<g id="edge10" class="edge">
<title>n_be&#45;&gt;jams</title>
<path fill="none" stroke="black" d="M1315.32,-345.46C1305.97,-380.46 1295.54,-436.72 1308.05,-483.6 1319.52,-526.56 1345.61,-569.95 1367.05,-600.63"/>
<polygon fill="black" stroke="black" points="1364.01,-602.38 1372.66,-608.49 1369.71,-598.32 1364.01,-602.38"/>
<text xml:space="preserve" text-anchor="middle" x="1323.42" y="-444.95" font-family="Helvetica,sans-Serif" font-size="11.00">assign</text>
</g>
<!-- n_be&#45;&gt;fms -->
<g id="edge11" class="edge">
<title>n_be&#45;&gt;fms</title>
<path fill="none" stroke="black" d="M1408.98,-319.91C1521.6,-332.53 1713.44,-361.47 1755.8,-415.2 1801.12,-472.69 1741.94,-553.11 1696.04,-601.47"/>
<polygon fill="black" stroke="black" points="1693.73,-598.83 1689.29,-608.45 1698.76,-603.7 1693.73,-598.83"/>
<text xml:space="preserve" text-anchor="middle" x="1787.41" y="-444.95" font-family="Helvetica,sans-Serif" font-size="11.00">assign</text>
</g>
<!-- ss_db -->
<g id="node18" class="node">
<title>ss_db</title>
<path fill="#c9e7b8" stroke="#7fa968" d="M1246.6,-581C1246.6,-581 1105,-581 1105,-581 1099,-581 1093,-575 1093,-569 1093,-569 1093,-524.6 1093,-524.6 1093,-518.6 1099,-512.6 1105,-512.6 1105,-512.6 1246.6,-512.6 1246.6,-512.6 1252.6,-512.6 1258.6,-518.6 1258.6,-524.6 1258.6,-524.6 1258.6,-569 1258.6,-569 1258.6,-575 1252.6,-581 1246.6,-581"/>
<text xml:space="preserve" text-anchor="middle" x="1175.8" y="-541.2" font-family="Helvetica,sans-Serif" font-weight="bold" font-size="13.00">Database (DBMS)</text>
</g>
<!-- n_be&#45;&gt;ss_db -->
<g id="edge5" class="edge">
<title>n_be&#45;&gt;ss_db</title>
<path fill="none" stroke="black" d="M1258.1,-345.68C1246.68,-353.76 1235.85,-363.27 1227.55,-374.2 1199.23,-411.48 1186.33,-464.2 1180.5,-501.34"/>
<polygon fill="black" stroke="black" points="1177.09,-500.44 1179.12,-510.84 1184.02,-501.44 1177.09,-500.44"/>
<text xml:space="preserve" text-anchor="middle" x="1240.67" y="-375.75" font-family="Helvetica,sans-Serif" font-size="11.00">comp</text>
</g>
<!-- sv_store -->
<g id="node21" class="node">
<title>sv_store</title>
<path fill="#c9e7b8" stroke="#7fa968" d="M1513.6,-483.6C1513.6,-483.6 1372,-483.6 1372,-483.6 1366,-483.6 1360,-477.6 1360,-471.6 1360,-471.6 1360,-427.2 1360,-427.2 1360,-421.2 1366,-415.2 1372,-415.2 1372,-415.2 1513.6,-415.2 1513.6,-415.2 1519.6,-415.2 1525.6,-421.2 1525.6,-427.2 1525.6,-427.2 1525.6,-471.6 1525.6,-471.6 1525.6,-477.6 1519.6,-483.6 1513.6,-483.6"/>
<text xml:space="preserve" text-anchor="middle" x="1442.8" y="-450.55" font-family="Helvetica,sans-Serif" font-weight="bold" font-size="13.00">Data Storage</text>
<text xml:space="preserve" text-anchor="middle" x="1442.8" y="-437.05" font-family="Helvetica,sans-Serif" font-weight="bold" font-size="13.00">Service</text>
</g>
<!-- n_be&#45;&gt;sv_store -->
<g id="edge15" class="edge">
<title>n_be&#45;&gt;sv_store</title>
<path fill="none" stroke="black" d="M1354.42,-345.37C1370.14,-363.7 1389.8,-386.62 1406.58,-406.18"/>
<polygon fill="black" stroke="black" points="1403.92,-408.44 1413.08,-413.76 1409.23,-403.89 1403.92,-408.44"/>
<text xml:space="preserve" text-anchor="middle" x="1396.81" y="-375.75" font-family="Helvetica,sans-Serif" font-size="11.00">real</text>
</g>
<!-- ar_db -->
<g id="node25" class="node">
<title>ar_db</title>
<path fill="#c9e7b8" stroke="#7fa968" d="M1617.6,-955.2C1617.6,-955.2 1476,-955.2 1476,-955.2 1470,-955.2 1464,-949.2 1464,-943.2 1464,-943.2 1464,-898.8 1464,-898.8 1464,-892.8 1470,-886.8 1476,-886.8 1476,-886.8 1617.6,-886.8 1617.6,-886.8 1623.6,-886.8 1629.6,-892.8 1629.6,-898.8 1629.6,-898.8 1629.6,-943.2 1629.6,-943.2 1629.6,-949.2 1623.6,-955.2 1617.6,-955.2"/>
<text xml:space="preserve" text-anchor="middle" x="1546.8" y="-922.15" font-family="Helvetica,sans-Serif" font-weight="bold" font-size="13.00">Journey &amp; Account</text>
<text xml:space="preserve" text-anchor="middle" x="1546.8" y="-908.65" font-family="Helvetica,sans-Serif" font-weight="bold" font-size="13.00">Database</text>
</g>
<!-- n_be&#45;&gt;ar_db -->
<g id="edge6" class="edge">
<title>n_be&#45;&gt;ar_db</title>
<path fill="none" stroke="black" d="M1408.91,-314C1571.69,-320.17 1916.8,-345.4 1916.8,-448.4 1916.8,-448.4 1916.8,-448.4 1916.8,-783.6 1916.8,-842.34 1750.54,-883.62 1640.92,-904.45"/>
<polygon fill="black" stroke="black" points="1640.51,-900.97 1631.32,-906.25 1641.8,-907.85 1640.51,-900.97"/>
<text xml:space="preserve" text-anchor="middle" x="1929.92" y="-639.75" font-family="Helvetica,sans-Serif" font-size="11.00">comp</text>
</g>
<!-- n_as -->
<g id="node12" class="node">
<title>n_as</title>
<path fill="#c9e7b8" stroke="#7fa968" d="M2036.6,-206.8C2036.6,-206.8 1895,-206.8 1895,-206.8 1889,-206.8 1883,-200.8 1883,-194.8 1883,-194.8 1883,-150.4 1883,-150.4 1883,-144.4 1889,-138.4 1895,-138.4 1895,-138.4 2036.6,-138.4 2036.6,-138.4 2042.6,-138.4 2048.6,-144.4 2048.6,-150.4 2048.6,-150.4 2048.6,-194.8 2048.6,-194.8 2048.6,-200.8 2042.6,-206.8 2036.6,-206.8"/>
<text xml:space="preserve" text-anchor="middle" x="1965.8" y="-173.75" font-family="Helvetica,sans-Serif" font-weight="bold" font-size="13.00">Application</text>
<text xml:space="preserve" text-anchor="middle" x="1965.8" y="-160.25" font-family="Helvetica,sans-Serif" font-weight="bold" font-size="13.00">Server</text>
</g>
<!-- n_as&#45;&gt;web -->
<g id="edge12" class="edge">
<title>n_as&#45;&gt;web</title>
<path fill="none" stroke="black" d="M1964.43,-207.12C1964.25,-242.91 1967.67,-300.51 1988.05,-345.2 1998.57,-368.28 2016.07,-389.91 2032.98,-407.34"/>
<polygon fill="black" stroke="black" points="2030.06,-409.38 2039.61,-413.98 2035.01,-404.43 2030.06,-409.38"/>
<text xml:space="preserve" text-anchor="middle" x="2003.42" y="-306.55" font-family="Helvetica,sans-Serif" font-size="11.00">assign</text>
</g>
<!-- ar_web -->
<g id="node26" class="node">
<title>ar_web</title>
<path fill="#c9e7b8" stroke="#7fa968" d="M2193.6,-345.2C2193.6,-345.2 2052,-345.2 2052,-345.2 2046,-345.2 2040,-339.2 2040,-333.2 2040,-333.2 2040,-288.8 2040,-288.8 2040,-282.8 2046,-276.8 2052,-276.8 2052,-276.8 2193.6,-276.8 2193.6,-276.8 2199.6,-276.8 2205.6,-282.8 2205.6,-288.8 2205.6,-288.8 2205.6,-333.2 2205.6,-333.2 2205.6,-339.2 2199.6,-345.2 2193.6,-345.2"/>
<text xml:space="preserve" text-anchor="middle" x="2122.8" y="-312.15" font-family="Helvetica,sans-Serif" font-weight="bold" font-size="13.00">Website</text>
<text xml:space="preserve" text-anchor="middle" x="2122.8" y="-298.65" font-family="Helvetica,sans-Serif" font-weight="bold" font-size="13.00">Deployment</text>
</g>
<!-- n_as&#45;&gt;ar_web -->
<g id="edge7" class="edge">
<title>n_as&#45;&gt;ar_web</title>
<path fill="none" stroke="black" d="M2004.21,-206.97C2025.78,-225.71 2052.88,-249.25 2075.72,-269.1"/>
<polygon fill="black" stroke="black" points="2073.26,-271.6 2083.1,-275.51 2077.85,-266.31 2073.26,-271.6"/>
<text xml:space="preserve" text-anchor="middle" x="2062.13" y="-237.35" font-family="Helvetica,sans-Serif" font-size="11.00">comp</text>
</g>
<!-- d_gate&#45;&gt;acm -->
<g id="edge9" class="edge">
<title>d_gate&#45;&gt;acm</title>
<path fill="none" stroke="black" d="M411.68,-341.94C408.01,-343.08 404.38,-344.17 400.8,-345.2 264.66,-384.42 179.36,-305.41 89.8,-415.2 14.35,-507.7 45.73,-661.42 67.88,-736.94"/>
<polygon fill="black" stroke="black" points="64.52,-737.92 70.77,-746.48 71.22,-735.9 64.52,-737.92"/>
<text xml:space="preserve" text-anchor="middle" x="62.7" y="-542.35" font-family="Helvetica,sans-Serif" font-size="11.00">assign</text>
</g>
<!-- d_nfc -->
<g id="node14" class="node">
<title>d_nfc</title>
<path fill="#c9e7b8" stroke="#7fa968" d="M682.6,-483.6C682.6,-483.6 541,-483.6 541,-483.6 535,-483.6 529,-477.6 529,-471.6 529,-471.6 529,-427.2 529,-427.2 529,-421.2 535,-415.2 541,-415.2 541,-415.2 682.6,-415.2 682.6,-415.2 688.6,-415.2 694.6,-421.2 694.6,-427.2 694.6,-427.2 694.6,-471.6 694.6,-471.6 694.6,-477.6 688.6,-483.6 682.6,-483.6"/>
<text xml:space="preserve" text-anchor="middle" x="611.8" y="-450.55" font-family="Helvetica,sans-Serif" font-weight="bold" font-size="13.00">NFC Reader</text>
<text xml:space="preserve" text-anchor="middle" x="611.8" y="-437.05" font-family="Helvetica,sans-Serif" font-weight="bold" font-size="13.00">(embedded)</text>
</g>
<!-- d_gate&#45;&gt;d_nfc -->
<g id="edge3" class="edge">
<title>d_gate&#45;&gt;d_nfc</title>
<path fill="none" stroke="black" d="M495.69,-345.69C497.45,-359.27 501.35,-374.47 509.55,-386.2 515.22,-394.3 522.31,-401.54 530.1,-407.96"/>
<polygon fill="black" stroke="black" points="527.88,-410.67 537.96,-413.94 532.12,-405.1 527.88,-410.67"/>
<text xml:space="preserve" text-anchor="middle" x="522.67" y="-375.75" font-family="Helvetica,sans-Serif" font-size="11.00">comp</text>
</g>
<!-- ss_fw -->
<g id="node19" class="node">
<title>ss_fw</title>
<path fill="#c9e7b8" stroke="#7fa968" d="M473.6,-483.6C473.6,-483.6 332,-483.6 332,-483.6 326,-483.6 320,-477.6 320,-471.6 320,-471.6 320,-427.2 320,-427.2 320,-421.2 326,-415.2 332,-415.2 332,-415.2 473.6,-415.2 473.6,-415.2 479.6,-415.2 485.6,-421.2 485.6,-427.2 485.6,-427.2 485.6,-471.6 485.6,-471.6 485.6,-477.6 479.6,-483.6 473.6,-483.6"/>
<text xml:space="preserve" text-anchor="middle" x="402.8" y="-450.55" font-family="Helvetica,sans-Serif" font-weight="bold" font-size="13.00">Gate Firmware /</text>
<text xml:space="preserve" text-anchor="middle" x="402.8" y="-437.05" font-family="Helvetica,sans-Serif" font-weight="bold" font-size="13.00">Access Ctrl Client</text>
</g>
<!-- d_gate&#45;&gt;ss_fw -->
<g id="edge4" class="edge">
<title>d_gate&#45;&gt;ss_fw</title>
<path fill="none" stroke="black" d="M447.41,-345.54C438.08,-353.99 429.14,-363.68 422.55,-374.2 416.93,-383.16 412.9,-393.69 410.01,-403.95"/>
<polygon fill="black" stroke="black" points="406.67,-402.89 407.67,-413.44 413.46,-404.57 406.67,-402.89"/>
<text xml:space="preserve" text-anchor="middle" x="435.67" y="-375.75" font-family="Helvetica,sans-Serif" font-size="11.00">comp</text>
</g>
<!-- if_nfc -->
<g id="node20" class="node">
<title>if_nfc</title>
<path fill="#c9e7b8" stroke="#7fa968" d="M682.6,-678.4C682.6,-678.4 541,-678.4 541,-678.4 535,-678.4 529,-672.4 529,-666.4 529,-666.4 529,-622 529,-622 529,-616 535,-610 541,-610 541,-610 682.6,-610 682.6,-610 688.6,-610 694.6,-616 694.6,-622 694.6,-622 694.6,-666.4 694.6,-666.4 694.6,-672.4 688.6,-678.4 682.6,-678.4"/>
<text xml:space="preserve" text-anchor="middle" x="611.8" y="-638.6" font-family="Helvetica,sans-Serif" font-weight="bold" font-size="13.00">NFC Interface</text>
</g>
<!-- d_nfc&#45;&gt;if_nfc -->
<g id="edge8" class="edge">
<title>d_nfc&#45;&gt;if_nfc</title>
<path fill="none" stroke="black" d="M611.8,-483.98C611.8,-515.68 611.8,-563.42 611.8,-598.36"/>
<polygon fill="black" stroke="black" points="608.3,-598.17 611.8,-608.17 615.3,-598.17 608.3,-598.17"/>
<text xml:space="preserve" text-anchor="middle" x="624.92" y="-542.35" font-family="Helvetica,sans-Serif" font-size="11.00">comp</text>
</g>
<!-- sv_nfc -->
<g id="node22" class="node">
<title>sv_nfc</title>
<path fill="#c9e7b8" stroke="#7fa968" d="M264.6,-678.4C264.6,-678.4 123,-678.4 123,-678.4 117,-678.4 111,-672.4 111,-666.4 111,-666.4 111,-622 111,-622 111,-616 117,-610 123,-610 123,-610 264.6,-610 264.6,-610 270.6,-610 276.6,-616 276.6,-622 276.6,-622 276.6,-666.4 276.6,-666.4 276.6,-672.4 270.6,-678.4 264.6,-678.4"/>
<text xml:space="preserve" text-anchor="middle" x="193.8" y="-645.35" font-family="Helvetica,sans-Serif" font-weight="bold" font-size="13.00">NFC Proximity</text>
<text xml:space="preserve" text-anchor="middle" x="193.8" y="-631.85" font-family="Helvetica,sans-Serif" font-weight="bold" font-size="13.00">Comm Service</text>
</g>
<!-- d_nfc&#45;&gt;sv_nfc -->
<g id="edge16" class="edge">
<title>d_nfc&#45;&gt;sv_nfc</title>
<path fill="none" stroke="black" d="M578.61,-483.93C546.8,-514.05 496.04,-557.1 443.8,-581 384.04,-608.34 362.45,-593.62 298.8,-610 295.24,-610.92 291.61,-611.88 287.96,-612.89"/>
<polygon fill="black" stroke="black" points="287.08,-609.5 278.41,-615.59 288.98,-616.24 287.08,-609.5"/>
<text xml:space="preserve" text-anchor="middle" x="553.26" y="-542.35" font-family="Helvetica,sans-Serif" font-size="11.00">real</text>
</g>
<!-- d_pnfc&#45;&gt;sv_nfc -->
<g id="edge17" class="edge">
<title>d_pnfc&#45;&gt;sv_nfc</title>
<path fill="none" stroke="black" d="M193.8,-483.98C193.8,-515.68 193.8,-563.42 193.8,-598.36"/>
<polygon fill="black" stroke="black" points="190.3,-598.17 193.8,-608.17 197.3,-598.17 190.3,-598.17"/>
<text xml:space="preserve" text-anchor="middle" x="202.8" y="-542.35" font-family="Helvetica,sans-Serif" font-size="11.00">real</text>
</g>
<!-- d_card -->
<g id="node16" class="node">
<title>d_card</title>
<path fill="#c9e7b8" stroke="#7fa968" d="M891.6,-483.6C891.6,-483.6 750,-483.6 750,-483.6 744,-483.6 738,-477.6 738,-471.6 738,-471.6 738,-427.2 738,-427.2 738,-421.2 744,-415.2 750,-415.2 750,-415.2 891.6,-415.2 891.6,-415.2 897.6,-415.2 903.6,-421.2 903.6,-427.2 903.6,-427.2 903.6,-471.6 903.6,-471.6 903.6,-477.6 897.6,-483.6 891.6,-483.6"/>
<text xml:space="preserve" text-anchor="middle" x="820.8" y="-443.8" font-family="Helvetica,sans-Serif" font-weight="bold" font-size="13.00">Go Card</text>
</g>
<!-- d_wallet -->
<g id="node17" class="node">
<title>d_wallet</title>
<path fill="#c9e7b8" stroke="#7fa968" d="M1100.6,-483.6C1100.6,-483.6 959,-483.6 959,-483.6 953,-483.6 947,-477.6 947,-471.6 947,-471.6 947,-427.2 947,-427.2 947,-421.2 953,-415.2 959,-415.2 959,-415.2 1100.6,-415.2 1100.6,-415.2 1106.6,-415.2 1112.6,-421.2 1112.6,-427.2 1112.6,-427.2 1112.6,-471.6 1112.6,-471.6 1112.6,-477.6 1106.6,-483.6 1100.6,-483.6"/>
<text xml:space="preserve" text-anchor="middle" x="1029.8" y="-450.55" font-family="Helvetica,sans-Serif" font-weight="bold" font-size="13.00">Mobile Wallet /</text>
<text xml:space="preserve" text-anchor="middle" x="1029.8" y="-437.05" font-family="Helvetica,sans-Serif" font-weight="bold" font-size="13.00">Bank Card</text>
</g>
<!-- fn_store -->
<g id="node23" class="node">
<title>fn_store</title>
<path fill="#c9e7b8" stroke="#7fa968" d="M1246.6,-816.8C1246.6,-816.8 1105,-816.8 1105,-816.8 1099,-816.8 1093,-810.8 1093,-804.8 1093,-804.8 1093,-760.4 1093,-760.4 1093,-754.4 1099,-748.4 1105,-748.4 1105,-748.4 1246.6,-748.4 1246.6,-748.4 1252.6,-748.4 1258.6,-754.4 1258.6,-760.4 1258.6,-760.4 1258.6,-804.8 1258.6,-804.8 1258.6,-810.8 1252.6,-816.8 1246.6,-816.8"/>
<text xml:space="preserve" text-anchor="middle" x="1175.8" y="-783.75" font-family="Helvetica,sans-Serif" font-weight="bold" font-size="13.00">Store Journey</text>
<text xml:space="preserve" text-anchor="middle" x="1175.8" y="-770.25" font-family="Helvetica,sans-Serif" font-weight="bold" font-size="13.00">&amp; Account Data</text>
</g>
<!-- ss_db&#45;&gt;fn_store -->
<g id="edge13" class="edge">
<title>ss_db&#45;&gt;fn_store</title>
<path fill="none" stroke="black" d="M1175.8,-581.3C1175.8,-622.18 1175.8,-691.47 1175.8,-736.88"/>
<polygon fill="black" stroke="black" points="1172.3,-736.65 1175.8,-746.65 1179.3,-736.65 1172.3,-736.65"/>
<text xml:space="preserve" text-anchor="middle" x="1191.17" y="-639.75" font-family="Helvetica,sans-Serif" font-size="11.00">assign</text>
</g>
<!-- fn_hs -->
<g id="node24" class="node">
<title>fn_hs</title>
<path fill="#c9e7b8" stroke="#7fa968" d="M473.6,-678.4C473.6,-678.4 332,-678.4 332,-678.4 326,-678.4 320,-672.4 320,-666.4 320,-666.4 320,-622 320,-622 320,-616 326,-610 332,-610 332,-610 473.6,-610 473.6,-610 479.6,-610 485.6,-616 485.6,-622 485.6,-622 485.6,-666.4 485.6,-666.4 485.6,-672.4 479.6,-678.4 473.6,-678.4"/>
<text xml:space="preserve" text-anchor="middle" x="402.8" y="-645.35" font-family="Helvetica,sans-Serif" font-weight="bold" font-size="13.00">NFC Handshake</text>
<text xml:space="preserve" text-anchor="middle" x="402.8" y="-631.85" font-family="Helvetica,sans-Serif" font-weight="bold" font-size="13.00">Processing</text>
</g>
<!-- ss_fw&#45;&gt;fn_hs -->
<g id="edge14" class="edge">
<title>ss_fw&#45;&gt;fn_hs</title>
<path fill="none" stroke="black" d="M402.8,-483.98C402.8,-515.68 402.8,-563.42 402.8,-598.36"/>
<polygon fill="black" stroke="black" points="399.3,-598.17 402.8,-608.17 406.3,-598.17 399.3,-598.17"/>
<text xml:space="preserve" text-anchor="middle" x="418.17" y="-542.35" font-family="Helvetica,sans-Serif" font-size="11.00">assign</text>
</g>
<!-- sv_store&#45;&gt;jams -->
<g id="edge24" class="edge">
<title>sv_store&#45;&gt;jams</title>
<path fill="none" stroke="black" d="M1435.31,-483.98C1428.21,-515.82 1417.5,-563.84 1409.7,-598.82"/>
<polygon fill="black" stroke="black" points="1406.37,-597.68 1407.61,-608.2 1413.2,-599.2 1406.37,-597.68"/>
<text xml:space="preserve" text-anchor="middle" x="1446.14" y="-542.35" font-family="Helvetica,sans-Serif" font-size="11.00">serving</text>
</g>
<!-- sv_store&#45;&gt;fms -->
<g id="edge25" class="edge">
<title>sv_store&#45;&gt;fms</title>
<path fill="none" stroke="black" d="M1479.21,-483.98C1514.76,-516.78 1568.94,-566.76 1607.1,-601.96"/>
<polygon fill="black" stroke="black" points="1604.63,-604.44 1614.35,-608.65 1609.37,-599.3 1604.63,-604.44"/>
<text xml:space="preserve" text-anchor="middle" x="1601.45" y="-542.35" font-family="Helvetica,sans-Serif" font-size="11.00">serving</text>
</g>
<!-- sv_nfc&#45;&gt;acm -->
<g id="edge26" class="edge">
<title>sv_nfc&#45;&gt;acm</title>
<path fill="none" stroke="black" d="M166.65,-678.57C151.73,-696.9 133.08,-719.82 117.16,-739.38"/>
<polygon fill="black" stroke="black" points="114.61,-736.97 111.01,-746.93 120.04,-741.38 114.61,-736.97"/>
<text xml:space="preserve" text-anchor="middle" x="158.88" y="-708.95" font-family="Helvetica,sans-Serif" font-size="11.00">serving</text>
</g>
<!-- fn_store&#45;&gt;ar_db -->
<g id="edge29" class="edge">
<title>fn_store&#45;&gt;ar_db</title>
<path fill="none" stroke="black" d="M1259.06,-814.21C1316.7,-835.4 1393.49,-863.64 1453.25,-885.6"/>
<polygon fill="black" stroke="black" points="1451.8,-888.8 1462.4,-888.97 1454.22,-882.23 1451.8,-888.8"/>
<text xml:space="preserve" text-anchor="middle" x="1388.92" y="-847.35" font-family="Helvetica,sans-Serif" font-size="11.00">access</text>
</g>
<!-- fn_hs&#45;&gt;fn_store -->
<g id="edge28" class="edge">
<title>fn_hs&#45;&gt;fn_store</title>
<path fill="none" stroke="black" d="M485.87,-672.74C493.25,-674.8 500.63,-676.72 507.8,-678.4 709.87,-725.66 951.54,-756.88 1081.66,-771.66"/>
<polygon fill="black" stroke="black" points="1080.92,-775.1 1091.25,-772.74 1081.7,-768.14 1080.92,-775.1"/>
<text xml:space="preserve" text-anchor="middle" x="717.78" y="-708.95" font-family="Helvetica,sans-Serif" font-size="11.00">flow</text>
</g>
<!-- ar_db&#45;&gt;do_tap -->
<g id="edge19" class="edge">
<title>ar_db&#45;&gt;do_tap</title>
<path fill="none" stroke="black" d="M1469.83,-955.54C1424.9,-975.12 1368.06,-999.89 1321.41,-1020.22"/>
<polygon fill="black" stroke="black" points="1320.17,-1016.94 1312.4,-1024.15 1322.97,-1023.36 1320.17,-1016.94"/>
<text xml:space="preserve" text-anchor="middle" x="1408.68" y="-985.75" font-family="Helvetica,sans-Serif" font-size="11.00">real</text>
</g>
<!-- ar_db&#45;&gt;do_acct -->
<g id="edge20" class="edge">
<title>ar_db&#45;&gt;do_acct</title>
<path fill="none" stroke="black" d="M1521.36,-955.37C1507.45,-973.61 1490.07,-996.41 1475.19,-1015.92"/>
<polygon fill="black" stroke="black" points="1472.54,-1013.63 1469.26,-1023.7 1478.1,-1017.87 1472.54,-1013.63"/>
<text xml:space="preserve" text-anchor="middle" x="1506.92" y="-985.75" font-family="Helvetica,sans-Serif" font-size="11.00">real</text>
</g>
<!-- ar_db&#45;&gt;do_fz -->
<g id="edge21" class="edge">
<title>ar_db&#45;&gt;do_fz</title>
<path fill="none" stroke="black" d="M1572.49,-955.37C1586.53,-973.61 1604.08,-996.41 1619.1,-1015.92"/>
<polygon fill="black" stroke="black" points="1616.22,-1017.92 1625.09,-1023.71 1621.77,-1013.65 1616.22,-1017.92"/>
<text xml:space="preserve" text-anchor="middle" x="1611.45" y="-985.75" font-family="Helvetica,sans-Serif" font-size="11.00">real</text>
</g>
<!-- ar_db&#45;&gt;do_tic -->
<g id="edge22" class="edge">
<title>ar_db&#45;&gt;do_tic</title>
<path fill="none" stroke="black" d="M1624.02,-955.54C1669.09,-975.12 1726.11,-999.89 1772.91,-1020.22"/>
<polygon fill="black" stroke="black" points="1771.38,-1023.37 1781.95,-1024.15 1774.17,-1016.95 1771.38,-1023.37"/>
<text xml:space="preserve" text-anchor="middle" x="1722.21" y="-985.75" font-family="Helvetica,sans-Serif" font-size="11.00">real</text>
</g>
<!-- ar_web&#45;&gt;web -->
<g id="edge18" class="edge">
<title>ar_web&#45;&gt;web</title>
<path fill="none" stroke="black" d="M2112.28,-345.37C2106.71,-363.04 2099.8,-384.97 2093.78,-404.05"/>
<polygon fill="black" stroke="black" points="2090.48,-402.87 2090.81,-413.46 2097.16,-404.98 2090.48,-402.87"/>
<text xml:space="preserve" text-anchor="middle" x="2111.59" y="-375.75" font-family="Helvetica,sans-Serif" font-size="11.00">real</text>
</g>
<!-- net -->
<g id="node27" class="node">
<title>net</title>
<path fill="#c9e7b8" stroke="#7fa968" d="M1353.6,-68.4C1353.6,-68.4 1212,-68.4 1212,-68.4 1206,-68.4 1200,-62.4 1200,-56.4 1200,-56.4 1200,-12 1200,-12 1200,-6 1206,0 1212,0 1212,0 1353.6,0 1353.6,0 1359.6,0 1365.6,-6 1365.6,-12 1365.6,-12 1365.6,-56.4 1365.6,-56.4 1365.6,-62.4 1359.6,-68.4 1353.6,-68.4"/>
<text xml:space="preserve" text-anchor="middle" x="1282.8" y="-28.6" font-family="Helvetica,sans-Serif" font-weight="bold" font-size="13.00">Private Network</text>
</g>
<!-- net&#45;&gt;n_si -->
<g id="edge30" class="edge">
<title>net&#45;&gt;n_si</title>
<path fill="none" stroke="black" d="M1199.59,-49.6C1051.71,-75.2 744.13,-128.44 588.83,-155.32"/>
<polygon fill="black" stroke="black" points="588.66,-151.8 579.41,-156.95 589.86,-158.7 588.66,-151.8"/>
<text xml:space="preserve" text-anchor="middle" x="926.3" y="-98.95" font-family="Helvetica,sans-Serif" font-size="11.00">assoc</text>
</g>
<!-- net&#45;&gt;n_be -->
<g id="edge31" class="edge">
<title>net&#45;&gt;n_be</title>
<path fill="none" stroke="black" d="M1288.07,-68.9C1295.8,-118.27 1310.21,-210.35 1318.81,-265.32"/>
<polygon fill="black" stroke="black" points="1315.31,-265.62 1320.32,-274.96 1322.23,-264.54 1315.31,-265.62"/>
<text xml:space="preserve" text-anchor="middle" x="1323.15" y="-168.15" font-family="Helvetica,sans-Serif" font-size="11.00">assoc</text>
</g>
<!-- net&#45;&gt;n_as -->
<g id="edge32" class="edge">
<title>net&#45;&gt;n_as</title>
<path fill="none" stroke="black" d="M1365.87,-51.79C1493.55,-77.29 1737.3,-125.97 1871.46,-152.76"/>
<polygon fill="black" stroke="black" points="1870.54,-156.14 1881.03,-154.67 1871.91,-149.28 1870.54,-156.14"/>
<text xml:space="preserve" text-anchor="middle" x="1658.65" y="-98.95" font-family="Helvetica,sans-Serif" font-size="11.00">assoc</text>
</g>
<!-- p_link -->
<g id="node29" class="node">
<title>p_link</title>
<path fill="#c9e7b8" stroke="#7fa968" d="M1227.6,-206.8C1227.6,-206.8 1086,-206.8 1086,-206.8 1080,-206.8 1074,-200.8 1074,-194.8 1074,-194.8 1074,-150.4 1074,-150.4 1074,-144.4 1080,-138.4 1086,-138.4 1086,-138.4 1227.6,-138.4 1227.6,-138.4 1233.6,-138.4 1239.6,-144.4 1239.6,-150.4 1239.6,-150.4 1239.6,-194.8 1239.6,-194.8 1239.6,-200.8 1233.6,-206.8 1227.6,-206.8"/>
<text xml:space="preserve" text-anchor="middle" x="1156.8" y="-173.75" font-family="Helvetica,sans-Serif" font-weight="bold" font-size="13.00">Gate&#45;Backend</text>
<text xml:space="preserve" text-anchor="middle" x="1156.8" y="-160.25" font-family="Helvetica,sans-Serif" font-weight="bold" font-size="13.00">Link (Path)</text>
</g>
<!-- net&#45;&gt;p_link -->
<g id="edge23" class="edge">
<title>net&#45;&gt;p_link</title>
<path fill="none" stroke="black" d="M1251.98,-68.57C1234.89,-87.06 1213.49,-110.23 1195.31,-129.91"/>
<polygon fill="black" stroke="black" points="1192.98,-127.27 1188.77,-136.99 1198.13,-132.02 1192.98,-127.27"/>
<text xml:space="preserve" text-anchor="middle" x="1232.58" y="-98.95" font-family="Helvetica,sans-Serif" font-size="11.00">real</text>
</g>
<!-- p_nfc -->
<g id="node28" class="node">
<title>p_nfc</title>
<path fill="#c9e7b8" stroke="#7fa968" d="M853.6,-345.2C853.6,-345.2 712,-345.2 712,-345.2 706,-345.2 700,-339.2 700,-333.2 700,-333.2 700,-288.8 700,-288.8 700,-282.8 706,-276.8 712,-276.8 712,-276.8 853.6,-276.8 853.6,-276.8 859.6,-276.8 865.6,-282.8 865.6,-288.8 865.6,-288.8 865.6,-333.2 865.6,-333.2 865.6,-339.2 859.6,-345.2 853.6,-345.2"/>
<text xml:space="preserve" text-anchor="middle" x="782.8" y="-312.15" font-family="Helvetica,sans-Serif" font-weight="bold" font-size="13.00">NFC Handshake</text>
<text xml:space="preserve" text-anchor="middle" x="782.8" y="-298.65" font-family="Helvetica,sans-Serif" font-weight="bold" font-size="13.00">(Path)</text>
</g>
<!-- p_nfc&#45;&gt;d_nfc -->
<g id="edge33" class="edge">
<title>p_nfc&#45;&gt;d_nfc</title>
<path fill="none" stroke="black" d="M740.97,-345.37C717.37,-364.19 687.7,-387.86 662.75,-407.76"/>
<polygon fill="black" stroke="black" points="660.61,-404.99 654.98,-413.96 664.98,-410.46 660.61,-404.99"/>
<text xml:space="preserve" text-anchor="middle" x="716.3" y="-375.75" font-family="Helvetica,sans-Serif" font-size="11.00">assoc</text>
</g>
<!-- p_nfc&#45;&gt;d_pnfc -->
<g id="edge34" class="edge">
<title>p_nfc&#45;&gt;d_pnfc</title>
<path fill="none" stroke="black" d="M699.57,-341.68C653.58,-357.05 595.12,-374.91 541.8,-386.2 435.39,-408.74 405.12,-392.26 298.8,-415.2 295.25,-415.97 291.65,-416.8 288.02,-417.69"/>
<polygon fill="black" stroke="black" points="287.37,-414.24 278.56,-420.13 289.12,-421.02 287.37,-414.24"/>
<text xml:space="preserve" text-anchor="middle" x="602.58" y="-375.75" font-family="Helvetica,sans-Serif" font-size="11.00">assoc</text>
</g>
<!-- p_nfc&#45;&gt;d_card -->
<g id="edge35" class="edge">
<title>p_nfc&#45;&gt;d_card</title>
<path fill="none" stroke="black" d="M792.1,-345.37C797.02,-363.04 803.13,-384.97 808.45,-404.05"/>
<polygon fill="black" stroke="black" points="805.01,-404.75 811.06,-413.45 811.75,-402.87 805.01,-404.75"/>
<text xml:space="preserve" text-anchor="middle" x="816.81" y="-375.75" font-family="Helvetica,sans-Serif" font-size="11.00">assoc</text>
</g>
<!-- p_nfc&#45;&gt;d_wallet -->
<g id="edge36" class="edge">
<title>p_nfc&#45;&gt;d_wallet</title>
<path fill="none" stroke="black" d="M843.54,-345.54C878.4,-364.79 922.35,-389.06 958.8,-409.19"/>
<polygon fill="black" stroke="black" points="957.1,-412.25 967.54,-414.02 960.48,-406.12 957.1,-412.25"/>
<text xml:space="preserve" text-anchor="middle" x="927.58" y="-375.75" font-family="Helvetica,sans-Serif" font-size="11.00">assoc</text>
</g>
<!-- p_link&#45;&gt;n_be -->
<g id="edge38" class="edge">
<title>p_link&#45;&gt;n_be</title>
<path fill="none" stroke="black" d="M1198.14,-206.97C1221.47,-225.79 1250.79,-249.46 1275.45,-269.36"/>
<polygon fill="black" stroke="black" points="1273.14,-272 1283.12,-275.55 1277.54,-266.55 1273.14,-272"/>
<text xml:space="preserve" text-anchor="middle" x="1260.24" y="-237.35" font-family="Helvetica,sans-Serif" font-size="11.00">assoc</text>
</g>
<!-- p_link&#45;&gt;d_gate -->
<g id="edge37" class="edge">
<title>p_link&#45;&gt;d_gate</title>
<path fill="none" stroke="black" d="M1073.63,-190.74C950.04,-216.2 718.61,-263.89 588.96,-290.6"/>
<polygon fill="black" stroke="black" points="588.46,-287.13 579.37,-292.57 589.88,-293.98 588.46,-287.13"/>
<text xml:space="preserve" text-anchor="middle" x="859.52" y="-237.35" font-family="Helvetica,sans-Serif" font-size="11.00">assoc</text>
</g>
</g>
</svg>
